SplineFontDB: 3.2
FontName: NotoSansZanabazarSquare-Regular
FullName: Noto Sans Zanabazar Square Regular
FamilyName: Noto Sans Zanabazar
Weight: Book
Copyright: Copyright 2020 Google Inc. All Rights Reserved.
Version: 2.002
ItalicAngle: 0
UnderlinePosition: -125
UnderlineWidth: 50
Ascent: 800
Descent: 200
InvalidEm: 0
sfntRevision: 0x00020083
LayerCount: 2
Layer: 0 1 "+BBcEMAQ0BD0EOAQ5 +BD8EOwQwBD0A" 1
Layer: 1 1 "+BB8ENQRABDUENAQ9BDgEOQAA +BD8EOwQwBD0A" 0
XUID: [1021 59 1751208496 28211]
StyleMap: 0x0040
FSType: 0
OS2Version: 4
OS2_WeightWidthSlopeOnly: 1
OS2_UseTypoMetrics: 0
CreationTime: 1590597928
ModificationTime: 1650350329
PfmFamily: 17
TTFWeight: 400
TTFWidth: 5
LineGap: 0
VLineGap: 0
Panose: 2 11 5 2 4 5 4 2 2 4
OS2TypoAscent: 1621
OS2TypoAOffset: 0
OS2TypoDescent: -821
OS2TypoDOffset: 0
OS2TypoLinegap: 0
OS2WinAscent: 1621
OS2WinAOffset: 0
OS2WinDescent: 821
OS2WinDOffset: 0
HheadAscent: 1621
HheadAOffset: 0
HheadDescent: -821
HheadDOffset: 0
OS2SubXSize: 650
OS2SubYSize: 600
OS2SubXOff: 0
OS2SubYOff: 75
OS2SupXSize: 650
OS2SupYSize: 600
OS2SupXOff: 0
OS2SupYOff: 350
OS2StrikeYSize: 50
OS2StrikeYPos: 322
OS2CapHeight: 678
OS2XHeight: 536
OS2Vendor: 'GOOG'
OS2CodePages: 00000001.00000000
OS2UnicodeRanges: 00000003.02002000.00000000.00000000
Lookup: 6 0 0 "'ccmp' +BBoEPgQ8BD8EPgQ3BDgERgQ4BE8A-/+BDQENQQ6BD4EPAQ/BD4ENwQ4BEYEOARP +BDMEOwQ4BEQEMAAA lookup 0" { "'ccmp' +BBoEPgQ8BD8EPgQ3BDgERgQ4BE8A-/+BDQENQQ6BD4EPAQ/BD4ENwQ4BEYEOARP +BDMEOwQ4BEQEMAAA lookup 0 subtable"  } ['ccmp' ('DFLT' <'SAN ' 'dflt' > ) ]
Lookup: 2 0 0 "+BBwEPQQ+BDYENQRBBEIEMgQ1BD0EPQQwBE8A +BD8EPgQ0BEEEQgQwBD0EPgQyBDoEMAAA lookup 1" { "+BBwEPQQ+BDYENQRBBEIEMgQ1BD0EPQQwBE8A +BD8EPgQ0BEEEQgQwBD0EPgQyBDoEMAAA lookup 1 subtable"  } []

StartChar: .notdef
Encoding: 1114112 -1 0
Width: 600
GlyphClass: 1
Flags: W
HStem: 0 51<145 454> 663 51<145 454>
VStem: 94 51<51 663> 454 51<51 663>
LayerCount: 2
Fore
SplineSet
94 0 m 1,0,-1
 94 714 l 1,1,-1
 505 714 l 1,2,-1
 505 0 l 1,3,-1
 94 0 l 1,0,-1
145 51 m 1,4,-1
 454 51 l 1,5,-1
 454 663 l 1,6,-1
 145 663 l 1,7,-1
 145 51 l 1,4,-1
EndSplineSet
EndChar

StartChar: dottedCircle
Encoding: 9676 9676 5
Width: 600
GlyphClass: 2
Flags: W
HStem: 73 48<278.219 311.781> 100 48<181.219 214.781 376.219 409.781> 172 48<108.219 141.781 447.219 480.781> 267 48<84.2195 117.781 475.219 508.781> 368 48<110.219 143.781 445.219 478.781> 438 48<181.219 214.781 375.219 408.781> 462 48<278.219 311.781>
VStem: 77 48<274.219 307.781> 101 48<179.219 212.781 375.219 408.781> 174 48<107.219 140.781 445.219 478.781> 271 48<80.2195 113.781 469.219 502.781> 369 48<108.219 141.781 445.219 478.781> 440 48<180.219 213.781 373.219 406.781> 468 48<274.219 307.781>
AnchorPoint: "+BBEENQQ3BEsEPARPBD0EPQQ+BDUA--12" 88 566 basechar 0
AnchorPoint: "+BBEENQQ3BEsEPARPBD0EPQQ+BDUA--11" 550 566 basechar 0
AnchorPoint: "+BBEENQQ3BEsEPARPBD0EPQQ+BDUA--10" 514 -15 basechar 0
AnchorPoint: "+BBEENQQ3BEsEPARPBD0EPQQ+BDUA--9" 295 -12 basechar 0
AnchorPoint: "+BBEENQQ3BEsEPARPBD0EPQQ+BDUA--8" 295 640 basechar 0
LayerCount: 2
Fore
SplineSet
295 462 m 256,0,1
 285 462 285 462 278 469 c 128,-1,2
 271 476 271 476 271 486 c 256,3,4
 271 496 271 496 278 503 c 128,-1,5
 285 510 285 510 295 510 c 256,6,7
 305 510 305 510 312 503 c 128,-1,8
 319 496 319 496 319 486 c 256,9,10
 319 476 319 476 312 469 c 128,-1,11
 305 462 305 462 295 462 c 256,0,1
392 438 m 256,12,13
 382 438 382 438 375 445 c 128,-1,14
 368 452 368 452 368 462 c 256,15,16
 368 472 368 472 375 479 c 128,-1,17
 382 486 382 486 392 486 c 256,18,19
 402 486 402 486 409 479 c 128,-1,20
 416 472 416 472 416 462 c 256,21,22
 416 452 416 452 409 445 c 128,-1,23
 402 438 402 438 392 438 c 256,12,13
198 438 m 256,24,25
 188 438 188 438 181 445 c 128,-1,26
 174 452 174 452 174 462 c 256,27,28
 174 472 174 472 181 479 c 128,-1,29
 188 486 188 486 198 486 c 256,30,31
 208 486 208 486 215 479 c 128,-1,32
 222 472 222 472 222 462 c 256,33,34
 222 452 222 452 215 445 c 128,-1,35
 208 438 208 438 198 438 c 256,24,25
127 368 m 256,36,37
 117 368 117 368 110 375 c 128,-1,38
 103 382 103 382 103 392 c 256,39,40
 103 402 103 402 110 409 c 128,-1,41
 117 416 117 416 127 416 c 256,42,43
 137 416 137 416 144 409 c 128,-1,44
 151 402 151 402 151 392 c 256,45,46
 151 382 151 382 144 375 c 128,-1,47
 137 368 137 368 127 368 c 256,36,37
462 366 m 256,48,49
 452 366 452 366 445 373 c 128,-1,50
 438 380 438 380 438 390 c 256,51,52
 438 400 438 400 445 407 c 128,-1,53
 452 414 452 414 462 414 c 256,54,55
 472 414 472 414 479 407 c 128,-1,56
 486 400 486 400 486 390 c 256,57,58
 486 380 486 380 479 373 c 128,-1,59
 472 366 472 366 462 366 c 256,48,49
101 267 m 256,60,61
 91 267 91 267 84 274 c 128,-1,62
 77 281 77 281 77 291 c 256,63,64
 77 301 77 301 84 308 c 128,-1,65
 91 315 91 315 101 315 c 256,66,67
 111 315 111 315 118 308 c 128,-1,68
 125 301 125 301 125 291 c 256,69,70
 125 281 125 281 118 274 c 128,-1,71
 111 267 111 267 101 267 c 256,60,61
492 267 m 256,72,73
 482 267 482 267 475 274 c 128,-1,74
 468 281 468 281 468 291 c 256,75,76
 468 301 468 301 475 308 c 128,-1,77
 482 315 482 315 492 315 c 256,78,79
 502 315 502 315 509 308 c 128,-1,80
 516 301 516 301 516 291 c 256,81,82
 516 281 516 281 509 274 c 128,-1,83
 502 267 502 267 492 267 c 256,72,73
464 173 m 256,84,85
 454 173 454 173 447 180 c 128,-1,86
 440 187 440 187 440 197 c 256,87,88
 440 207 440 207 447 214 c 128,-1,89
 454 221 454 221 464 221 c 256,90,91
 474 221 474 221 481 214 c 128,-1,92
 488 207 488 207 488 197 c 256,93,94
 488 187 488 187 481 180 c 128,-1,95
 474 173 474 173 464 173 c 256,84,85
125 172 m 256,96,97
 115 172 115 172 108 179 c 128,-1,98
 101 186 101 186 101 196 c 256,99,100
 101 206 101 206 108 213 c 128,-1,101
 115 220 115 220 125 220 c 256,102,103
 135 220 135 220 142 213 c 128,-1,104
 149 206 149 206 149 196 c 256,105,106
 149 186 149 186 142 179 c 128,-1,107
 135 172 135 172 125 172 c 256,96,97
393 101 m 256,108,109
 383 101 383 101 376 108 c 128,-1,110
 369 115 369 115 369 125 c 256,111,112
 369 135 369 135 376 142 c 128,-1,113
 383 149 383 149 393 149 c 256,114,115
 403 149 403 149 410 142 c 128,-1,116
 417 135 417 135 417 125 c 256,117,118
 417 115 417 115 410 108 c 128,-1,119
 403 101 403 101 393 101 c 256,108,109
198 100 m 256,120,121
 188 100 188 100 181 107 c 128,-1,122
 174 114 174 114 174 124 c 256,123,124
 174 134 174 134 181 141 c 128,-1,125
 188 148 188 148 198 148 c 256,126,127
 208 148 208 148 215 141 c 128,-1,128
 222 134 222 134 222 124 c 256,129,130
 222 114 222 114 215 107 c 128,-1,131
 208 100 208 100 198 100 c 256,120,121
295 73 m 256,132,133
 285 73 285 73 278 80 c 128,-1,134
 271 87 271 87 271 97 c 256,135,136
 271 107 271 107 278 114 c 128,-1,137
 285 121 285 121 295 121 c 256,138,139
 305 121 305 121 312 114 c 128,-1,140
 319 107 319 107 319 97 c 256,141,142
 319 87 319 87 312 80 c 128,-1,143
 305 73 305 73 295 73 c 256,132,133
EndSplineSet
EndChar

StartChar: i_zanb
Encoding: 72193 72193 6
Width: 0
GlyphClass: 4
Flags: W
HStem: 831 86<-554.156 -311.956>
AnchorPoint: "+BBEENQQ3BEsEPARPBD0EPQQ+BDUA--8" -413 798 mark 0
AnchorPoint: "+BBEENQQ3BEsEPARPBD0EPQQ+BDUA--3" -413 1035 basemark 0
AnchorPoint: "+BBEENQQ3BEsEPARPBD0EPQQ+BDUA--3" -413 798 mark 0
AnchorPoint: "+BBEENQQ3BEsEPARPBD0EPQQ+BDUA--0" -413 798 mark 0
LayerCount: 2
Fore
SplineSet
-93 702 m 1,0,1
 -130 734 -130 734 -180.5 763 c 128,-1,2
 -231 792 -231 792 -294 811 c 128,-1,3
 -357 830 -357 830 -432 831 c 0,4,5
 -514 833 -514 833 -594.5 813 c 128,-1,6
 -675 793 -675 793 -731 752 c 1,7,-1
 -737 752 l 1,8,9
 -711 794 -711 794 -665.5 831.5 c 128,-1,10
 -620 869 -620 869 -560 893 c 128,-1,11
 -500 917 -500 917 -433 917 c 0,12,13
 -371 917 -371 917 -316.5 897 c 128,-1,14
 -262 877 -262 877 -217 844.5 c 128,-1,15
 -172 812 -172 812 -139 774.5 c 128,-1,16
 -106 737 -106 737 -87 702 c 1,17,-1
 -93 702 l 1,0,1
EndSplineSet
Substitution2: "+BBUENAQ4BD0EOARHBD0EMARP +BD8EPgQ0BEEEQgQwBD0EPgQyBDoEMAAA lookup 12 subtable" i_zanb.wide
EndChar

StartChar: i_zanb.wide
Encoding: 1114113 -1 7
Width: 0
GlyphClass: 4
Flags: W
HStem: 831 86<-662.306 -285.658>
AnchorPoint: "+BBEENQQ3BEsEPARPBD0EPQQ+BDUA--8" -433 798 mark 0
AnchorPoint: "+BBEENQQ3BEsEPARPBD0EPQQ+BDUA--3" -433 1005 basemark 0
AnchorPoint: "+BBEENQQ3BEsEPARPBD0EPQQ+BDUA--3" -433 798 mark 0
AnchorPoint: "+BBEENQQ3BEsEPARPBD0EPQQ+BDUA--0" -433 798 mark 0
LayerCount: 2
Fore
SplineSet
47 702 m 1,0,1
 -7 734 -7 734 -89 763 c 128,-1,2
 -171 792 -171 792 -269.5 811 c 128,-1,3
 -368 830 -368 830 -472 831 c 0,4,5
 -571 832 -571 832 -648 823.5 c 128,-1,6
 -725 815 -725 815 -787 797 c 128,-1,7
 -849 779 -849 779 -903 752 c 1,8,-1
 -912 752 l 1,9,10
 -870 799 -870 799 -809 836 c 128,-1,11
 -748 873 -748 873 -664.5 895 c 128,-1,12
 -581 917 -581 917 -472 917 c 0,13,14
 -349 917 -349 917 -246.5 884.5 c 128,-1,15
 -144 852 -144 852 -67 803 c 128,-1,16
 10 754 10 754 56 702 c 1,17,-1
 47 702 l 1,0,1
EndSplineSet
EndChar

StartChar: ue_zanb
Encoding: 72194 72194 8
Width: 0
GlyphClass: 4
Flags: W
HStem: -318 86<-541.339 -298.212>
AnchorPoint: "+BBEENQQ3BEsEPARPBD0EPQQ+BDUA--9" -420 -120 mark 0
AnchorPoint: "+BBEENQQ3BEsEPARPBD0EPQQ+BDUA--6" -420 -419 basemark 0
AnchorPoint: "+BBEENQQ3BEsEPARPBD0EPQQ+BDUA--6" -420 -120 mark 0
AnchorPoint: "+BBEENQQ3BEsEPARPBD0EPQQ+BDUA--4" -420 -120 mark 0
LayerCount: 2
Fore
SplineSet
-420 -318 m 0,0,1
 -497 -318 -497 -318 -565.5 -286.5 c 128,-1,2
 -634 -255 -634 -255 -684.5 -199.5 c 128,-1,3
 -735 -144 -735 -144 -760 -73 c 1,4,-1
 -754 -73 l 1,5,6
 -668 -161 -668 -161 -585 -196.5 c 128,-1,7
 -502 -232 -502 -232 -420 -232 c 256,8,9
 -338 -232 -338 -232 -254.5 -196.5 c 128,-1,10
 -171 -161 -171 -161 -86 -73 c 1,11,-1
 -80 -73 l 1,12,13
 -104 -144 -104 -144 -155 -199.5 c 128,-1,14
 -206 -255 -206 -255 -274 -286.5 c 128,-1,15
 -342 -318 -342 -318 -420 -318 c 0,0,1
EndSplineSet
Substitution2: "+BBUENAQ4BD0EOARHBD0EMARP +BD8EPgQ0BEEEQgQwBD0EPgQyBDoEMAAA lookup 10 subtable" ue_zanb.wide
EndChar

StartChar: ue_zanb.wide
Encoding: 1114114 -1 9
Width: 0
GlyphClass: 4
Flags: W
HStem: -318 86<-772.284 -367.7>
AnchorPoint: "+BBEENQQ3BEsEPARPBD0EPQQ+BDUA--9" -421 -120 mark 0
AnchorPoint: "+BBEENQQ3BEsEPARPBD0EPQQ+BDUA--6" -570 -419 basemark 0
AnchorPoint: "+BBEENQQ3BEsEPARPBD0EPQQ+BDUA--6" -421 -120 mark 0
AnchorPoint: "+BBEENQQ3BEsEPARPBD0EPQQ+BDUA--4" -421 -120 mark 0
LayerCount: 2
Fore
SplineSet
-570 -318 m 256,0,1
 -684 -318 -684 -318 -767 -297.5 c 128,-1,2
 -850 -277 -850 -277 -907 -242 c 128,-1,3
 -964 -207 -964 -207 -1001 -163 c 128,-1,4
 -1038 -119 -1038 -119 -1060 -73 c 1,5,-1
 -1054 -73 l 1,6,7
 -1007 -110 -1007 -110 -961.5 -139 c 128,-1,8
 -916 -168 -916 -168 -862.5 -189 c 128,-1,9
 -809 -210 -809 -210 -738 -221 c 128,-1,10
 -667 -232 -667 -232 -570 -232 c 256,11,12
 -473 -232 -473 -232 -402 -221 c 128,-1,13
 -331 -210 -331 -210 -277 -189 c 128,-1,14
 -223 -168 -223 -168 -177.5 -138.5 c 128,-1,15
 -132 -109 -132 -109 -86 -73 c 1,16,-1
 -80 -73 l 1,17,18
 -102 -119 -102 -119 -139 -163 c 128,-1,19
 -176 -207 -176 -207 -233 -242 c 128,-1,20
 -290 -277 -290 -277 -373 -297.5 c 128,-1,21
 -456 -318 -456 -318 -570 -318 c 256,0,1
EndSplineSet
EndChar

StartChar: u_zanb
Encoding: 72195 72195 10
Width: 0
GlyphClass: 4
Flags: W
HStem: -232 86<-760 -128>
VStem: -128 48<-146 49>
AnchorPoint: "+BBEENQQ3BEsEPARPBD0EPQQ+BDUA--10" -176 38 mark 0
AnchorPoint: "+BBEENQQ3BEsEPARPBD0EPQQ+BDUA--7" -176 38 mark 0
AnchorPoint: "+BBEENQQ3BEsEPARPBD0EPQQ+BDUA--5" -176 38 mark 0
LayerCount: 2
Fore
SplineSet
-760 -232 m 1,0,-1
 -760 -146 l 1,1,-1
 -128 -146 l 1,2,-1
 -128 49 l 1,3,-1
 -80 49 l 1,4,-1
 -80 -232 l 1,5,-1
 -760 -232 l 1,0,-1
EndSplineSet
Substitution2: "+BBUENAQ4BD0EOARHBD0EMARP +BD8EPgQ0BEEEQgQwBD0EPgQyBDoEMAAA lookup 10 subtable" u_zanb.wide
EndChar

StartChar: u_zanb.wide
Encoding: 1114115 -1 11
Width: 0
GlyphClass: 4
Flags: W
HStem: -232 86<-1058 -128>
VStem: -128 48<-146 49>
AnchorPoint: "+BBEENQQ3BEsEPARPBD0EPQQ+BDUA--10" -176 38 mark 0
AnchorPoint: "+BBEENQQ3BEsEPARPBD0EPQQ+BDUA--7" -176 38 mark 0
AnchorPoint: "+BBEENQQ3BEsEPARPBD0EPQQ+BDUA--5" -176 38 mark 0
LayerCount: 2
Fore
SplineSet
-1058 -232 m 1,0,-1
 -1058 -146 l 1,1,-1
 -128 -146 l 1,2,-1
 -128 49 l 1,3,-1
 -80 49 l 1,4,-1
 -80 -232 l 1,5,-1
 -1058 -232 l 1,0,-1
EndSplineSet
EndChar

StartChar: e_zanb
Encoding: 72196 72196 12
Width: 0
GlyphClass: 4
Flags: W
HStem: 858 86<-760 -142>
VStem: -142 62<641 858>
AnchorPoint: "+BBEENQQ3BEsEPARPBD0EPQQ+BDUA--8" -420 813 mark 0
AnchorPoint: "+BBEENQQ3BEsEPARPBD0EPQQ+BDUA--3" -421 995 basemark 0
AnchorPoint: "+BBEENQQ3BEsEPARPBD0EPQQ+BDUA--3" -420 813 mark 0
AnchorPoint: "+BBEENQQ3BEsEPARPBD0EPQQ+BDUA--0" -420 813 mark 0
LayerCount: 2
Fore
SplineSet
-142 641 m 1,0,-1
 -142 858 l 1,1,-1
 -760 858 l 1,2,-1
 -760 944 l 1,3,-1
 -80 944 l 1,4,-1
 -80 641 l 1,5,-1
 -142 641 l 1,0,-1
EndSplineSet
Substitution2: "+BBUENAQ4BD0EOARHBD0EMARP +BD8EPgQ0BEEEQgQwBD0EPgQyBDoEMAAA lookup 17 subtable" e_zanb.ai
Substitution2: "+BBUENAQ4BD0EOARHBD0EMARP +BD8EPgQ0BEEEQgQwBD0EPgQyBDoEMAAA lookup 16 subtable" e_zanb.ai
Substitution2: "+BBUENAQ4BD0EOARHBD0EMARP +BD8EPgQ0BEEEQgQwBD0EPgQyBDoEMAAA lookup 15 subtable" e_zanb.ai
Substitution2: "+BBUENAQ4BD0EOARHBD0EMARP +BD8EPgQ0BEEEQgQwBD0EPgQyBDoEMAAA lookup 14 subtable" e_zanb.ai
Substitution2: "+BBUENAQ4BD0EOARHBD0EMARP +BD8EPgQ0BEEEQgQwBD0EPgQyBDoEMAAA lookup 12 subtable" e_zanb.wide
EndChar

StartChar: e_zanb.wide
Encoding: 1114116 -1 13
Width: 0
GlyphClass: 4
Flags: W
HStem: 858 86<-1056 -142>
VStem: -142 62<641 858>
AnchorPoint: "+BBEENQQ3BEsEPARPBD0EPQQ+BDUA--8" -568 813 mark 0
AnchorPoint: "+BBEENQQ3BEsEPARPBD0EPQQ+BDUA--3" -568 965 basemark 0
AnchorPoint: "+BBEENQQ3BEsEPARPBD0EPQQ+BDUA--3" -568 813 mark 0
AnchorPoint: "+BBEENQQ3BEsEPARPBD0EPQQ+BDUA--0" -568 813 mark 0
LayerCount: 2
Fore
SplineSet
-142 641 m 1,0,-1
 -142 858 l 1,1,-1
 -1056 858 l 1,2,-1
 -1056 944 l 1,3,-1
 -80 944 l 1,4,-1
 -80 641 l 1,5,-1
 -142 641 l 1,0,-1
EndSplineSet
Substitution2: "+BBUENAQ4BD0EOARHBD0EMARP +BD8EPgQ0BEEEQgQwBD0EPgQyBDoEMAAA lookup 17 subtable" e_zanb.wide.ai
Substitution2: "+BBUENAQ4BD0EOARHBD0EMARP +BD8EPgQ0BEEEQgQwBD0EPgQyBDoEMAAA lookup 16 subtable" e_zanb.wide.ai
Substitution2: "+BBUENAQ4BD0EOARHBD0EMARP +BD8EPgQ0BEEEQgQwBD0EPgQyBDoEMAAA lookup 15 subtable" e_zanb.wide.ai
Substitution2: "+BBUENAQ4BD0EOARHBD0EMARP +BD8EPgQ0BEEEQgQwBD0EPgQyBDoEMAAA lookup 14 subtable" e_zanb.wide.ai
EndChar

StartChar: e_zanb.wide.ai
Encoding: 1114117 -1 14
Width: 0
GlyphClass: 4
Flags: W
HStem: 858 86<-967 -142>
VStem: -142 62<641 858>
AnchorPoint: "+BBEENQQ3BEsEPARPBD0EPQQ+BDUA--8" -478 813 mark 0
AnchorPoint: "+BBEENQQ3BEsEPARPBD0EPQQ+BDUA--3" -478 965 basemark 0
AnchorPoint: "+BBEENQQ3BEsEPARPBD0EPQQ+BDUA--3" -478 813 mark 0
AnchorPoint: "+BBEENQQ3BEsEPARPBD0EPQQ+BDUA--0" -478 813 mark 0
LayerCount: 2
Fore
SplineSet
-142 641 m 1,0,-1
 -142 858 l 1,1,-1
 -967 858 l 1,2,-1
 -967 944 l 1,3,-1
 -80 944 l 1,4,-1
 -80 641 l 1,5,-1
 -142 641 l 1,0,-1
EndSplineSet
EndChar

StartChar: e_zanb.ai
Encoding: 1114118 -1 15
Width: 0
GlyphClass: 4
Flags: W
HStem: 858 86<-1055 -550>
VStem: -550 62<641 858>
AnchorPoint: "+BBEENQQ3BEsEPARPBD0EPQQ+BDUA--8" -715 811 mark 0
AnchorPoint: "+BBEENQQ3BEsEPARPBD0EPQQ+BDUA--3" -715 965 basemark 0
AnchorPoint: "+BBEENQQ3BEsEPARPBD0EPQQ+BDUA--3" -715 811 mark 0
AnchorPoint: "+BBEENQQ3BEsEPARPBD0EPQQ+BDUA--0" -715 811 mark 0
LayerCount: 2
Fore
SplineSet
-550 641 m 1,0,-1
 -550 858 l 1,1,-1
 -1055 858 l 1,2,-1
 -1055 944 l 1,3,-1
 -488 944 l 1,4,-1
 -488 641 l 1,5,-1
 -550 641 l 1,0,-1
EndSplineSet
EndChar

StartChar: oe_zanb
Encoding: 72197 72197 16
Width: 0
GlyphClass: 4
Flags: W
HStem: 858 86<-760 -445 -395 -80>
VStem: -445 50<641 858>
AnchorPoint: "+BBEENQQ3BEsEPARPBD0EPQQ+BDUA--8" -420 808 mark 0
AnchorPoint: "+BBEENQQ3BEsEPARPBD0EPQQ+BDUA--3" -421 965 basemark 0
AnchorPoint: "+BBEENQQ3BEsEPARPBD0EPQQ+BDUA--3" -420 808 mark 0
AnchorPoint: "+BBEENQQ3BEsEPARPBD0EPQQ+BDUA--0" -420 808 mark 0
LayerCount: 2
Fore
SplineSet
-445 641 m 1,0,-1
 -445 858 l 1,1,-1
 -760 858 l 1,2,-1
 -760 944 l 1,3,-1
 -80 944 l 1,4,-1
 -80 858 l 1,5,-1
 -395 858 l 1,6,-1
 -395 641 l 1,7,-1
 -445 641 l 1,0,-1
EndSplineSet
Substitution2: "+BBUENAQ4BD0EOARHBD0EMARP +BD8EPgQ0BEEEQgQwBD0EPgQyBDoEMAAA lookup 12 subtable" oe_zanb.wide
EndChar

StartChar: oe_zanb.wide
Encoding: 1114119 -1 17
Width: 0
GlyphClass: 4
Flags: W
HStem: 858 86<-1056 -593 -543 -80>
VStem: -593 50<641 858>
AnchorPoint: "+BBEENQQ3BEsEPARPBD0EPQQ+BDUA--8" -568 808 mark 0
AnchorPoint: "+BBEENQQ3BEsEPARPBD0EPQQ+BDUA--3" -569 965 basemark 0
AnchorPoint: "+BBEENQQ3BEsEPARPBD0EPQQ+BDUA--3" -568 808 mark 0
AnchorPoint: "+BBEENQQ3BEsEPARPBD0EPQQ+BDUA--0" -568 808 mark 0
LayerCount: 2
Fore
SplineSet
-593 641 m 1,0,-1
 -593 858 l 1,1,-1
 -1056 858 l 1,2,-1
 -1056 944 l 1,3,-1
 -80 944 l 1,4,-1
 -80 858 l 1,5,-1
 -543 858 l 1,6,-1
 -543 641 l 1,7,-1
 -593 641 l 1,0,-1
EndSplineSet
EndChar

StartChar: o_zanb
Encoding: 72198 72198 18
Width: 0
GlyphClass: 4
Flags: W
HStem: 858 86<-763 -495 -348 -80>
AnchorPoint: "+BBEENQQ3BEsEPARPBD0EPQQ+BDUA--8" -419 811 mark 0
AnchorPoint: "+BBEENQQ3BEsEPARPBD0EPQQ+BDUA--3" -421 994 basemark 0
AnchorPoint: "+BBEENQQ3BEsEPARPBD0EPQQ+BDUA--3" -419 811 mark 0
AnchorPoint: "+BBEENQQ3BEsEPARPBD0EPQQ+BDUA--0" -419 811 mark 0
LayerCount: 2
Fore
SplineSet
-421 711 m 1,0,-1
 -495 858 l 1,1,-1
 -763 858 l 1,2,-1
 -763 949 l 1,3,-1
 -751 949 l 1,4,-1
 -733 944 l 1,5,-1
 -480 944 l 1,6,-1
 -423 829 l 1,7,-1
 -419 829 l 1,8,-1
 -363 944 l 1,9,-1
 -110 944 l 1,10,-1
 -92 949 l 1,11,-1
 -80 949 l 1,12,-1
 -80 858 l 1,13,-1
 -348 858 l 1,14,-1
 -421 711 l 1,0,-1
EndSplineSet
Substitution2: "+BBUENAQ4BD0EOARHBD0EMARP +BD8EPgQ0BEEEQgQwBD0EPgQyBDoEMAAA lookup 21 subtable" o_zanb.au
Substitution2: "+BBUENAQ4BD0EOARHBD0EMARP +BD8EPgQ0BEEEQgQwBD0EPgQyBDoEMAAA lookup 20 subtable" o_zanb.au
Substitution2: "+BBUENAQ4BD0EOARHBD0EMARP +BD8EPgQ0BEEEQgQwBD0EPgQyBDoEMAAA lookup 19 subtable" o_zanb.au
Substitution2: "+BBUENAQ4BD0EOARHBD0EMARP +BD8EPgQ0BEEEQgQwBD0EPgQyBDoEMAAA lookup 18 subtable" o_zanb.au
Substitution2: "+BBUENAQ4BD0EOARHBD0EMARP +BD8EPgQ0BEEEQgQwBD0EPgQyBDoEMAAA lookup 17 subtable" o_zanb.ai
Substitution2: "+BBUENAQ4BD0EOARHBD0EMARP +BD8EPgQ0BEEEQgQwBD0EPgQyBDoEMAAA lookup 16 subtable" o_zanb.ai
Substitution2: "+BBUENAQ4BD0EOARHBD0EMARP +BD8EPgQ0BEEEQgQwBD0EPgQyBDoEMAAA lookup 15 subtable" o_zanb.ai
Substitution2: "+BBUENAQ4BD0EOARHBD0EMARP +BD8EPgQ0BEEEQgQwBD0EPgQyBDoEMAAA lookup 14 subtable" o_zanb.ai
Substitution2: "+BBUENAQ4BD0EOARHBD0EMARP +BD8EPgQ0BEEEQgQwBD0EPgQyBDoEMAAA lookup 12 subtable" o_zanb.wide
EndChar

StartChar: o_zanb.wide
Encoding: 1114120 -1 19
Width: 0
GlyphClass: 4
Flags: W
HStem: 858 86<-1058 -675 -464 -81>
AnchorPoint: "+BBEENQQ3BEsEPARPBD0EPQQ+BDUA--8" -569 811 mark 0
AnchorPoint: "+BBEENQQ3BEsEPARPBD0EPQQ+BDUA--3" -569 994 basemark 0
AnchorPoint: "+BBEENQQ3BEsEPARPBD0EPQQ+BDUA--3" -569 811 mark 0
AnchorPoint: "+BBEENQQ3BEsEPARPBD0EPQQ+BDUA--0" -569 811 mark 0
LayerCount: 2
Fore
SplineSet
-569 711 m 1,0,-1
 -675 858 l 1,1,-1
 -1058 858 l 1,2,-1
 -1058 949 l 1,3,-1
 -1041 949 l 1,4,-1
 -1015 944 l 1,5,-1
 -653 944 l 1,6,-1
 -572 829 l 1,7,-1
 -566 829 l 1,8,-1
 -486 944 l 1,9,-1
 -124 944 l 1,10,-1
 -98 949 l 1,11,-1
 -81 949 l 1,12,-1
 -81 858 l 1,13,-1
 -464 858 l 1,14,-1
 -569 711 l 1,0,-1
EndSplineSet
Substitution2: "+BBUENAQ4BD0EOARHBD0EMARP +BD8EPgQ0BEEEQgQwBD0EPgQyBDoEMAAA lookup 21 subtable" o_zanb.wide.au
Substitution2: "+BBUENAQ4BD0EOARHBD0EMARP +BD8EPgQ0BEEEQgQwBD0EPgQyBDoEMAAA lookup 20 subtable" o_zanb.wide.au
Substitution2: "+BBUENAQ4BD0EOARHBD0EMARP +BD8EPgQ0BEEEQgQwBD0EPgQyBDoEMAAA lookup 19 subtable" o_zanb.wide.au
Substitution2: "+BBUENAQ4BD0EOARHBD0EMARP +BD8EPgQ0BEEEQgQwBD0EPgQyBDoEMAAA lookup 18 subtable" o_zanb.wide.au
Substitution2: "+BBUENAQ4BD0EOARHBD0EMARP +BD8EPgQ0BEEEQgQwBD0EPgQyBDoEMAAA lookup 17 subtable" o_zanb.wide.ai
Substitution2: "+BBUENAQ4BD0EOARHBD0EMARP +BD8EPgQ0BEEEQgQwBD0EPgQyBDoEMAAA lookup 16 subtable" o_zanb.wide.ai
Substitution2: "+BBUENAQ4BD0EOARHBD0EMARP +BD8EPgQ0BEEEQgQwBD0EPgQyBDoEMAAA lookup 15 subtable" o_zanb.wide.ai
Substitution2: "+BBUENAQ4BD0EOARHBD0EMARP +BD8EPgQ0BEEEQgQwBD0EPgQyBDoEMAAA lookup 14 subtable" o_zanb.wide.ai
EndChar

StartChar: o_zanb.wide.ai
Encoding: 1114121 -1 20
Width: 0
GlyphClass: 4
Flags: W
HStem: 858 86<-1058 -735 -524 -201>
AnchorPoint: "+BBEENQQ3BEsEPARPBD0EPQQ+BDUA--8" -569 811 mark 0
AnchorPoint: "+BBEENQQ3BEsEPARPBD0EPQQ+BDUA--3" -569 994 basemark 0
AnchorPoint: "+BBEENQQ3BEsEPARPBD0EPQQ+BDUA--3" -569 811 mark 0
AnchorPoint: "+BBEENQQ3BEsEPARPBD0EPQQ+BDUA--0" -569 811 mark 0
LayerCount: 2
Fore
SplineSet
-629 711 m 1,0,-1
 -735 858 l 1,1,-1
 -1058 858 l 1,2,-1
 -1058 949 l 1,3,-1
 -1041 949 l 1,4,-1
 -1015 944 l 1,5,-1
 -713 944 l 1,6,-1
 -632 829 l 1,7,-1
 -626 829 l 1,8,-1
 -546 944 l 1,9,-1
 -244 944 l 1,10,-1
 -218 949 l 1,11,-1
 -201 949 l 1,12,-1
 -201 858 l 1,13,-1
 -524 858 l 1,14,-1
 -629 711 l 1,0,-1
EndSplineSet
EndChar

StartChar: o_zanb.ai
Encoding: 1114122 -1 21
Width: 0
GlyphClass: 4
Flags: W
HStem: 858 86<-1055 -859 -684 -488>
AnchorPoint: "+BBEENQQ3BEsEPARPBD0EPQQ+BDUA--8" -715 811 mark 0
AnchorPoint: "+BBEENQQ3BEsEPARPBD0EPQQ+BDUA--3" -715 994 basemark 0
AnchorPoint: "+BBEENQQ3BEsEPARPBD0EPQQ+BDUA--3" -715 811 mark 0
AnchorPoint: "+BBEENQQ3BEsEPARPBD0EPQQ+BDUA--0" -715 811 mark 0
LayerCount: 2
Fore
SplineSet
-771 711 m 1,0,-1
 -859 858 l 1,1,-1
 -1055 858 l 1,2,-1
 -1055 949 l 1,3,-1
 -1041 949 l 1,4,-1
 -1020 944 l 1,5,-1
 -841 944 l 1,6,-1
 -773 829 l 1,7,-1
 -769 829 l 1,8,-1
 -702 944 l 1,9,-1
 -523 944 l 1,10,-1
 -502 949 l 1,11,-1
 -488 949 l 1,12,-1
 -488 858 l 1,13,-1
 -684 858 l 1,14,-1
 -771 711 l 1,0,-1
EndSplineSet
Substitution2: "+BBUENAQ4BD0EOARHBD0EMARP +BD8EPgQ0BEEEQgQwBD0EPgQyBDoEMAAA lookup 12 subtable" o_zanb.wide.ai
EndChar

StartChar: o_zanb.wide.au
Encoding: 1114123 -1 22
Width: 0
GlyphClass: 4
Flags: W
HStem: 858 86<-938 -615 -404 -81>
AnchorPoint: "+BBEENQQ3BEsEPARPBD0EPQQ+BDUA--8" -569 811 mark 0
AnchorPoint: "+BBEENQQ3BEsEPARPBD0EPQQ+BDUA--3" -569 994 basemark 0
AnchorPoint: "+BBEENQQ3BEsEPARPBD0EPQQ+BDUA--3" -569 811 mark 0
AnchorPoint: "+BBEENQQ3BEsEPARPBD0EPQQ+BDUA--0" -569 811 mark 0
LayerCount: 2
Fore
SplineSet
-509 711 m 1,0,-1
 -615 858 l 1,1,-1
 -938 858 l 1,2,-1
 -938 949 l 1,3,-1
 -921 949 l 1,4,-1
 -895 944 l 1,5,-1
 -593 944 l 1,6,-1
 -512 829 l 1,7,-1
 -506 829 l 1,8,-1
 -426 944 l 1,9,-1
 -124 944 l 1,10,-1
 -98 949 l 1,11,-1
 -81 949 l 1,12,-1
 -81 858 l 1,13,-1
 -404 858 l 1,14,-1
 -509 711 l 1,0,-1
EndSplineSet
EndChar

StartChar: o_zanb.au
Encoding: 1114124 -1 23
Width: 0
GlyphClass: 4
Flags: W
HStem: 858 86<-704 -510 -337 -143>
AnchorPoint: "+BBEENQQ3BEsEPARPBD0EPQQ+BDUA--8" -483 811 mark 0
AnchorPoint: "+BBEENQQ3BEsEPARPBD0EPQQ+BDUA--3" -483 994 basemark 0
AnchorPoint: "+BBEENQQ3BEsEPARPBD0EPQQ+BDUA--3" -483 811 mark 0
AnchorPoint: "+BBEENQQ3BEsEPARPBD0EPQQ+BDUA--0" -483 811 mark 0
LayerCount: 2
Fore
SplineSet
-423 711 m 1,0,-1
 -510 858 l 1,1,-1
 -704 858 l 1,2,-1
 -704 949 l 1,3,-1
 -690 949 l 1,4,-1
 -669 944 l 1,5,-1
 -492 944 l 1,6,-1
 -425 829 l 1,7,-1
 -421 829 l 1,8,-1
 -355 944 l 1,9,-1
 -178 944 l 1,10,-1
 -157 949 l 1,11,-1
 -143 949 l 1,12,-1
 -143 858 l 1,13,-1
 -337 858 l 1,14,-1
 -423 711 l 1,0,-1
EndSplineSet
Substitution2: "+BBUENAQ4BD0EOARHBD0EMARP +BD8EPgQ0BEEEQgQwBD0EPgQyBDoEMAAA lookup 12 subtable" o_zanb.wide.au
EndChar

StartChar: ai_zanb
Encoding: 72199 72199 24
Width: 0
GlyphClass: 4
Flags: W
HStem: 858 86<-58 75>
VStem: -120 62<651 858>
AnchorPoint: "+BBEENQQ3BEsEPARPBD0EPQQ+BDUA--11" -58 713 mark 0
AnchorPoint: "+BBEENQQ3BEsEPARPBD0EPQQ+BDUA--1" -58 713 mark 0
LayerCount: 2
Fore
SplineSet
-120 651 m 1,0,-1
 -120 944 l 1,1,-1
 75 944 l 1,2,-1
 75 858 l 1,3,-1
 -58 858 l 1,4,-1
 -58 651 l 1,5,-1
 -120 651 l 1,0,-1
EndSplineSet
EndChar

StartChar: au_zanb
Encoding: 72200 72200 25
Width: 0
GlyphClass: 4
Flags: W
HStem: 858 86<-276 -142>
VStem: -142 62<651 858>
AnchorPoint: "+BBEENQQ3BEsEPARPBD0EPQQ+BDUA--12" -142 713 mark 0
AnchorPoint: "+BBEENQQ3BEsEPARPBD0EPQQ+BDUA--2" -142 713 mark 0
LayerCount: 2
Fore
SplineSet
-142 651 m 1,0,-1
 -142 858 l 1,1,-1
 -276 858 l 1,2,-1
 -276 944 l 1,3,-1
 -80 944 l 1,4,-1
 -80 651 l 1,5,-1
 -142 651 l 1,0,-1
EndSplineSet
EndChar

StartChar: reversed_i_zanb
Encoding: 72201 72201 26
Width: 0
GlyphClass: 4
Flags: W
HStem: 831 86<-505.044 -262.188>
AnchorPoint: "+BBEENQQ3BEsEPARPBD0EPQQ+BDUA--8" -413 798 mark 0
AnchorPoint: "+BBEENQQ3BEsEPARPBD0EPQQ+BDUA--3" -381 1035 basemark 0
AnchorPoint: "+BBEENQQ3BEsEPARPBD0EPQQ+BDUA--3" -413 798 mark 0
AnchorPoint: "+BBEENQQ3BEsEPARPBD0EPQQ+BDUA--0" -413 798 mark 0
LayerCount: 2
Fore
SplineSet
-730 702 m 1,0,1
 -711 737 -711 737 -678 774.5 c 128,-1,2
 -645 812 -645 812 -600 844.5 c 128,-1,3
 -555 877 -555 877 -500.5 897 c 128,-1,4
 -446 917 -446 917 -384 917 c 0,5,6
 -316 917 -316 917 -256.5 893 c 128,-1,7
 -197 869 -197 869 -151 831.5 c 128,-1,8
 -105 794 -105 794 -80 752 c 1,9,-1
 -86 752 l 1,10,11
 -142 793 -142 793 -222 813 c 128,-1,12
 -302 833 -302 833 -385 831 c 0,13,14
 -460 829 -460 829 -523 810.5 c 128,-1,15
 -586 792 -586 792 -636 763 c 128,-1,16
 -686 734 -686 734 -724 702 c 1,17,-1
 -730 702 l 1,0,1
EndSplineSet
Substitution2: "+BBUENAQ4BD0EOARHBD0EMARP +BD8EPgQ0BEEEQgQwBD0EPgQyBDoEMAAA lookup 12 subtable" reversed_i_zanb.wide
EndChar

StartChar: reversed_i_zanb.wide
Encoding: 1114125 -1 27
Width: 0
GlyphClass: 4
Flags: W
HStem: 831 86<-524.342 -147.694>
AnchorPoint: "+BBEENQQ3BEsEPARPBD0EPQQ+BDUA--8" -383 798 mark 0
AnchorPoint: "+BBEENQQ3BEsEPARPBD0EPQQ+BDUA--3" -383 1005 basemark 0
AnchorPoint: "+BBEENQQ3BEsEPARPBD0EPQQ+BDUA--3" -383 798 mark 0
AnchorPoint: "+BBEENQQ3BEsEPARPBD0EPQQ+BDUA--0" -383 798 mark 0
LayerCount: 2
Fore
SplineSet
-866 702 m 1,0,1
 -819 754 -819 754 -742.5 803 c 128,-1,2
 -666 852 -666 852 -563.5 884.5 c 128,-1,3
 -461 917 -461 917 -338 917 c 0,4,5
 -229 917 -229 917 -145.5 895 c 128,-1,6
 -62 873 -62 873 -1 836 c 128,-1,7
 60 799 60 799 102 752 c 1,8,-1
 93 752 l 1,9,10
 39 779 39 779 -23 797 c 128,-1,11
 -85 815 -85 815 -162 823.5 c 128,-1,12
 -239 832 -239 832 -338 831 c 0,13,14
 -441 830 -441 830 -540 811 c 128,-1,15
 -639 792 -639 792 -721 763 c 128,-1,16
 -803 734 -803 734 -857 702 c 1,17,-1
 -866 702 l 1,0,1
EndSplineSet
EndChar

StartChar: lengthMark_zanb
Encoding: 72202 72202 28
Width: 0
GlyphClass: 4
Flags: W
HStem: -131 221
VStem: -176 318
AnchorPoint: "+BBEENQQ3BEsEPARPBD0EPQQ+BDUA--10" -176 0 mark 0
AnchorPoint: "+BBEENQQ3BEsEPARPBD0EPQQ+BDUA--7" -176 0 mark 0
AnchorPoint: "+BBEENQQ3BEsEPARPBD0EPQQ+BDUA--5" -176 0 mark 0
LayerCount: 2
Fore
SplineSet
142 -131 m 1,0,1
 64 -89 64 -89 -14.5 -57 c 128,-1,2
 -93 -25 -93 -25 -176 0 c 1,3,-1
 -81 90 l 1,4,5
 -27 51 -27 51 28 0.5 c 128,-1,6
 83 -50 83 -50 141 -123 c 1,7,-1
 142 -131 l 1,0,1
EndSplineSet
EndChar

StartChar: finalConsonantMark_zanb
Encoding: 72243 72243 29
Width: 0
GlyphClass: 4
Flags: W
HStem: -299 207
VStem: -387 207
AnchorPoint: "+BBEENQQ3BEsEPARPBD0EPQQ+BDUA--9" -283 -100 mark 0
AnchorPoint: "+BBEENQQ3BEsEPARPBD0EPQQ+BDUA--6" -283 -100 mark 0
AnchorPoint: "+BBEENQQ3BEsEPARPBD0EPQQ+BDUA--4" -283 -100 mark 0
LayerCount: 2
Fore
SplineSet
-283 -299 m 1,0,-1
 -387 -195 l 1,1,-1
 -283 -92 l 1,2,-1
 -180 -195 l 1,3,-1
 -283 -299 l 1,0,-1
EndSplineSet
EndChar

StartChar: virama_zanb
Encoding: 72244 72244 30
Width: 0
GlyphClass: 4
Flags: MW
AnchorPoint: "+BBEENQQ3BEsEPARPBD0EPQQ+BDUA--9" -444 -53 mark 0
AnchorPoint: "+BBEENQQ3BEsEPARPBD0EPQQ+BDUA--6" -444 -53 mark 0
AnchorPoint: "+BBEENQQ3BEsEPARPBD0EPQQ+BDUA--4" -444 -53 mark 0
LayerCount: 2
Fore
SplineSet
-101 -317 m 1,0,1
 -198 -262 -198 -262 -293 -232 c 128,-1,2
 -388 -202 -388 -202 -488 -202 c 0,3,4
 -544 -202 -544 -202 -581 -209 c 128,-1,5
 -618 -216 -618 -216 -643 -223 c 128,-1,6
 -668 -230 -668 -230 -688 -230 c 0,7,8
 -709 -230 -709 -230 -724 -219 c 128,-1,9
 -739 -208 -739 -208 -739 -189 c 0,10,11
 -739 -162 -739 -162 -710.5 -139.5 c 128,-1,12
 -682 -117 -682 -117 -632 -103.5 c 128,-1,13
 -582 -90 -582 -90 -519 -90 c 0,14,15
 -433 -90 -433 -90 -351.5 -119.5 c 128,-1,16
 -270 -149 -270 -149 -203 -198.5 c 128,-1,17
 -136 -248 -136 -248 -94 -308 c 1,18,-1
 -101 -317 l 1,0,1
EndSplineSet
EndChar

StartChar: candrabindu_zanb
Encoding: 72245 72245 31
Width: 0
GlyphClass: 4
Flags: W
HStem: 771 86<-534.339 -291.212> 954 60<-458.625 -359.825> 1153 60<-459.113 -359.825>
VStem: -541 62<1034.4 1133.22> -340 58<1033.91 1133.22>
AnchorPoint: "+BBEENQQ3BEsEPARPBD0EPQQ+BDUA--8" -411 768 mark 0
AnchorPoint: "+BBEENQQ3BEsEPARPBD0EPQQ+BDUA--3" -411 768 mark 0
AnchorPoint: "+BBEENQQ3BEsEPARPBD0EPQQ+BDUA--0" -411 768 mark 0
LayerCount: 2
Fore
SplineSet
-411 954 m 256,0,1
 -447 954 -447 954 -476.5 971.5 c 128,-1,2
 -506 989 -506 989 -523.5 1018.5 c 128,-1,3
 -541 1048 -541 1048 -541 1084 c 256,4,5
 -541 1120 -541 1120 -523.5 1149 c 128,-1,6
 -506 1178 -506 1178 -476.5 1195.5 c 128,-1,7
 -447 1213 -447 1213 -411 1213 c 256,8,9
 -375 1213 -375 1213 -346 1195.5 c 128,-1,10
 -317 1178 -317 1178 -299.5 1149 c 128,-1,11
 -282 1120 -282 1120 -282 1084 c 256,12,13
 -282 1048 -282 1048 -299.5 1018.5 c 128,-1,14
 -317 989 -317 989 -346 971.5 c 128,-1,15
 -375 954 -375 954 -411 954 c 256,0,1
-409 1014 m 256,16,17
 -380 1014 -380 1014 -360 1034.5 c 128,-1,18
 -340 1055 -340 1055 -340 1084 c 256,19,20
 -340 1113 -340 1113 -360 1133 c 128,-1,21
 -380 1153 -380 1153 -409 1153 c 256,22,23
 -438 1153 -438 1153 -458.5 1133 c 128,-1,24
 -479 1113 -479 1113 -479 1084 c 256,25,26
 -479 1055 -479 1055 -458.5 1034.5 c 128,-1,27
 -438 1014 -438 1014 -409 1014 c 256,16,17
-413 771 m 0,28,29
 -490 771 -490 771 -558.5 802.5 c 128,-1,30
 -627 834 -627 834 -677.5 889.5 c 128,-1,31
 -728 945 -728 945 -753 1016 c 1,32,-1
 -747 1016 l 1,33,34
 -661 928 -661 928 -578 892.5 c 128,-1,35
 -495 857 -495 857 -413 857 c 256,36,37
 -331 857 -331 857 -247.5 892.5 c 128,-1,38
 -164 928 -164 928 -79 1016 c 1,39,-1
 -73 1016 l 1,40,41
 -97 945 -97 945 -148 889.5 c 128,-1,42
 -199 834 -199 834 -267 802.5 c 128,-1,43
 -335 771 -335 771 -413 771 c 0,28,29
EndSplineSet
EndChar

StartChar: candrabinduWithOrnament_zanb
Encoding: 72246 72246 32
Width: 0
GlyphClass: 4
Flags: W
HStem: 771 86<-534.339 -291.212> 954 60<-458.625 -359.825> 1153 60<-459.113 -359.825> 1274 60<-466.165 -356.269>
VStem: -541 62<1034.4 1133.22> -539 51<1357.26 1444.25> -340 58<1033.91 1133.22 1351.63 1445.64>
AnchorPoint: "+BBEENQQ3BEsEPARPBD0EPQQ+BDUA--8" -411 768 mark 0
AnchorPoint: "+BBEENQQ3BEsEPARPBD0EPQQ+BDUA--3" -411 768 mark 0
AnchorPoint: "+BBEENQQ3BEsEPARPBD0EPQQ+BDUA--0" -411 768 mark 0
LayerCount: 2
Fore
SplineSet
-411 1274 m 0,0,1
 -455 1274 -455 1274 -483.5 1291 c 128,-1,2
 -512 1308 -512 1308 -525.5 1334 c 128,-1,3
 -539 1360 -539 1360 -539 1385 c 0,4,5
 -539 1419 -539 1419 -519.5 1441.5 c 128,-1,6
 -500 1464 -500 1464 -480 1477 c 1,7,-1
 -474 1470 l 1,8,9
 -480 1459 -480 1459 -484 1445.5 c 128,-1,10
 -488 1432 -488 1432 -488 1416 c 0,11,12
 -488 1382 -488 1382 -468 1358 c 128,-1,13
 -448 1334 -448 1334 -411 1334 c 0,14,15
 -378 1334 -378 1334 -357 1353 c 128,-1,16
 -336 1372 -336 1372 -336 1398 c 256,17,18
 -336 1424 -336 1424 -355.5 1440.5 c 128,-1,19
 -375 1457 -375 1457 -401 1476 c 0,20,21
 -415 1487 -415 1487 -427.5 1505.5 c 128,-1,22
 -440 1524 -440 1524 -450 1556 c 0,23,24
 -454 1570 -454 1570 -456.5 1585.5 c 128,-1,25
 -459 1601 -459 1601 -460 1618 c 1,26,-1
 -455 1621 l 1,27,28
 -447 1608 -447 1608 -431 1586 c 128,-1,29
 -415 1564 -415 1564 -392.5 1541 c 128,-1,30
 -370 1518 -370 1518 -341 1500 c 0,31,32
 -328 1493 -328 1493 -313 1480.5 c 128,-1,33
 -298 1468 -298 1468 -287 1447.5 c 128,-1,34
 -276 1427 -276 1427 -276 1395 c 0,35,36
 -276 1340 -276 1340 -314.5 1307 c 128,-1,37
 -353 1274 -353 1274 -411 1274 c 0,0,1
-411 954 m 256,38,39
 -447 954 -447 954 -476.5 971.5 c 128,-1,40
 -506 989 -506 989 -523.5 1018.5 c 128,-1,41
 -541 1048 -541 1048 -541 1084 c 256,42,43
 -541 1120 -541 1120 -523.5 1149 c 128,-1,44
 -506 1178 -506 1178 -476.5 1195.5 c 128,-1,45
 -447 1213 -447 1213 -411 1213 c 256,46,47
 -375 1213 -375 1213 -346 1195.5 c 128,-1,48
 -317 1178 -317 1178 -299.5 1149 c 128,-1,49
 -282 1120 -282 1120 -282 1084 c 256,50,51
 -282 1048 -282 1048 -299.5 1018.5 c 128,-1,52
 -317 989 -317 989 -346 971.5 c 128,-1,53
 -375 954 -375 954 -411 954 c 256,38,39
-409 1014 m 256,54,55
 -380 1014 -380 1014 -360 1034.5 c 128,-1,56
 -340 1055 -340 1055 -340 1084 c 256,57,58
 -340 1113 -340 1113 -360 1133 c 128,-1,59
 -380 1153 -380 1153 -409 1153 c 256,60,61
 -438 1153 -438 1153 -458.5 1133 c 128,-1,62
 -479 1113 -479 1113 -479 1084 c 256,63,64
 -479 1055 -479 1055 -458.5 1034.5 c 128,-1,65
 -438 1014 -438 1014 -409 1014 c 256,54,55
-413 771 m 0,66,67
 -490 771 -490 771 -558.5 802.5 c 128,-1,68
 -627 834 -627 834 -677.5 889.5 c 128,-1,69
 -728 945 -728 945 -753 1016 c 1,70,-1
 -747 1016 l 1,71,72
 -661 928 -661 928 -578 892.5 c 128,-1,73
 -495 857 -495 857 -413 857 c 256,74,75
 -331 857 -331 857 -247.5 892.5 c 128,-1,76
 -164 928 -164 928 -79 1016 c 1,77,-1
 -73 1016 l 1,78,79
 -97 945 -97 945 -148 889.5 c 128,-1,80
 -199 834 -199 834 -267 802.5 c 128,-1,81
 -335 771 -335 771 -413 771 c 0,66,67
EndSplineSet
EndChar

StartChar: candraWithOrnament_zanb
Encoding: 72247 72247 33
Width: 0
GlyphClass: 4
Flags: W
HStem: 771 86<-534.339 -291.212> 954 60<-466.165 -356.269>
VStem: -539 51<1037.26 1124.25> -336 60<1033.05 1122.38>
AnchorPoint: "+BBEENQQ3BEsEPARPBD0EPQQ+BDUA--8" -411 768 mark 0
AnchorPoint: "+BBEENQQ3BEsEPARPBD0EPQQ+BDUA--3" -411 768 mark 0
AnchorPoint: "+BBEENQQ3BEsEPARPBD0EPQQ+BDUA--0" -411 768 mark 0
LayerCount: 2
Fore
SplineSet
-411 954 m 0,0,1
 -455 954 -455 954 -483.5 971 c 128,-1,2
 -512 988 -512 988 -525.5 1014 c 128,-1,3
 -539 1040 -539 1040 -539 1065 c 0,4,5
 -539 1099 -539 1099 -519.5 1121.5 c 128,-1,6
 -500 1144 -500 1144 -480 1157 c 1,7,-1
 -474 1150 l 1,8,9
 -480 1139 -480 1139 -484 1125.5 c 128,-1,10
 -488 1112 -488 1112 -488 1096 c 0,11,12
 -488 1062 -488 1062 -468 1038 c 128,-1,13
 -448 1014 -448 1014 -411 1014 c 0,14,15
 -378 1014 -378 1014 -357 1033 c 128,-1,16
 -336 1052 -336 1052 -336 1078 c 256,17,18
 -336 1104 -336 1104 -355.5 1120.5 c 128,-1,19
 -375 1137 -375 1137 -401 1156 c 0,20,21
 -415 1167 -415 1167 -427.5 1185.5 c 128,-1,22
 -440 1204 -440 1204 -450 1236 c 0,23,24
 -454 1250 -454 1250 -456.5 1265.5 c 128,-1,25
 -459 1281 -459 1281 -460 1298 c 1,26,-1
 -455 1301 l 1,27,28
 -447 1288 -447 1288 -431 1266 c 128,-1,29
 -415 1244 -415 1244 -392.5 1221 c 128,-1,30
 -370 1198 -370 1198 -341 1180 c 0,31,32
 -328 1173 -328 1173 -313 1160.5 c 128,-1,33
 -298 1148 -298 1148 -287 1127.5 c 128,-1,34
 -276 1107 -276 1107 -276 1075 c 0,35,36
 -276 1020 -276 1020 -314.5 987 c 128,-1,37
 -353 954 -353 954 -411 954 c 0,0,1
-413 771 m 0,38,39
 -490 771 -490 771 -558.5 802.5 c 128,-1,40
 -627 834 -627 834 -677.5 889.5 c 128,-1,41
 -728 945 -728 945 -753 1016 c 1,42,-1
 -747 1016 l 1,43,44
 -661 928 -661 928 -578 892.5 c 128,-1,45
 -495 857 -495 857 -413 857 c 256,46,47
 -331 857 -331 857 -247.5 892.5 c 128,-1,48
 -164 928 -164 928 -79 1016 c 1,49,-1
 -73 1016 l 1,50,51
 -97 945 -97 945 -148 889.5 c 128,-1,52
 -199 834 -199 834 -267 802.5 c 128,-1,53
 -335 771 -335 771 -413 771 c 0,38,39
EndSplineSet
EndChar

StartChar: anusvara_zanb
Encoding: 72248 72248 34
Width: 0
GlyphClass: 4
Flags: W
HStem: 828 64<-281.992 -194.379> 1011 64<-282.461 -194.379>
VStem: -362 64<908.008 995.621> -179 64<907.539 995.621>
AnchorPoint: "+BBEENQQ3BEsEPARPBD0EPQQ+BDUA--8" -238 822 mark 0
AnchorPoint: "+BBEENQQ3BEsEPARPBD0EPQQ+BDUA--3" -238 822 mark 0
AnchorPoint: "+BBEENQQ3BEsEPARPBD0EPQQ+BDUA--0" -238 822 mark 0
LayerCount: 2
Fore
SplineSet
-238 828 m 256,0,1
 -272 828 -272 828 -300.5 844.5 c 128,-1,2
 -329 861 -329 861 -345.5 889.5 c 128,-1,3
 -362 918 -362 918 -362 952 c 256,4,5
 -362 986 -362 986 -345.5 1014 c 128,-1,6
 -329 1042 -329 1042 -300.5 1058.5 c 128,-1,7
 -272 1075 -272 1075 -238 1075 c 256,8,9
 -204 1075 -204 1075 -176 1058.5 c 128,-1,10
 -148 1042 -148 1042 -131.5 1014 c 128,-1,11
 -115 986 -115 986 -115 952 c 256,12,13
 -115 918 -115 918 -131.5 889.5 c 128,-1,14
 -148 861 -148 861 -176 844.5 c 128,-1,15
 -204 828 -204 828 -238 828 c 256,0,1
-238 892 m 256,16,17
 -213 892 -213 892 -196 909.5 c 128,-1,18
 -179 927 -179 927 -179 952 c 256,19,20
 -179 977 -179 977 -196 994 c 128,-1,21
 -213 1011 -213 1011 -238 1011 c 256,22,23
 -263 1011 -263 1011 -280.5 994 c 128,-1,24
 -298 977 -298 977 -298 952 c 256,25,26
 -298 927 -298 927 -280.5 909.5 c 128,-1,27
 -263 892 -263 892 -238 892 c 256,16,17
EndSplineSet
EndChar

StartChar: visarga_zanb
Encoding: 72249 72249 35
Width: 403
GlyphClass: 1
Flags: W
HStem: 45 64<158.008 245.621> 228 64<157.539 245.621> 385 64<158.008 245.621> 568 64<157.539 245.621>
VStem: 78 64<125.008 212.621 465.008 552.621> 261 64<124.539 212.621 464.539 552.621>
LayerCount: 2
Fore
SplineSet
202 385 m 256,0,1
 168 385 168 385 139.5 401.5 c 128,-1,2
 111 418 111 418 94.5 446.5 c 128,-1,3
 78 475 78 475 78 509 c 256,4,5
 78 543 78 543 94.5 571 c 128,-1,6
 111 599 111 599 139.5 615.5 c 128,-1,7
 168 632 168 632 202 632 c 256,8,9
 236 632 236 632 264 615.5 c 128,-1,10
 292 599 292 599 308.5 571 c 128,-1,11
 325 543 325 543 325 509 c 256,12,13
 325 475 325 475 308.5 446.5 c 128,-1,14
 292 418 292 418 264 401.5 c 128,-1,15
 236 385 236 385 202 385 c 256,0,1
202 449 m 256,16,17
 227 449 227 449 244 466.5 c 128,-1,18
 261 484 261 484 261 509 c 256,19,20
 261 534 261 534 244 551 c 128,-1,21
 227 568 227 568 202 568 c 256,22,23
 177 568 177 568 159.5 551 c 128,-1,24
 142 534 142 534 142 509 c 256,25,26
 142 484 142 484 159.5 466.5 c 128,-1,27
 177 449 177 449 202 449 c 256,16,17
202 45 m 256,28,29
 168 45 168 45 139.5 61.5 c 128,-1,30
 111 78 111 78 94.5 106.5 c 128,-1,31
 78 135 78 135 78 169 c 256,32,33
 78 203 78 203 94.5 231 c 128,-1,34
 111 259 111 259 139.5 275.5 c 128,-1,35
 168 292 168 292 202 292 c 256,36,37
 236 292 236 292 264 275.5 c 128,-1,38
 292 259 292 259 308.5 231 c 128,-1,39
 325 203 325 203 325 169 c 256,40,41
 325 135 325 135 308.5 106.5 c 128,-1,42
 292 78 292 78 264 61.5 c 128,-1,43
 236 45 236 45 202 45 c 256,28,29
202 109 m 256,44,45
 227 109 227 109 244 126.5 c 128,-1,46
 261 144 261 144 261 169 c 256,47,48
 261 194 261 194 244 211 c 128,-1,49
 227 228 227 228 202 228 c 256,50,51
 177 228 177 228 159.5 211 c 128,-1,52
 142 194 142 194 142 169 c 256,53,54
 142 144 142 144 159.5 126.5 c 128,-1,55
 177 109 177 109 202 109 c 256,44,45
EndSplineSet
EndChar

StartChar: finalYa_zanb
Encoding: 72251 72251 36
Width: 0
GlyphClass: 4
Flags: W
HStem: -291 102<-665.186 -524.711 -314.005 -174.046>
VStem: -760 16<-65.625 -45> -95 15<-65.625 -45>
AnchorPoint: "+BBEENQQ3BEsEPARPBD0EPQQ+BDUA--9" -420 -80 mark 0
AnchorPoint: "+BBEENQQ3BEsEPARPBD0EPQQ+BDUA--7" -177 -317 basemark 0
AnchorPoint: "+BBEENQQ3BEsEPARPBD0EPQQ+BDUA--6" -420 -80 mark 0
AnchorPoint: "+BBEENQQ3BEsEPARPBD0EPQQ+BDUA--4" -420 -80 mark 0
LayerCount: 2
Fore
SplineSet
-593 -291 m 0,0,1
 -639 -291 -639 -291 -671 -268.5 c 128,-1,2
 -703 -246 -703 -246 -723 -209 c 128,-1,3
 -743 -172 -743 -172 -752 -129 c 128,-1,4
 -761 -86 -761 -86 -760 -45 c 1,5,-1
 -744 -45 l 1,6,7
 -733 -78 -733 -78 -714 -111.5 c 128,-1,8
 -695 -145 -695 -145 -665.5 -167 c 128,-1,9
 -636 -189 -636 -189 -597 -189 c 0,10,11
 -565 -189 -565 -189 -538 -175 c 128,-1,12
 -511 -161 -511 -161 -488.5 -139 c 128,-1,13
 -466 -117 -466 -117 -450.5 -94.5 c 128,-1,14
 -435 -72 -435 -72 -428 -56 c 1,15,-1
 -411 -56 l 1,16,17
 -402 -72 -402 -72 -386.5 -94.5 c 128,-1,18
 -371 -117 -371 -117 -349.5 -139 c 128,-1,19
 -328 -161 -328 -161 -301 -175 c 128,-1,20
 -274 -189 -274 -189 -243 -189 c 0,21,22
 -203 -189 -203 -189 -174 -167 c 128,-1,23
 -145 -145 -145 -145 -125 -111.5 c 128,-1,24
 -105 -78 -105 -78 -95 -45 c 1,25,-1
 -80 -45 l 1,26,27
 -79 -86 -79 -86 -88 -129 c 128,-1,28
 -97 -172 -97 -172 -117 -209 c 128,-1,29
 -137 -246 -137 -246 -169 -268.5 c 128,-1,30
 -201 -291 -201 -291 -247 -291 c 0,31,32
 -292 -291 -292 -291 -327.5 -269.5 c 128,-1,33
 -363 -248 -363 -248 -385.5 -215 c 128,-1,34
 -408 -182 -408 -182 -416 -148 c 1,35,-1
 -422 -148 l 1,36,37
 -429 -182 -429 -182 -452.5 -215 c 128,-1,38
 -476 -248 -476 -248 -512 -269.5 c 128,-1,39
 -548 -291 -548 -291 -593 -291 c 0,0,1
EndSplineSet
EndChar

StartChar: finalRa_zanb
Encoding: 72252 72252 37
Width: 0
GlyphClass: 4
Flags: W
HStem: -220 75<-666.142 -212.266> -20 20G<-176 -80>
VStem: -176 96<-165 0>
AnchorPoint: "+BBEENQQ3BEsEPARPBD0EPQQ+BDUA--9" -420 -100 mark 0
AnchorPoint: "+BBEENQQ3BEsEPARPBD0EPQQ+BDUA--7" -176 -258 basemark 0
AnchorPoint: "+BBEENQQ3BEsEPARPBD0EPQQ+BDUA--6" -420 -100 mark 0
AnchorPoint: "+BBEENQQ3BEsEPARPBD0EPQQ+BDUA--4" -420 -100 mark 0
LayerCount: 2
Fore
SplineSet
-760 -259 m 1,0,-1
 -760 -183 l 1,1,2
 -683 -164 -683 -164 -606 -155 c 128,-1,3
 -529 -146 -529 -146 -453 -145 c 0,4,5
 -315 -143 -315 -143 -178 -166 c 1,6,-1
 -176 -165 l 1,7,-1
 -176 0 l 1,8,-1
 -80 0 l 1,9,-1
 -80 -259 l 1,10,11
 -254 -218 -254 -218 -427 -220 c 0,12,13
 -593 -221 -593 -221 -760 -259 c 1,0,-1
EndSplineSet
EndChar

StartChar: finalLa_zanb
Encoding: 72253 72253 38
Width: 0
GlyphClass: 4
Flags: W
HStem: -226 80<-374.152 -215.233> -171 79<-597.864 -419.6> -19 20G<-177 -80>
VStem: -760 97<-313 -234.462> -177 97<-104.25 1>
AnchorPoint: "+BBEENQQ3BEsEPARPBD0EPQQ+BDUA--9" -420 -100 mark 0
AnchorPoint: "+BBEENQQ3BEsEPARPBD0EPQQ+BDUA--7" -176 -309 basemark 0
AnchorPoint: "+BBEENQQ3BEsEPARPBD0EPQQ+BDUA--6" -420 -419 basemark 0
AnchorPoint: "+BBEENQQ3BEsEPARPBD0EPQQ+BDUA--6" -420 -100 mark 0
AnchorPoint: "+BBEENQQ3BEsEPARPBD0EPQQ+BDUA--4" -420 -100 mark 0
LayerCount: 2
Fore
SplineSet
-760 -313 m 1,0,-1
 -760 -307 l 2,1,2
 -760 -256 -760 -256 -732 -206.5 c 128,-1,3
 -704 -157 -704 -157 -649.5 -124.5 c 128,-1,4
 -595 -92 -595 -92 -516 -92 c 0,5,6
 -474 -92 -474 -92 -443 -100 c 128,-1,7
 -412 -108 -412 -108 -386.5 -119 c 128,-1,8
 -361 -130 -361 -130 -336 -138 c 128,-1,9
 -311 -146 -311 -146 -283 -146 c 0,10,11
 -228 -146 -228 -146 -202.5 -110.5 c 128,-1,12
 -177 -75 -177 -75 -177 -29 c 2,13,-1
 -177 1 l 1,14,-1
 -80 1 l 1,15,-1
 -80 -27 l 2,16,17
 -80 -86 -80 -86 -97 -125 c 128,-1,18
 -114 -164 -114 -164 -142.5 -186 c 128,-1,19
 -171 -208 -171 -208 -206.5 -217 c 128,-1,20
 -242 -226 -242 -226 -279 -226 c 0,21,22
 -322 -226 -322 -226 -352 -217.5 c 128,-1,23
 -382 -209 -382 -209 -406 -198.5 c 128,-1,24
 -430 -188 -430 -188 -455 -179.5 c 128,-1,25
 -480 -171 -480 -171 -513 -171 c 0,26,27
 -562 -171 -562 -171 -595.5 -191 c 128,-1,28
 -629 -211 -629 -211 -646 -241.5 c 128,-1,29
 -663 -272 -663 -272 -663 -304 c 2,30,-1
 -663 -313 l 1,31,-1
 -760 -313 l 1,0,-1
EndSplineSet
EndChar

StartChar: finalVa_zanb
Encoding: 72254 72254 39
Width: 0
GlyphClass: 4
Flags: W
VStem: -176 96<-251 -121>
AnchorPoint: "+BBEENQQ3BEsEPARPBD0EPQQ+BDUA--10" -177 3 mark 0
AnchorPoint: "+BBEENQQ3BEsEPARPBD0EPQQ+BDUA--7" -176 -419 basemark 0
AnchorPoint: "+BBEENQQ3BEsEPARPBD0EPQQ+BDUA--7" -177 3 mark 0
AnchorPoint: "+BBEENQQ3BEsEPARPBD0EPQQ+BDUA--6" -420 -419 basemark 0
AnchorPoint: "+BBEENQQ3BEsEPARPBD0EPQQ+BDUA--5" -177 3 mark 0
LayerCount: 2
Fore
SplineSet
-80 -365 m 1,0,-1
 -616 -186 l 1,1,-1
 -80 -7 l 1,2,-1
 -80 -365 l 1,0,-1
-176 -251 m 1,3,-1
 -176 -121 l 1,4,-1
 -372 -186 l 1,5,-1
 -176 -251 l 1,3,-1
EndSplineSet
Substitution2: "+BBUENAQ4BD0EOARHBD0EMARP +BD8EPgQ0BEEEQgQwBD0EPgQyBDoEMAAA lookup 4 subtable" finalVa_zanb.stem
EndChar

StartChar: subjoiner_zanb
Encoding: 72263 72263 40
Width: 0
GlyphClass: 4
Flags: W
HStem: -271 60<-538 -450 -390 -301>
VStem: -450 60<-360 -271 -211 -123>
AnchorPoint: "+BBEENQQ3BEsEPARPBD0EPQQ+BDUA--9" -420 -123 mark 0
AnchorPoint: "+BBEENQQ3BEsEPARPBD0EPQQ+BDUA--6" -420 -123 mark 0
AnchorPoint: "+BBEENQQ3BEsEPARPBD0EPQQ+BDUA--4" -420 -123 mark 0
LayerCount: 2
Fore
SplineSet
-450 -360 m 1,0,-1
 -450 -271 l 1,1,-1
 -538 -271 l 1,2,-1
 -538 -211 l 1,3,-1
 -450 -211 l 1,4,-1
 -450 -123 l 1,5,-1
 -390 -123 l 1,6,-1
 -390 -211 l 1,7,-1
 -301 -211 l 1,8,-1
 -301 -271 l 1,9,-1
 -390 -271 l 1,10,-1
 -390 -360 l 1,11,-1
 -450 -360 l 1,0,-1
EndSplineSet
EndChar

StartChar: finalVa_zanb.stem
Encoding: 1114126 -1 41
Width: 0
GlyphClass: 4
Flags: W
VStem: -176 96<-251 -121 -39 24>
AnchorPoint: "+BBEENQQ3BEsEPARPBD0EPQQ+BDUA--10" -176 0 mark 0
AnchorPoint: "+BBEENQQ3BEsEPARPBD0EPQQ+BDUA--7" -176 -419 basemark 0
AnchorPoint: "+BBEENQQ3BEsEPARPBD0EPQQ+BDUA--7" -176 0 mark 0
AnchorPoint: "+BBEENQQ3BEsEPARPBD0EPQQ+BDUA--6" -420 -419 basemark 0
AnchorPoint: "+BBEENQQ3BEsEPARPBD0EPQQ+BDUA--5" -176 0 mark 0
LayerCount: 2
Fore
SplineSet
-80 -365 m 1,0,-1
 -616 -186 l 1,1,-1
 -176 -39 l 1,2,-1
 -176 24 l 1,3,-1
 -80 24 l 1,4,-1
 -80 -365 l 1,0,-1
-176 -251 m 1,5,-1
 -176 -121 l 1,6,-1
 -372 -186 l 1,7,-1
 -176 -251 l 1,5,-1
EndSplineSet
EndChar

StartChar: a_zanb
Encoding: 72192 72192 42
Width: 1136
GlyphClass: 2
Flags: W
HStem: 0 86<176 374 762 960> 592 86<470 666>
VStem: 80 96<86 678> 374 96<86 592> 666 96<86 592> 960 96<86 678>
AnchorPoint: "+BBEENQQ3BEsEPARPBD0EPQQ+BDUA--5" 960 0 basechar 0
AnchorPoint: "+BBEENQQ3BEsEPARPBD0EPQQ+BDUA--4" 716 -86 basechar 0
AnchorPoint: "+BBEENQQ3BEsEPARPBD0EPQQ+BDUA--2" 80 678 basechar 0
AnchorPoint: "+BBEENQQ3BEsEPARPBD0EPQQ+BDUA--1" 1056 678 basechar 0
AnchorPoint: "+BBEENQQ3BEsEPARPBD0EPQQ+BDUA--0" 568 778 basechar 0
LayerCount: 2
Fore
SplineSet
80 0 m 1,0,-1
 80 678 l 1,1,-1
 176 678 l 1,2,-1
 176 86 l 1,3,-1
 374 86 l 1,4,-1
 374 678 l 1,5,-1
 762 678 l 1,6,-1
 762 86 l 1,7,-1
 960 86 l 1,8,-1
 960 678 l 1,9,-1
 1056 678 l 1,10,-1
 1056 0 l 1,11,-1
 666 0 l 1,12,-1
 666 592 l 1,13,-1
 470 592 l 1,14,-1
 470 0 l 1,15,-1
 80 0 l 1,0,-1
EndSplineSet
EndChar

StartChar: ka_zanb
Encoding: 72203 72203 43
Width: 840
GlyphClass: 2
Flags: W
HStem: 0 86<176 372> 592 86<80 372 468 664>
VStem: 80 96<86 391> 372 96<86 592> 664 96<0 592>
CounterMasks: 1 38
AnchorPoint: "+BBEENQQ3BEsEPARPBD0EPQQ+BDUA--5" 664 0 basechar 0
AnchorPoint: "+BBEENQQ3BEsEPARPBD0EPQQ+BDUA--4" 420 -86 basechar 0
AnchorPoint: "+BBEENQQ3BEsEPARPBD0EPQQ+BDUA--2" 80 678 basechar 0
AnchorPoint: "+BBEENQQ3BEsEPARPBD0EPQQ+BDUA--1" 760 678 basechar 0
AnchorPoint: "+BBEENQQ3BEsEPARPBD0EPQQ+BDUA--0" 420 778 basechar 0
LayerCount: 2
Fore
SplineSet
80 0 m 1,0,-1
 80 391 l 1,1,-1
 176 391 l 1,2,-1
 176 86 l 1,3,-1
 372 86 l 1,4,-1
 372 592 l 1,5,-1
 80 592 l 1,6,-1
 80 678 l 1,7,-1
 760 678 l 1,8,-1
 760 0 l 1,9,-1
 664 0 l 1,10,-1
 664 592 l 1,11,-1
 468 592 l 1,12,-1
 468 0 l 1,13,-1
 80 0 l 1,0,-1
EndSplineSet
Position2: "Single Positioning lookup 1 subtable" dx=296 dy=0 dh=296 dv=0
EndChar

StartChar: kha_zanb
Encoding: 72204 72204 44
Width: 840
GlyphClass: 2
Flags: W
HStem: 0 86<468 664> 592 86<176 372 468 664>
VStem: 80 96<0 592> 372 96<86 592> 664 96<86 592>
CounterMasks: 1 38
AnchorPoint: "+BBEENQQ3BEsEPARPBD0EPQQ+BDUA--5" 664 0 basechar 0
AnchorPoint: "+BBEENQQ3BEsEPARPBD0EPQQ+BDUA--4" 420 -86 basechar 0
AnchorPoint: "+BBEENQQ3BEsEPARPBD0EPQQ+BDUA--2" 80 678 basechar 0
AnchorPoint: "+BBEENQQ3BEsEPARPBD0EPQQ+BDUA--1" 760 678 basechar 0
AnchorPoint: "+BBEENQQ3BEsEPARPBD0EPQQ+BDUA--0" 420 778 basechar 0
LayerCount: 2
Fore
SplineSet
80 0 m 1,0,-1
 80 678 l 1,1,-1
 760 678 l 1,2,-1
 760 0 l 1,3,-1
 372 0 l 1,4,-1
 372 592 l 1,5,-1
 176 592 l 1,6,-1
 176 0 l 1,7,-1
 80 0 l 1,0,-1
468 86 m 1,8,-1
 664 86 l 1,9,-1
 664 592 l 1,10,-1
 468 592 l 1,11,-1
 468 86 l 1,8,-1
EndSplineSet
Position2: "Single Positioning lookup 1 subtable" dx=296 dy=0 dh=296 dv=0
EndChar

StartChar: ga_zanb
Encoding: 72205 72205 45
Width: 840
GlyphClass: 2
Flags: W
HStem: 0 86<176 372> 592 86<176 372 468 664>
VStem: 80 96<86 592> 372 96<86 592> 664 96<0 592>
CounterMasks: 1 38
AnchorPoint: "+BBEENQQ3BEsEPARPBD0EPQQ+BDUA--5" 664 0 basechar 0
AnchorPoint: "+BBEENQQ3BEsEPARPBD0EPQQ+BDUA--4" 420 -86 basechar 0
AnchorPoint: "+BBEENQQ3BEsEPARPBD0EPQQ+BDUA--2" 80 678 basechar 0
AnchorPoint: "+BBEENQQ3BEsEPARPBD0EPQQ+BDUA--1" 760 678 basechar 0
AnchorPoint: "+BBEENQQ3BEsEPARPBD0EPQQ+BDUA--0" 420 778 basechar 0
LayerCount: 2
Fore
SplineSet
80 0 m 1,0,-1
 80 678 l 1,1,-1
 760 678 l 1,2,-1
 760 0 l 1,3,-1
 664 0 l 1,4,-1
 664 592 l 1,5,-1
 468 592 l 1,6,-1
 468 0 l 1,7,-1
 80 0 l 1,0,-1
176 86 m 1,8,-1
 372 86 l 1,9,-1
 372 592 l 1,10,-1
 176 592 l 1,11,-1
 176 86 l 1,8,-1
EndSplineSet
Position2: "Single Positioning lookup 1 subtable" dx=296 dy=0 dh=296 dv=0
EndChar

StartChar: gha_zanb
Encoding: 72206 72206 46
Width: 840
GlyphClass: 2
Flags: W
HStem: 0 86<176 372> 300 86<176 372> 592 86<80 372 468 664>
VStem: 80 96<86 300> 372 96<86 300 386 592> 664 96<0 592>
CounterMasks: 1 1c
AnchorPoint: "+BBEENQQ3BEsEPARPBD0EPQQ+BDUA--5" 664 0 basechar 0
AnchorPoint: "+BBEENQQ3BEsEPARPBD0EPQQ+BDUA--4" 420 -86 basechar 0
AnchorPoint: "+BBEENQQ3BEsEPARPBD0EPQQ+BDUA--2" 80 678 basechar 0
AnchorPoint: "+BBEENQQ3BEsEPARPBD0EPQQ+BDUA--1" 760 678 basechar 0
AnchorPoint: "+BBEENQQ3BEsEPARPBD0EPQQ+BDUA--0" 420 778 basechar 0
LayerCount: 2
Fore
SplineSet
80 0 m 1,0,-1
 80 386 l 1,1,-1
 372 386 l 1,2,-1
 372 592 l 1,3,-1
 80 592 l 1,4,-1
 80 678 l 1,5,-1
 760 678 l 1,6,-1
 760 0 l 1,7,-1
 664 0 l 1,8,-1
 664 592 l 1,9,-1
 468 592 l 1,10,-1
 468 0 l 1,11,-1
 80 0 l 1,0,-1
176 86 m 1,12,-1
 372 86 l 1,13,-1
 372 300 l 1,14,-1
 176 300 l 1,15,-1
 176 86 l 1,12,-1
EndSplineSet
Position2: "Single Positioning lookup 1 subtable" dx=296 dy=0 dh=296 dv=0
EndChar

StartChar: nga_zanb
Encoding: 72207 72207 47
Width: 840
GlyphClass: 2
Flags: W
HStem: 0 86<176 760> 300 86<176 663> 592 86<80 663>
VStem: 80 96<86 300> 663 96<386 592>
AnchorPoint: "+BBEENQQ3BEsEPARPBD0EPQQ+BDUA--5" 664 0 basechar 0
AnchorPoint: "+BBEENQQ3BEsEPARPBD0EPQQ+BDUA--4" 420 -86 basechar 0
AnchorPoint: "+BBEENQQ3BEsEPARPBD0EPQQ+BDUA--2" 80 678 basechar 0
AnchorPoint: "+BBEENQQ3BEsEPARPBD0EPQQ+BDUA--1" 760 678 basechar 0
AnchorPoint: "+BBEENQQ3BEsEPARPBD0EPQQ+BDUA--0" 420 778 basechar 0
LayerCount: 2
Fore
SplineSet
80 0 m 1,0,-1
 80 386 l 1,1,-1
 663 386 l 1,2,-1
 663 592 l 1,3,-1
 80 592 l 1,4,-1
 80 678 l 1,5,-1
 759 678 l 1,6,-1
 759 300 l 1,7,-1
 176 300 l 1,8,-1
 176 86 l 1,9,-1
 760 86 l 1,10,-1
 760 0 l 1,11,-1
 80 0 l 1,0,-1
EndSplineSet
Position2: "Single Positioning lookup 1 subtable" dx=296 dy=0 dh=296 dv=0
EndChar

StartChar: ca_zanb
Encoding: 72208 72208 48
Width: 840
GlyphClass: 2
Flags: W
HStem: 0 86<80 372 468 664> 592 86<80 372 468 664>
VStem: 372 96<86 592> 664 96<86 592>
AnchorPoint: "+BBEENQQ3BEsEPARPBD0EPQQ+BDUA--5" 664 0 basechar 0
AnchorPoint: "+BBEENQQ3BEsEPARPBD0EPQQ+BDUA--4" 420 -86 basechar 0
AnchorPoint: "+BBEENQQ3BEsEPARPBD0EPQQ+BDUA--2" 80 678 basechar 0
AnchorPoint: "+BBEENQQ3BEsEPARPBD0EPQQ+BDUA--1" 760 678 basechar 0
AnchorPoint: "+BBEENQQ3BEsEPARPBD0EPQQ+BDUA--0" 420 778 basechar 0
LayerCount: 2
Fore
SplineSet
80 0 m 1,0,-1
 80 86 l 1,1,-1
 372 86 l 1,2,-1
 372 592 l 1,3,-1
 80 592 l 1,4,-1
 80 678 l 1,5,-1
 760 678 l 1,6,-1
 760 0 l 1,7,-1
 80 0 l 1,0,-1
468 86 m 1,8,-1
 664 86 l 1,9,-1
 664 592 l 1,10,-1
 468 592 l 1,11,-1
 468 86 l 1,8,-1
EndSplineSet
Position2: "Single Positioning lookup 1 subtable" dx=296 dy=0 dh=296 dv=0
EndChar

StartChar: cha_zanb
Encoding: 72209 72209 49
Width: 840
GlyphClass: 2
Flags: W
HStem: 0 86<176 372 468 664> 592 86<176 372 468 664>
VStem: 80 96<86 592> 372 96<86 592> 664 96<86 592>
CounterMasks: 1 38
AnchorPoint: "+BBEENQQ3BEsEPARPBD0EPQQ+BDUA--5" 664 0 basechar 0
AnchorPoint: "+BBEENQQ3BEsEPARPBD0EPQQ+BDUA--4" 420 -86 basechar 0
AnchorPoint: "+BBEENQQ3BEsEPARPBD0EPQQ+BDUA--2" 80 678 basechar 0
AnchorPoint: "+BBEENQQ3BEsEPARPBD0EPQQ+BDUA--1" 760 678 basechar 0
AnchorPoint: "+BBEENQQ3BEsEPARPBD0EPQQ+BDUA--0" 420 778 basechar 0
LayerCount: 2
Fore
SplineSet
80 0 m 1,0,-1
 80 678 l 1,1,-1
 760 678 l 1,2,-1
 760 0 l 1,3,-1
 80 0 l 1,0,-1
176 86 m 1,4,-1
 372 86 l 1,5,-1
 372 592 l 1,6,-1
 176 592 l 1,7,-1
 176 86 l 1,4,-1
468 86 m 1,8,-1
 664 86 l 1,9,-1
 664 592 l 1,10,-1
 468 592 l 1,11,-1
 468 86 l 1,8,-1
EndSplineSet
Position2: "Single Positioning lookup 1 subtable" dx=296 dy=0 dh=296 dv=0
EndChar

StartChar: ja_zanb
Encoding: 72210 72210 50
Width: 840
GlyphClass: 2
Flags: W
HStem: 0 86<176 760> 295 86<176 760> 592 86<176 760>
VStem: 80 96<86 295 381 592>
AnchorPoint: "+BBEENQQ3BEsEPARPBD0EPQQ+BDUA--5" 664 0 basechar 0
AnchorPoint: "+BBEENQQ3BEsEPARPBD0EPQQ+BDUA--4" 420 -86 basechar 0
AnchorPoint: "+BBEENQQ3BEsEPARPBD0EPQQ+BDUA--2" 80 678 basechar 0
AnchorPoint: "+BBEENQQ3BEsEPARPBD0EPQQ+BDUA--1" 760 678 basechar 0
AnchorPoint: "+BBEENQQ3BEsEPARPBD0EPQQ+BDUA--0" 420 778 basechar 0
LayerCount: 2
Fore
SplineSet
80 0 m 1,0,-1
 80 678 l 1,1,-1
 760 678 l 1,2,-1
 760 592 l 1,3,-1
 176 592 l 1,4,-1
 176 381 l 1,5,-1
 760 381 l 1,6,-1
 760 295 l 1,7,-1
 176 295 l 1,8,-1
 176 86 l 1,9,-1
 760 86 l 1,10,-1
 760 0 l 1,11,-1
 80 0 l 1,0,-1
EndSplineSet
Position2: "Single Positioning lookup 1 subtable" dx=296 dy=0 dh=296 dv=0
EndChar

StartChar: nya_zanb
Encoding: 72211 72211 51
Width: 840
GlyphClass: 2
Flags: W
HStem: 0 86<176 460> 295 86<176 664> 592 86<80 664>
VStem: 80 96<86 295> 664 96<0 295 381 592>
AnchorPoint: "+BBEENQQ3BEsEPARPBD0EPQQ+BDUA--5" 664 0 basechar 0
AnchorPoint: "+BBEENQQ3BEsEPARPBD0EPQQ+BDUA--4" 420 -86 basechar 0
AnchorPoint: "+BBEENQQ3BEsEPARPBD0EPQQ+BDUA--2" 80 678 basechar 0
AnchorPoint: "+BBEENQQ3BEsEPARPBD0EPQQ+BDUA--1" 760 678 basechar 0
AnchorPoint: "+BBEENQQ3BEsEPARPBD0EPQQ+BDUA--0" 420 778 basechar 0
LayerCount: 2
Fore
SplineSet
80 0 m 1,0,-1
 80 381 l 1,1,-1
 664 381 l 1,2,-1
 664 592 l 1,3,-1
 80 592 l 1,4,-1
 80 678 l 1,5,-1
 760 678 l 1,6,-1
 760 0 l 1,7,-1
 664 0 l 1,8,-1
 664 295 l 1,9,-1
 176 295 l 1,10,-1
 176 86 l 1,11,-1
 460 86 l 1,12,-1
 460 0 l 1,13,-1
 80 0 l 1,0,-1
EndSplineSet
Position2: "Single Positioning lookup 1 subtable" dx=296 dy=0 dh=296 dv=0
EndChar

StartChar: tta_zanb
Encoding: 72212 72212 52
Width: 840
GlyphClass: 2
Flags: W
HStem: 0 21G<80 176 394 517.469> 323 86<176 595> 592 86<176 760>
VStem: 80 96<0 323 409 592>
AnchorPoint: "+BBEENQQ3BEsEPARPBD0EPQQ+BDUA--5" 664 0 basechar 0
AnchorPoint: "+BBEENQQ3BEsEPARPBD0EPQQ+BDUA--4" 396 -86 basechar 0
AnchorPoint: "+BBEENQQ3BEsEPARPBD0EPQQ+BDUA--2" 80 678 basechar 0
AnchorPoint: "+BBEENQQ3BEsEPARPBD0EPQQ+BDUA--1" 760 678 basechar 0
AnchorPoint: "+BBEENQQ3BEsEPARPBD0EPQQ+BDUA--0" 420 778 basechar 0
LayerCount: 2
Fore
SplineSet
80 0 m 1,0,-1
 80 678 l 1,1,-1
 760 678 l 1,2,-1
 760 592 l 1,3,-1
 176 592 l 1,4,-1
 176 409 l 1,5,-1
 760 409 l 1,6,-1
 505 0 l 1,7,-1
 394 0 l 1,8,-1
 595 323 l 1,9,-1
 176 323 l 1,10,-1
 176 0 l 1,11,-1
 80 0 l 1,0,-1
EndSplineSet
Position2: "Single Positioning lookup 1 subtable" dx=296 dy=0 dh=296 dv=0
EndChar

StartChar: ttha_zanb
Encoding: 72213 72213 53
Width: 840
GlyphClass: 2
Flags: W
HStem: 0 86<246 588> 592 86<255 589>
AnchorPoint: "+BBEENQQ3BEsEPARPBD0EPQQ+BDUA--5" 664 0 basechar 0
AnchorPoint: "+BBEENQQ3BEsEPARPBD0EPQQ+BDUA--4" 420 -86 basechar 0
AnchorPoint: "+BBEENQQ3BEsEPARPBD0EPQQ+BDUA--2" 80 678 basechar 0
AnchorPoint: "+BBEENQQ3BEsEPARPBD0EPQQ+BDUA--1" 760 678 basechar 0
AnchorPoint: "+BBEENQQ3BEsEPARPBD0EPQQ+BDUA--0" 420 778 basechar 0
LayerCount: 2
Fore
SplineSet
80 0 m 1,0,-1
 80 25 l 1,1,-1
 362 339 l 1,2,-1
 80 653 l 1,3,-1
 80 678 l 1,4,-1
 760 678 l 1,5,-1
 760 653 l 1,6,-1
 476 342 l 1,7,-1
 760 25 l 1,8,-1
 760 0 l 1,9,-1
 80 0 l 1,0,-1
420 405 m 1,10,-1
 589 592 l 1,11,-1
 255 592 l 1,12,-1
 420 405 l 1,10,-1
246 86 m 1,13,-1
 588 86 l 1,14,-1
 420 280 l 1,15,-1
 246 86 l 1,13,-1
EndSplineSet
Position2: "Single Positioning lookup 1 subtable" dx=296 dy=0 dh=296 dv=0
EndChar

StartChar: dda_zanb
Encoding: 72214 72214 54
Width: 840
GlyphClass: 2
Flags: W
HStem: 0 86<80 621> 592 86<209 760>
AnchorPoint: "+BBEENQQ3BEsEPARPBD0EPQQ+BDUA--5" 664 0 basechar 0
AnchorPoint: "+BBEENQQ3BEsEPARPBD0EPQQ+BDUA--4" 420 -86 basechar 0
AnchorPoint: "+BBEENQQ3BEsEPARPBD0EPQQ+BDUA--2" 80 678 basechar 0
AnchorPoint: "+BBEENQQ3BEsEPARPBD0EPQQ+BDUA--1" 760 678 basechar 0
AnchorPoint: "+BBEENQQ3BEsEPARPBD0EPQQ+BDUA--0" 420 778 basechar 0
LayerCount: 2
Fore
SplineSet
80 0 m 1,0,-1
 80 86 l 1,1,-1
 621 86 l 1,2,-1
 80 580 l 1,3,-1
 80 678 l 1,4,-1
 760 678 l 1,5,-1
 760 592 l 1,6,-1
 209 592 l 1,7,-1
 760 98 l 1,8,-1
 760 0 l 1,9,-1
 80 0 l 1,0,-1
EndSplineSet
Position2: "Single Positioning lookup 1 subtable" dx=296 dy=0 dh=296 dv=0
EndChar

StartChar: ddha_zanb
Encoding: 72215 72215 55
Width: 840
GlyphClass: 2
Flags: W
HStem: 0 86<80 621> 592 86<209 664>
VStem: 664 96<412 592>
AnchorPoint: "+BBEENQQ3BEsEPARPBD0EPQQ+BDUA--5" 664 0 basechar 0
AnchorPoint: "+BBEENQQ3BEsEPARPBD0EPQQ+BDUA--4" 420 -86 basechar 0
AnchorPoint: "+BBEENQQ3BEsEPARPBD0EPQQ+BDUA--2" 80 678 basechar 0
AnchorPoint: "+BBEENQQ3BEsEPARPBD0EPQQ+BDUA--1" 760 678 basechar 0
AnchorPoint: "+BBEENQQ3BEsEPARPBD0EPQQ+BDUA--0" 420 778 basechar 0
LayerCount: 2
Fore
SplineSet
80 0 m 1,0,-1
 80 86 l 1,1,-1
 621 86 l 1,2,-1
 80 580 l 1,3,-1
 80 678 l 1,4,-1
 760 678 l 1,5,-1
 760 412 l 1,6,-1
 664 412 l 1,7,-1
 664 592 l 1,8,-1
 209 592 l 1,9,-1
 760 98 l 1,10,-1
 760 0 l 1,11,-1
 80 0 l 1,0,-1
EndSplineSet
Position2: "Single Positioning lookup 1 subtable" dx=296 dy=0 dh=296 dv=0
EndChar

StartChar: nna_zanb
Encoding: 72216 72216 56
Width: 840
GlyphClass: 2
Flags: W
HStem: 592 86<80 664>
VStem: 664 96<86 469 562 592>
AnchorPoint: "+BBEENQQ3BEsEPARPBD0EPQQ+BDUA--5" 664 0 basechar 0
AnchorPoint: "+BBEENQQ3BEsEPARPBD0EPQQ+BDUA--4" 420 -86 basechar 0
AnchorPoint: "+BBEENQQ3BEsEPARPBD0EPQQ+BDUA--2" 80 678 basechar 0
AnchorPoint: "+BBEENQQ3BEsEPARPBD0EPQQ+BDUA--1" 760 678 basechar 0
AnchorPoint: "+BBEENQQ3BEsEPARPBD0EPQQ+BDUA--0" 420 778 basechar 0
LayerCount: 2
Fore
SplineSet
664 -20 m 1,0,-1
 90 269 l 1,1,-1
 664 562 l 1,2,-1
 664 592 l 1,3,-1
 80 592 l 1,4,-1
 80 678 l 1,5,-1
 760 678 l 1,6,-1
 760 23 l 1,7,-1
 664 -20 l 1,0,-1
664 86 m 1,8,-1
 664 469 l 1,9,-1
 285 276 l 1,10,-1
 664 86 l 1,8,-1
EndSplineSet
Position2: "Single Positioning lookup 1 subtable" dx=296 dy=0 dh=296 dv=0
EndChar

StartChar: ta_zanb
Encoding: 72217 72217 57
Width: 840
GlyphClass: 2
Flags: W
HStem: 0 21G<80 176 664 760> 323 86<176 664> 592 86<176 760>
VStem: 80 96<0 323 409 592> 664 96<0 323>
AnchorPoint: "+BBEENQQ3BEsEPARPBD0EPQQ+BDUA--5" 664 0 basechar 0
AnchorPoint: "+BBEENQQ3BEsEPARPBD0EPQQ+BDUA--4" 420 -86 basechar 0
AnchorPoint: "+BBEENQQ3BEsEPARPBD0EPQQ+BDUA--2" 80 678 basechar 0
AnchorPoint: "+BBEENQQ3BEsEPARPBD0EPQQ+BDUA--1" 760 678 basechar 0
AnchorPoint: "+BBEENQQ3BEsEPARPBD0EPQQ+BDUA--0" 420 778 basechar 0
LayerCount: 2
Fore
SplineSet
80 0 m 1,0,-1
 80 678 l 1,1,-1
 760 678 l 1,2,-1
 760 592 l 1,3,-1
 176 592 l 1,4,-1
 176 409 l 1,5,-1
 760 409 l 1,6,-1
 760 0 l 1,7,-1
 664 0 l 1,8,-1
 664 323 l 1,9,-1
 176 323 l 1,10,-1
 176 0 l 1,11,-1
 80 0 l 1,0,-1
EndSplineSet
Position2: "Single Positioning lookup 1 subtable" dx=296 dy=0 dh=296 dv=0
EndChar

StartChar: tha_zanb
Encoding: 72218 72218 58
Width: 840
GlyphClass: 2
Flags: W
HStem: 0 86<176 664> 296 86<176 664> 592 86<176 664>
VStem: 80 96<86 296 382 592> 664 96<86 296 382 592>
CounterMasks: 1 e0
AnchorPoint: "+BBEENQQ3BEsEPARPBD0EPQQ+BDUA--5" 664 0 basechar 0
AnchorPoint: "+BBEENQQ3BEsEPARPBD0EPQQ+BDUA--4" 420 -86 basechar 0
AnchorPoint: "+BBEENQQ3BEsEPARPBD0EPQQ+BDUA--2" 80 678 basechar 0
AnchorPoint: "+BBEENQQ3BEsEPARPBD0EPQQ+BDUA--1" 760 678 basechar 0
AnchorPoint: "+BBEENQQ3BEsEPARPBD0EPQQ+BDUA--0" 420 778 basechar 0
LayerCount: 2
Fore
SplineSet
80 0 m 1,0,-1
 80 678 l 1,1,-1
 760 678 l 1,2,-1
 760 0 l 1,3,-1
 80 0 l 1,0,-1
176 382 m 1,4,-1
 664 382 l 1,5,-1
 664 592 l 1,6,-1
 176 592 l 1,7,-1
 176 382 l 1,4,-1
176 86 m 1,8,-1
 664 86 l 1,9,-1
 664 296 l 1,10,-1
 176 296 l 1,11,-1
 176 86 l 1,8,-1
EndSplineSet
Position2: "Single Positioning lookup 1 subtable" dx=296 dy=0 dh=296 dv=0
EndChar

StartChar: da_zanb
Encoding: 72219 72219 59
Width: 840
GlyphClass: 2
Flags: W
HStem: 0 86<80 664> 296 86<176 664> 592 86<176 760>
VStem: 80 96<382 592> 664 96<86 296>
CounterMasks: 1 e0
AnchorPoint: "+BBEENQQ3BEsEPARPBD0EPQQ+BDUA--5" 664 0 basechar 0
AnchorPoint: "+BBEENQQ3BEsEPARPBD0EPQQ+BDUA--4" 420 -86 basechar 0
AnchorPoint: "+BBEENQQ3BEsEPARPBD0EPQQ+BDUA--2" 80 678 basechar 0
AnchorPoint: "+BBEENQQ3BEsEPARPBD0EPQQ+BDUA--1" 760 678 basechar 0
AnchorPoint: "+BBEENQQ3BEsEPARPBD0EPQQ+BDUA--0" 420 778 basechar 0
LayerCount: 2
Fore
SplineSet
80 0 m 1,0,-1
 80 86 l 1,1,-1
 664 86 l 1,2,-1
 664 296 l 1,3,-1
 80 296 l 1,4,-1
 80 678 l 1,5,-1
 760 678 l 1,6,-1
 760 592 l 1,7,-1
 176 592 l 1,8,-1
 176 382 l 1,9,-1
 760 382 l 1,10,-1
 760 0 l 1,11,-1
 80 0 l 1,0,-1
EndSplineSet
Position2: "Single Positioning lookup 1 subtable" dx=296 dy=0 dh=296 dv=0
EndChar

StartChar: dha_zanb
Encoding: 72220 72220 60
Width: 840
GlyphClass: 2
Flags: W
HStem: 0 15<720.228 760> 332 86<176 551 656.841 760> 592 86<176 760>
VStem: 80 96<0 332 418 592> 411 106<105.512 231.118>
AnchorPoint: "+BBEENQQ3BEsEPARPBD0EPQQ+BDUA--5" 626 0 basechar 0
AnchorPoint: "+BBEENQQ3BEsEPARPBD0EPQQ+BDUA--4" 420 -86 basechar 0
AnchorPoint: "+BBEENQQ3BEsEPARPBD0EPQQ+BDUA--2" 80 678 basechar 0
AnchorPoint: "+BBEENQQ3BEsEPARPBD0EPQQ+BDUA--1" 760 678 basechar 0
AnchorPoint: "+BBEENQQ3BEsEPARPBD0EPQQ+BDUA--0" 401 778 basechar 0
LayerCount: 2
Fore
SplineSet
80 0 m 1,0,-1
 80 678 l 1,1,-1
 760 678 l 1,2,-1
 760 592 l 1,3,-1
 176 592 l 1,4,-1
 176 418 l 1,5,-1
 760 418 l 1,6,-1
 760 332 l 1,7,8
 717 329 717 329 674 316 c 128,-1,9
 631 303 631 303 595.5 281.5 c 128,-1,10
 560 260 560 260 538.5 231 c 128,-1,11
 517 202 517 202 517 166 c 0,12,13
 517 132 517 132 538 106.5 c 128,-1,14
 559 81 559 81 594 63 c 128,-1,15
 629 45 629 45 672.5 33.5 c 128,-1,16
 716 22 716 22 760 15 c 1,17,-1
 760 0 l 1,18,-1
 531 0 l 1,19,20
 501 15 501 15 473.5 37.5 c 128,-1,21
 446 60 446 60 428.5 90.5 c 128,-1,22
 411 121 411 121 411 161 c 0,23,24
 411 206 411 206 432 238.5 c 128,-1,25
 453 271 453 271 485.5 293 c 128,-1,26
 518 315 518 315 551 327 c 1,27,-1
 551 332 l 1,28,-1
 176 332 l 1,29,-1
 176 0 l 1,30,-1
 80 0 l 1,0,-1
EndSplineSet
Position2: "Single Positioning lookup 1 subtable" dx=296 dy=0 dh=296 dv=0
EndChar

StartChar: na_zanb
Encoding: 72221 72221 61
Width: 840
GlyphClass: 2
Flags: W
HStem: 0 86<176 372> 282 86<176 372 468 664> 592 86<80 664>
VStem: 80 96<86 282> 372 96<86 282> 664 96<0 282 368 592>
CounterMasks: 1 1c
AnchorPoint: "+BBEENQQ3BEsEPARPBD0EPQQ+BDUA--5" 664 0 basechar 0
AnchorPoint: "+BBEENQQ3BEsEPARPBD0EPQQ+BDUA--4" 420 -86 basechar 0
AnchorPoint: "+BBEENQQ3BEsEPARPBD0EPQQ+BDUA--2" 80 678 basechar 0
AnchorPoint: "+BBEENQQ3BEsEPARPBD0EPQQ+BDUA--1" 760 678 basechar 0
AnchorPoint: "+BBEENQQ3BEsEPARPBD0EPQQ+BDUA--0" 420 778 basechar 0
LayerCount: 2
Fore
SplineSet
80 0 m 1,0,-1
 80 368 l 1,1,-1
 664 368 l 1,2,-1
 664 592 l 1,3,-1
 80 592 l 1,4,-1
 80 678 l 1,5,-1
 760 678 l 1,6,-1
 760 0 l 1,7,-1
 664 0 l 1,8,-1
 664 282 l 1,9,-1
 468 282 l 1,10,-1
 468 0 l 1,11,-1
 80 0 l 1,0,-1
176 86 m 1,12,-1
 372 86 l 1,13,-1
 372 282 l 1,14,-1
 176 282 l 1,15,-1
 176 86 l 1,12,-1
EndSplineSet
Position2: "Single Positioning lookup 1 subtable" dx=296 dy=0 dh=296 dv=0
EndChar

StartChar: pa_zanb
Encoding: 72222 72222 62
Width: 840
GlyphClass: 2
Flags: W
HStem: 0 86<176 664>
VStem: 80 96<86 678> 664 96<86 678>
AnchorPoint: "+BBEENQQ3BEsEPARPBD0EPQQ+BDUA--5" 664 0 basechar 0
AnchorPoint: "+BBEENQQ3BEsEPARPBD0EPQQ+BDUA--4" 420 -86 basechar 0
AnchorPoint: "+BBEENQQ3BEsEPARPBD0EPQQ+BDUA--2" 80 678 basechar 0
AnchorPoint: "+BBEENQQ3BEsEPARPBD0EPQQ+BDUA--1" 760 678 basechar 0
AnchorPoint: "+BBEENQQ3BEsEPARPBD0EPQQ+BDUA--0" 420 778 basechar 0
LayerCount: 2
Fore
SplineSet
80 0 m 1,0,-1
 80 678 l 1,1,-1
 176 678 l 1,2,-1
 176 86 l 1,3,-1
 664 86 l 1,4,-1
 664 678 l 1,5,-1
 760 678 l 1,6,-1
 760 0 l 1,7,-1
 80 0 l 1,0,-1
EndSplineSet
Position2: "Single Positioning lookup 1 subtable" dx=296 dy=0 dh=296 dv=0
EndChar

StartChar: pha_zanb
Encoding: 72223 72223 63
Width: 840
GlyphClass: 2
Flags: W
HStem: 0 86<176 372 468 664> 592 86<468 664>
VStem: 80 96<86 678> 372 96<86 592> 664 96<86 592>
CounterMasks: 1 38
AnchorPoint: "+BBEENQQ3BEsEPARPBD0EPQQ+BDUA--5" 664 0 basechar 0
AnchorPoint: "+BBEENQQ3BEsEPARPBD0EPQQ+BDUA--4" 420 -86 basechar 0
AnchorPoint: "+BBEENQQ3BEsEPARPBD0EPQQ+BDUA--2" 80 678 basechar 0
AnchorPoint: "+BBEENQQ3BEsEPARPBD0EPQQ+BDUA--1" 760 678 basechar 0
AnchorPoint: "+BBEENQQ3BEsEPARPBD0EPQQ+BDUA--0" 420 778 basechar 0
LayerCount: 2
Fore
SplineSet
80 0 m 1,0,-1
 80 678 l 1,1,-1
 176 678 l 1,2,-1
 176 86 l 1,3,-1
 372 86 l 1,4,-1
 372 678 l 1,5,-1
 760 678 l 1,6,-1
 760 0 l 1,7,-1
 80 0 l 1,0,-1
468 86 m 1,8,-1
 664 86 l 1,9,-1
 664 592 l 1,10,-1
 468 592 l 1,11,-1
 468 86 l 1,8,-1
EndSplineSet
Position2: "Single Positioning lookup 1 subtable" dx=296 dy=0 dh=296 dv=0
EndChar

StartChar: ba_zanb
Encoding: 72224 72224 64
Width: 840
GlyphClass: 2
Flags: W
HStem: 0 86<176 664> 592 86<176 664>
VStem: 80 96<86 592> 664 96<86 592>
AnchorPoint: "+BBEENQQ3BEsEPARPBD0EPQQ+BDUA--5" 664 0 basechar 0
AnchorPoint: "+BBEENQQ3BEsEPARPBD0EPQQ+BDUA--4" 420 -86 basechar 0
AnchorPoint: "+BBEENQQ3BEsEPARPBD0EPQQ+BDUA--2" 80 678 basechar 0
AnchorPoint: "+BBEENQQ3BEsEPARPBD0EPQQ+BDUA--1" 760 678 basechar 0
AnchorPoint: "+BBEENQQ3BEsEPARPBD0EPQQ+BDUA--0" 420 778 basechar 0
LayerCount: 2
Fore
SplineSet
80 0 m 1,0,-1
 80 678 l 1,1,-1
 760 678 l 1,2,-1
 760 0 l 1,3,-1
 80 0 l 1,0,-1
176 86 m 1,4,-1
 664 86 l 1,5,-1
 664 592 l 1,6,-1
 176 592 l 1,7,-1
 176 86 l 1,4,-1
EndSplineSet
Position2: "Single Positioning lookup 1 subtable" dx=296 dy=0 dh=296 dv=0
EndChar

StartChar: bha_zanb
Encoding: 72225 72225 65
Width: 840
GlyphClass: 2
Flags: W
HStem: 0 86<252 664> 592 86<251 664>
VStem: 251 110<234.485 454.258> 664 96<86 592>
AnchorPoint: "+BBEENQQ3BEsEPARPBD0EPQQ+BDUA--5" 664 0 basechar 0
AnchorPoint: "+BBEENQQ3BEsEPARPBD0EPQQ+BDUA--4" 420 -86 basechar 0
AnchorPoint: "+BBEENQQ3BEsEPARPBD0EPQQ+BDUA--2" 80 678 basechar 0
AnchorPoint: "+BBEENQQ3BEsEPARPBD0EPQQ+BDUA--1" 760 678 basechar 0
AnchorPoint: "+BBEENQQ3BEsEPARPBD0EPQQ+BDUA--0" 420 778 basechar 0
LayerCount: 2
Fore
SplineSet
80 0 m 1,0,-1
 80 10 l 1,1,2
 167 105 167 105 209 187.5 c 128,-1,3
 251 270 251 270 251 354 c 0,4,5
 251 431 251 431 206 506.5 c 128,-1,6
 161 582 161 582 80 668 c 1,7,-1
 80 678 l 1,8,-1
 760 678 l 1,9,-1
 760 0 l 1,10,-1
 80 0 l 1,0,-1
252 86 m 1,11,-1
 664 86 l 1,12,-1
 664 592 l 1,13,-1
 251 589 l 1,14,-1
 251 586 l 1,15,16
 263 573 263 573 281.5 550 c 128,-1,17
 300 527 300 527 318 496.5 c 128,-1,18
 336 466 336 466 348.5 430 c 128,-1,19
 361 394 361 394 361 353 c 0,20,21
 361 271 361 271 329.5 205.5 c 128,-1,22
 298 140 298 140 252 88 c 1,23,-1
 252 86 l 1,11,-1
EndSplineSet
Position2: "Single Positioning lookup 1 subtable" dx=296 dy=0 dh=296 dv=0
EndChar

StartChar: ma_zanb
Encoding: 72226 72226 66
Width: 840
GlyphClass: 2
Flags: W
HStem: 0 86<176 372 468 664> 592 86<176 372>
VStem: 80 96<86 592> 372 96<86 592> 664 96<86 678>
CounterMasks: 1 38
AnchorPoint: "+BBEENQQ3BEsEPARPBD0EPQQ+BDUA--5" 664 0 basechar 0
AnchorPoint: "+BBEENQQ3BEsEPARPBD0EPQQ+BDUA--4" 420 -86 basechar 0
AnchorPoint: "+BBEENQQ3BEsEPARPBD0EPQQ+BDUA--2" 80 678 basechar 0
AnchorPoint: "+BBEENQQ3BEsEPARPBD0EPQQ+BDUA--1" 760 678 basechar 0
AnchorPoint: "+BBEENQQ3BEsEPARPBD0EPQQ+BDUA--0" 420 778 basechar 0
LayerCount: 2
Fore
SplineSet
80 0 m 1,0,-1
 80 678 l 1,1,-1
 468 678 l 1,2,-1
 468 86 l 1,3,-1
 664 86 l 1,4,-1
 664 678 l 1,5,-1
 760 678 l 1,6,-1
 760 0 l 1,7,-1
 80 0 l 1,0,-1
176 86 m 1,8,-1
 372 86 l 1,9,-1
 372 592 l 1,10,-1
 176 592 l 1,11,-1
 176 86 l 1,8,-1
EndSplineSet
Position2: "Single Positioning lookup 1 subtable" dx=296 dy=0 dh=296 dv=0
EndChar

StartChar: tsa_zanb
Encoding: 72227 72227 67
Width: 840
GlyphClass: 2
Flags: W
HStem: 0 86<80 372 468 664> 592 86<80 372 468 664> 733 111<801.187 959.594>
VStem: 372 96<86 592> 664 96<86 592>
AnchorPoint: "+BBEENQQ3BEsEPARPBD0EPQQ+BDUA--5" 664 0 basechar 0
AnchorPoint: "+BBEENQQ3BEsEPARPBD0EPQQ+BDUA--4" 420 -86 basechar 0
AnchorPoint: "+BBEENQQ3BEsEPARPBD0EPQQ+BDUA--2" 80 678 basechar 0
AnchorPoint: "+BBEENQQ3BEsEPARPBD0EPQQ+BDUA--1" 760 678 basechar 0
AnchorPoint: "+BBEENQQ3BEsEPARPBD0EPQQ+BDUA--0" 420 778 basechar 0
LayerCount: 2
Fore
SplineSet
80 0 m 1,0,-1
 80 86 l 1,1,-1
 372 86 l 1,2,-1
 372 592 l 1,3,-1
 80 592 l 1,4,-1
 80 678 l 1,5,-1
 685 678 l 1,6,-1
 784 855 l 1,7,8
 808 850 808 850 831.5 847 c 128,-1,9
 855 844 855 844 878 844 c 256,10,11
 901 844 901 844 926 847.5 c 128,-1,12
 951 851 951 851 976 859 c 1,13,14
 979 822 979 822 971.5 790.5 c 128,-1,15
 964 759 964 759 950 733 c 1,16,17
 911 733 911 733 874.5 736.5 c 128,-1,18
 838 740 838 740 800 750 c 1,19,-1
 760 678 l 1,20,-1
 760 0 l 1,21,-1
 80 0 l 1,0,-1
468 86 m 1,22,-1
 664 86 l 1,23,-1
 664 592 l 1,24,-1
 468 592 l 1,25,-1
 468 86 l 1,22,-1
EndSplineSet
Substitution2: "+BBUENAQ4BD0EOARHBD0EMARP +BD8EPgQ0BEEEQgQwBD0EPgQyBDoEMAAA lookup 24 subtable" tsa_zanb.flat
Substitution2: "+BBUENAQ4BD0EOARHBD0EMARP +BD8EPgQ0BEEEQgQwBD0EPgQyBDoEMAAA lookup 23 subtable" tsa_zanb.flat
Position2: "Single Positioning lookup 1 subtable" dx=296 dy=0 dh=296 dv=0
EndChar

StartChar: tsha_zanb
Encoding: 72228 72228 68
Width: 840
GlyphClass: 2
Flags: W
HStem: 0 86<176 372 468 664> 592 86<176 372 468 664> 733 111<801.187 959.594>
VStem: 80 96<86 592> 372 96<86 592> 664 96<86 592>
CounterMasks: 1 1c
AnchorPoint: "+BBEENQQ3BEsEPARPBD0EPQQ+BDUA--5" 664 0 basechar 0
AnchorPoint: "+BBEENQQ3BEsEPARPBD0EPQQ+BDUA--4" 420 -86 basechar 0
AnchorPoint: "+BBEENQQ3BEsEPARPBD0EPQQ+BDUA--2" 80 678 basechar 0
AnchorPoint: "+BBEENQQ3BEsEPARPBD0EPQQ+BDUA--1" 760 678 basechar 0
AnchorPoint: "+BBEENQQ3BEsEPARPBD0EPQQ+BDUA--0" 420 778 basechar 0
LayerCount: 2
Fore
SplineSet
80 0 m 1,0,-1
 80 678 l 1,1,-1
 685 678 l 1,2,-1
 784 855 l 1,3,4
 808 850 808 850 831.5 847 c 128,-1,5
 855 844 855 844 878 844 c 256,6,7
 901 844 901 844 926 847.5 c 128,-1,8
 951 851 951 851 976 859 c 1,9,10
 979 822 979 822 971.5 790.5 c 128,-1,11
 964 759 964 759 950 733 c 1,12,13
 911 733 911 733 874.5 736.5 c 128,-1,14
 838 740 838 740 800 750 c 1,15,-1
 760 678 l 1,16,-1
 760 0 l 1,17,-1
 80 0 l 1,0,-1
176 86 m 1,18,-1
 372 86 l 1,19,-1
 372 592 l 1,20,-1
 176 592 l 1,21,-1
 176 86 l 1,18,-1
468 86 m 1,22,-1
 664 86 l 1,23,-1
 664 592 l 1,24,-1
 468 592 l 1,25,-1
 468 86 l 1,22,-1
EndSplineSet
Substitution2: "+BBUENAQ4BD0EOARHBD0EMARP +BD8EPgQ0BEEEQgQwBD0EPgQyBDoEMAAA lookup 24 subtable" tsha_zanb.flat
Substitution2: "+BBUENAQ4BD0EOARHBD0EMARP +BD8EPgQ0BEEEQgQwBD0EPgQyBDoEMAAA lookup 23 subtable" tsha_zanb.flat
Position2: "Single Positioning lookup 1 subtable" dx=296 dy=0 dh=296 dv=0
EndChar

StartChar: dza_zanb
Encoding: 72229 72229 69
Width: 840
GlyphClass: 2
Flags: W
HStem: 0 86<176 760> 296 86<176 760> 592 86<176 666> 733 111<782.187 940.594>
VStem: 80 96<86 296 382 592>
AnchorPoint: "+BBEENQQ3BEsEPARPBD0EPQQ+BDUA--5" 664 0 basechar 0
AnchorPoint: "+BBEENQQ3BEsEPARPBD0EPQQ+BDUA--4" 420 -86 basechar 0
AnchorPoint: "+BBEENQQ3BEsEPARPBD0EPQQ+BDUA--2" 80 678 basechar 0
AnchorPoint: "+BBEENQQ3BEsEPARPBD0EPQQ+BDUA--1" 760 678 basechar 0
AnchorPoint: "+BBEENQQ3BEsEPARPBD0EPQQ+BDUA--0" 420 778 basechar 0
LayerCount: 2
Fore
SplineSet
80 0 m 1,0,-1
 80 678 l 1,1,-1
 666 678 l 1,2,-1
 765 855 l 1,3,4
 789 850 789 850 812.5 847 c 128,-1,5
 836 844 836 844 859 844 c 256,6,7
 882 844 882 844 907 847.5 c 128,-1,8
 932 851 932 851 957 859 c 1,9,10
 960 822 960 822 952.5 790.5 c 128,-1,11
 945 759 945 759 931 733 c 1,12,13
 892 733 892 733 855.5 736.5 c 128,-1,14
 819 740 819 740 781 750 c 1,15,-1
 693 592 l 1,16,-1
 176 592 l 1,17,-1
 176 382 l 1,18,-1
 760 382 l 1,19,-1
 760 296 l 1,20,-1
 176 296 l 1,21,-1
 176 86 l 1,22,-1
 760 86 l 1,23,-1
 760 0 l 1,24,-1
 80 0 l 1,0,-1
EndSplineSet
Substitution2: "+BBUENAQ4BD0EOARHBD0EMARP +BD8EPgQ0BEEEQgQwBD0EPgQyBDoEMAAA lookup 24 subtable" dza_zanb.flat
Substitution2: "+BBUENAQ4BD0EOARHBD0EMARP +BD8EPgQ0BEEEQgQwBD0EPgQyBDoEMAAA lookup 23 subtable" dza_zanb.flat
Position2: "Single Positioning lookup 1 subtable" dx=296 dy=0 dh=296 dv=0
EndChar

StartChar: dzha_zanb
Encoding: 72230 72230 70
Width: 840
GlyphClass: 2
Flags: W
HStem: 0 86<176 760> 163 90<538.897 662.557> 296 86<176 432.41> 420 90<538.097 664.961> 592 86<176 666> 733 111<782.187 940.594>
VStem: 80 96<86 296 382 592>
AnchorPoint: "+BBEENQQ3BEsEPARPBD0EPQQ+BDUA--5" 664 0 basechar 0
AnchorPoint: "+BBEENQQ3BEsEPARPBD0EPQQ+BDUA--4" 420 -86 basechar 0
AnchorPoint: "+BBEENQQ3BEsEPARPBD0EPQQ+BDUA--2" 80 678 basechar 0
AnchorPoint: "+BBEENQQ3BEsEPARPBD0EPQQ+BDUA--1" 760 678 basechar 0
AnchorPoint: "+BBEENQQ3BEsEPARPBD0EPQQ+BDUA--0" 420 778 basechar 0
LayerCount: 2
Fore
SplineSet
80 0 m 1,0,-1
 80 678 l 1,1,-1
 666 678 l 1,2,-1
 765 855 l 1,3,4
 789 850 789 850 812.5 847 c 128,-1,5
 836 844 836 844 859 844 c 256,6,7
 882 844 882 844 907 847.5 c 128,-1,8
 932 851 932 851 957 859 c 1,9,10
 960 822 960 822 952.5 790.5 c 128,-1,11
 945 759 945 759 931 733 c 1,12,13
 892 733 892 733 855.5 736.5 c 128,-1,14
 819 740 819 740 781 750 c 1,15,-1
 693 592 l 1,16,-1
 176 592 l 1,17,-1
 176 382 l 1,18,-1
 427 382 l 1,19,20
 442 437 442 437 488.5 473.5 c 128,-1,21
 535 510 535 510 595 510 c 0,22,23
 634 510 634 510 667.5 494 c 128,-1,24
 701 478 701 478 725 450 c 1,25,-1
 657 392 l 1,26,27
 646 405 646 405 630 412.5 c 128,-1,28
 614 420 614 420 595 420 c 0,29,30
 560 420 560 420 535.5 396 c 128,-1,31
 511 372 511 372 511 337 c 256,32,33
 511 302 511 302 535.5 277.5 c 128,-1,34
 560 253 560 253 595 253 c 0,35,36
 626 253 626 253 648 272 c 1,37,-1
 715 212 l 1,38,39
 692 190 692 190 661 176.5 c 128,-1,40
 630 163 630 163 595 163 c 0,41,42
 534 163 534 163 487 201 c 128,-1,43
 440 239 440 239 426 296 c 1,44,-1
 176 296 l 1,45,-1
 176 86 l 1,46,-1
 760 86 l 1,47,-1
 760 0 l 1,48,-1
 80 0 l 1,0,-1
EndSplineSet
Substitution2: "+BBUENAQ4BD0EOARHBD0EMARP +BD8EPgQ0BEEEQgQwBD0EPgQyBDoEMAAA lookup 24 subtable" dzha_zanb.flat
Substitution2: "+BBUENAQ4BD0EOARHBD0EMARP +BD8EPgQ0BEEEQgQwBD0EPgQyBDoEMAAA lookup 23 subtable" dzha_zanb.flat
Position2: "Single Positioning lookup 1 subtable" dx=296 dy=0 dh=296 dv=0
EndChar

StartChar: zha_zanb
Encoding: 72231 72231 71
Width: 840
GlyphClass: 2
Flags: W
HStem: 0 86<479.47 664> 317 86<480.082 664> 592 86<176 664>
VStem: 80 96<0 592> 323 96<136.033 263.29> 664 96<86 317 403 592>
AnchorPoint: "+BBEENQQ3BEsEPARPBD0EPQQ+BDUA--5" 664 0 basechar 0
AnchorPoint: "+BBEENQQ3BEsEPARPBD0EPQQ+BDUA--4" 420 -86 basechar 0
AnchorPoint: "+BBEENQQ3BEsEPARPBD0EPQQ+BDUA--2" 80 678 basechar 0
AnchorPoint: "+BBEENQQ3BEsEPARPBD0EPQQ+BDUA--1" 760 678 basechar 0
AnchorPoint: "+BBEENQQ3BEsEPARPBD0EPQQ+BDUA--0" 420 778 basechar 0
LayerCount: 2
Fore
SplineSet
80 0 m 1,0,-1
 80 678 l 1,1,-1
 760 678 l 1,2,-1
 760 0 l 1,3,-1
 596 0 l 2,4,5
 459 0 459 0 391 47.5 c 128,-1,6
 323 95 323 95 323 197 c 0,7,8
 323 303 323 303 391 353 c 128,-1,9
 459 403 459 403 596 403 c 2,10,-1
 664 403 l 1,11,-1
 664 592 l 1,12,-1
 176 592 l 1,13,-1
 176 0 l 1,14,-1
 80 0 l 1,0,-1
596 86 m 2,15,-1
 664 86 l 1,16,-1
 664 317 l 1,17,-1
 596 317 l 2,18,19
 508 317 508 317 463.5 285.5 c 128,-1,20
 419 254 419 254 419 197 c 0,21,22
 419 145 419 145 463.5 115.5 c 128,-1,23
 508 86 508 86 596 86 c 2,15,-1
EndSplineSet
Position2: "Single Positioning lookup 1 subtable" dx=296 dy=0 dh=296 dv=0
EndChar

StartChar: za_zanb
Encoding: 72232 72232 72
Width: 840
GlyphClass: 2
Flags: W
HStem: 0 86<80 663> 296 86<80 663> 592 86<80 663>
VStem: 663 97<86 296 382 592>
CounterMasks: 1 e0
AnchorPoint: "+BBEENQQ3BEsEPARPBD0EPQQ+BDUA--5" 664 0 basechar 0
AnchorPoint: "+BBEENQQ3BEsEPARPBD0EPQQ+BDUA--4" 420 -86 basechar 0
AnchorPoint: "+BBEENQQ3BEsEPARPBD0EPQQ+BDUA--2" 80 678 basechar 0
AnchorPoint: "+BBEENQQ3BEsEPARPBD0EPQQ+BDUA--1" 760 678 basechar 0
AnchorPoint: "+BBEENQQ3BEsEPARPBD0EPQQ+BDUA--0" 420 778 basechar 0
LayerCount: 2
Fore
SplineSet
80 0 m 1,0,-1
 80 86 l 1,1,-1
 663 86 l 1,2,-1
 663 296 l 1,3,-1
 80 296 l 1,4,-1
 80 382 l 1,5,-1
 663 382 l 1,6,-1
 663 592 l 1,7,-1
 80 592 l 1,8,-1
 80 678 l 1,9,-1
 760 678 l 1,10,-1
 760 0 l 1,11,-1
 80 0 l 1,0,-1
EndSplineSet
Position2: "Single Positioning lookup 1 subtable" dx=296 dy=0 dh=296 dv=0
EndChar

StartChar: aa_zanb
Encoding: 72233 72233 73
Width: 840
GlyphClass: 2
Flags: W
HStem: 0 86<467 760> 305 86<467 663> 592 86<176 663>
VStem: 80 96<0 592> 371 96<86 305> 663 97<391 592>
AnchorPoint: "+BBEENQQ3BEsEPARPBD0EPQQ+BDUA--5" 664 0 basechar 0
AnchorPoint: "+BBEENQQ3BEsEPARPBD0EPQQ+BDUA--4" 420 -86 basechar 0
AnchorPoint: "+BBEENQQ3BEsEPARPBD0EPQQ+BDUA--2" 80 678 basechar 0
AnchorPoint: "+BBEENQQ3BEsEPARPBD0EPQQ+BDUA--1" 760 678 basechar 0
AnchorPoint: "+BBEENQQ3BEsEPARPBD0EPQQ+BDUA--0" 420 778 basechar 0
LayerCount: 2
Fore
SplineSet
80 0 m 1,0,-1
 80 678 l 1,1,-1
 760 678 l 1,2,-1
 760 305 l 1,3,-1
 467 305 l 1,4,-1
 467 86 l 1,5,-1
 760 86 l 1,6,-1
 760 0 l 1,7,-1
 371 0 l 1,8,-1
 371 391 l 1,9,-1
 663 391 l 1,10,-1
 663 592 l 1,11,-1
 176 592 l 1,12,-1
 176 0 l 1,13,-1
 80 0 l 1,0,-1
EndSplineSet
Position2: "Single Positioning lookup 1 subtable" dx=296 dy=0 dh=296 dv=0
EndChar

StartChar: ya_zanb
Encoding: 72234 72234 74
Width: 840
GlyphClass: 2
Flags: W
HStem: 0 86<176 372 468 664>
VStem: 80 96<86 678> 372 96<86 678> 664 96<86 678>
CounterMasks: 1 70
AnchorPoint: "+BBEENQQ3BEsEPARPBD0EPQQ+BDUA--5" 664 0 basechar 0
AnchorPoint: "+BBEENQQ3BEsEPARPBD0EPQQ+BDUA--4" 420 -86 basechar 0
AnchorPoint: "+BBEENQQ3BEsEPARPBD0EPQQ+BDUA--2" 80 678 basechar 0
AnchorPoint: "+BBEENQQ3BEsEPARPBD0EPQQ+BDUA--1" 760 678 basechar 0
AnchorPoint: "+BBEENQQ3BEsEPARPBD0EPQQ+BDUA--0" 420 778 basechar 0
LayerCount: 2
Fore
SplineSet
80 0 m 1,0,-1
 80 678 l 1,1,-1
 176 678 l 1,2,-1
 176 86 l 1,3,-1
 372 86 l 1,4,-1
 372 678 l 1,5,-1
 468 678 l 1,6,-1
 468 86 l 1,7,-1
 664 86 l 1,8,-1
 664 678 l 1,9,-1
 760 678 l 1,10,-1
 760 0 l 1,11,-1
 80 0 l 1,0,-1
EndSplineSet
Position2: "Single Positioning lookup 1 subtable" dx=296 dy=0 dh=296 dv=0
EndChar

StartChar: ra_zanb
Encoding: 72235 72235 75
Width: 840
GlyphClass: 2
Flags: W
HStem: 0 21G<80 176 664 760> 336 86<176 372 468 664> 592 86<80 372 468 760>
VStem: 80 96<0 336> 372 96<422 592> 664 96<0 336>
CounterMasks: 1 1c
AnchorPoint: "+BBEENQQ3BEsEPARPBD0EPQQ+BDUA--5" 664 0 basechar 0
AnchorPoint: "+BBEENQQ3BEsEPARPBD0EPQQ+BDUA--4" 420 -86 basechar 0
AnchorPoint: "+BBEENQQ3BEsEPARPBD0EPQQ+BDUA--2" 80 678 basechar 0
AnchorPoint: "+BBEENQQ3BEsEPARPBD0EPQQ+BDUA--1" 760 678 basechar 0
AnchorPoint: "+BBEENQQ3BEsEPARPBD0EPQQ+BDUA--0" 420 778 basechar 0
LayerCount: 2
Fore
SplineSet
80 0 m 1,0,-1
 80 422 l 1,1,-1
 372 422 l 1,2,-1
 372 592 l 1,3,-1
 80 592 l 1,4,-1
 80 678 l 1,5,-1
 760 678 l 1,6,-1
 760 592 l 1,7,-1
 468 592 l 1,8,-1
 468 422 l 1,9,-1
 760 422 l 1,10,-1
 760 0 l 1,11,-1
 664 0 l 1,12,-1
 664 336 l 1,13,-1
 176 336 l 1,14,-1
 176 0 l 1,15,-1
 80 0 l 1,0,-1
EndSplineSet
Position2: "Single Positioning lookup 1 subtable" dx=296 dy=0 dh=296 dv=0
EndChar

StartChar: la_zanb
Encoding: 72236 72236 76
Width: 840
GlyphClass: 2
Flags: W
HStem: 0 86<468 664> 592 86<176 372>
VStem: 80 96<0 592> 372 96<86 592> 664 96<86 678>
CounterMasks: 1 38
AnchorPoint: "+BBEENQQ3BEsEPARPBD0EPQQ+BDUA--5" 664 0 basechar 0
AnchorPoint: "+BBEENQQ3BEsEPARPBD0EPQQ+BDUA--4" 420 -86 basechar 0
AnchorPoint: "+BBEENQQ3BEsEPARPBD0EPQQ+BDUA--2" 80 678 basechar 0
AnchorPoint: "+BBEENQQ3BEsEPARPBD0EPQQ+BDUA--1" 760 678 basechar 0
AnchorPoint: "+BBEENQQ3BEsEPARPBD0EPQQ+BDUA--0" 420 778 basechar 0
LayerCount: 2
Fore
SplineSet
80 0 m 1,0,-1
 80 678 l 1,1,-1
 468 678 l 1,2,-1
 468 86 l 1,3,-1
 664 86 l 1,4,-1
 664 678 l 1,5,-1
 760 678 l 1,6,-1
 760 0 l 1,7,-1
 372 0 l 1,8,-1
 372 592 l 1,9,-1
 176 592 l 1,10,-1
 176 0 l 1,11,-1
 80 0 l 1,0,-1
EndSplineSet
Substitution2: "+BBUENAQ4BD0EOARHBD0EMARP +BD8EPgQ0BEEEQgQwBD0EPgQyBDoEMAAA lookup 6 subtable" la_zanb.head
Position2: "Single Positioning lookup 1 subtable" dx=296 dy=0 dh=296 dv=0
EndChar

StartChar: va_zanb
Encoding: 72237 72237 77
Width: 840
GlyphClass: 2
Flags: W
HStem: -3 86<408.705 551.295> 592 86<176 431 529 760>
VStem: 80 96<0 592> 254 96<143.712 300.43> 431 98<434.817 592> 610 96<143.712 300.43>
AnchorPoint: "+BBEENQQ3BEsEPARPBD0EPQQ+BDUA--5" 664 0 basechar 0
AnchorPoint: "+BBEENQQ3BEsEPARPBD0EPQQ+BDUA--4" 420 -86 basechar 0
AnchorPoint: "+BBEENQQ3BEsEPARPBD0EPQQ+BDUA--2" 80 678 basechar 0
AnchorPoint: "+BBEENQQ3BEsEPARPBD0EPQQ+BDUA--1" 760 678 basechar 0
AnchorPoint: "+BBEENQQ3BEsEPARPBD0EPQQ+BDUA--0" 420 778 basechar 0
LayerCount: 2
Fore
SplineSet
80 0 m 1,0,-1
 80 678 l 1,1,-1
 760 678 l 1,2,-1
 760 592 l 1,3,-1
 529 592 l 1,4,-1
 529 441 l 1,5,6
 579 429 579 429 619 397.5 c 128,-1,7
 659 366 659 366 682.5 320.5 c 128,-1,8
 706 275 706 275 706 222 c 0,9,10
 706 160 706 160 675.5 109 c 128,-1,11
 645 58 645 58 593.5 27.5 c 128,-1,12
 542 -3 542 -3 480 -3 c 256,13,14
 418 -3 418 -3 366.5 27.5 c 128,-1,15
 315 58 315 58 284.5 109 c 128,-1,16
 254 160 254 160 254 222 c 0,17,18
 254 275 254 275 277.5 320.5 c 128,-1,19
 301 366 301 366 341 397.5 c 128,-1,20
 381 429 381 429 431 441 c 1,21,-1
 431 592 l 1,22,-1
 176 592 l 1,23,-1
 176 0 l 1,24,-1
 80 0 l 1,0,-1
480 83 m 256,25,26
 516 83 516 83 545.5 101 c 128,-1,27
 575 119 575 119 592.5 150.5 c 128,-1,28
 610 182 610 182 610 222 c 0,29,30
 610 263 610 263 592.5 294 c 128,-1,31
 575 325 575 325 545.5 343 c 128,-1,32
 516 361 516 361 480 361 c 256,33,34
 444 361 444 361 414.5 343 c 128,-1,35
 385 325 385 325 367.5 294 c 128,-1,36
 350 263 350 263 350 222 c 0,37,38
 350 182 350 182 367.5 150.5 c 128,-1,39
 385 119 385 119 414.5 101 c 128,-1,40
 444 83 444 83 480 83 c 256,25,26
EndSplineSet
Position2: "Single Positioning lookup 1 subtable" dx=296 dy=0 dh=296 dv=0
EndChar

StartChar: sha_zanb
Encoding: 72238 72238 78
Width: 840
GlyphClass: 2
Flags: W
HStem: 0 86<468 664> 293 86<176 372> 592 86<468 664>
VStem: 80 96<0 293 379 678> 372 96<86 293 379 592> 664 96<86 592>
CounterMasks: 1 1c
AnchorPoint: "+BBEENQQ3BEsEPARPBD0EPQQ+BDUA--5" 664 0 basechar 0
AnchorPoint: "+BBEENQQ3BEsEPARPBD0EPQQ+BDUA--4" 420 -86 basechar 0
AnchorPoint: "+BBEENQQ3BEsEPARPBD0EPQQ+BDUA--2" 80 678 basechar 0
AnchorPoint: "+BBEENQQ3BEsEPARPBD0EPQQ+BDUA--1" 760 678 basechar 0
AnchorPoint: "+BBEENQQ3BEsEPARPBD0EPQQ+BDUA--0" 420 778 basechar 0
LayerCount: 2
Fore
SplineSet
80 0 m 1,0,-1
 80 678 l 1,1,-1
 176 678 l 1,2,-1
 176 379 l 1,3,-1
 372 379 l 1,4,-1
 372 678 l 1,5,-1
 760 678 l 1,6,-1
 760 0 l 1,7,-1
 372 0 l 1,8,-1
 372 293 l 1,9,-1
 176 293 l 1,10,-1
 176 0 l 1,11,-1
 80 0 l 1,0,-1
468 86 m 1,12,-1
 664 86 l 1,13,-1
 664 592 l 1,14,-1
 468 592 l 1,15,-1
 468 86 l 1,12,-1
EndSplineSet
Position2: "Single Positioning lookup 1 subtable" dx=296 dy=0 dh=296 dv=0
EndChar

StartChar: ssa_zanb
Encoding: 72239 72239 79
Width: 840
GlyphClass: 2
Flags: W
HStem: 0 86<176 372> 293 86<468 664> 592 86<176 372>
VStem: 80 96<86 592> 372 96<86 293 379 592> 664 96<0 293 379 678>
CounterMasks: 1 1c
AnchorPoint: "+BBEENQQ3BEsEPARPBD0EPQQ+BDUA--5" 664 0 basechar 0
AnchorPoint: "+BBEENQQ3BEsEPARPBD0EPQQ+BDUA--4" 420 -86 basechar 0
AnchorPoint: "+BBEENQQ3BEsEPARPBD0EPQQ+BDUA--2" 80 678 basechar 0
AnchorPoint: "+BBEENQQ3BEsEPARPBD0EPQQ+BDUA--1" 760 678 basechar 0
AnchorPoint: "+BBEENQQ3BEsEPARPBD0EPQQ+BDUA--0" 420 778 basechar 0
LayerCount: 2
Fore
SplineSet
80 0 m 1,0,-1
 80 678 l 1,1,-1
 468 678 l 1,2,-1
 468 379 l 1,3,-1
 664 379 l 1,4,-1
 664 678 l 1,5,-1
 760 678 l 1,6,-1
 760 0 l 1,7,-1
 664 0 l 1,8,-1
 664 293 l 1,9,-1
 468 293 l 1,10,-1
 468 0 l 1,11,-1
 80 0 l 1,0,-1
176 86 m 1,12,-1
 372 86 l 1,13,-1
 372 592 l 1,14,-1
 176 592 l 1,15,-1
 176 86 l 1,12,-1
EndSplineSet
Position2: "Single Positioning lookup 1 subtable" dx=296 dy=0 dh=296 dv=0
EndChar

StartChar: sa_zanb
Encoding: 72240 72240 80
Width: 840
GlyphClass: 2
Flags: W
HStem: 0 21G<80 176 645.654 760>
VStem: 80 96<0 532> 664 96<146 678>
AnchorPoint: "+BBEENQQ3BEsEPARPBD0EPQQ+BDUA--5" 664 0 basechar 0
AnchorPoint: "+BBEENQQ3BEsEPARPBD0EPQQ+BDUA--4" 420 -86 basechar 0
AnchorPoint: "+BBEENQQ3BEsEPARPBD0EPQQ+BDUA--2" 80 678 basechar 0
AnchorPoint: "+BBEENQQ3BEsEPARPBD0EPQQ+BDUA--1" 760 678 basechar 0
AnchorPoint: "+BBEENQQ3BEsEPARPBD0EPQQ+BDUA--0" 420 778 basechar 0
LayerCount: 2
Fore
SplineSet
80 0 m 1,0,-1
 80 678 l 1,1,-1
 176 678 l 1,2,-1
 664 146 l 1,3,-1
 664 678 l 1,4,-1
 760 678 l 1,5,-1
 760 0 l 1,6,-1
 664 0 l 1,7,-1
 176 532 l 1,8,-1
 176 0 l 1,9,-1
 80 0 l 1,0,-1
EndSplineSet
Substitution2: "+BBUENAQ4BD0EOARHBD0EMARP +BD8EPgQ0BEEEQgQwBD0EPgQyBDoEMAAA lookup 6 subtable" sa_zanb.head
Position2: "Single Positioning lookup 1 subtable" dx=296 dy=0 dh=296 dv=0
EndChar

StartChar: ha_zanb
Encoding: 72241 72241 81
Width: 840
GlyphClass: 2
Flags: W
HStem: 0 86<176 372> 329 86<468 664> 592 86<176 760>
VStem: 80 96<86 592> 372 96<86 329> 664 96<0 329>
CounterMasks: 1 1c
AnchorPoint: "+BBEENQQ3BEsEPARPBD0EPQQ+BDUA--5" 664 0 basechar 0
AnchorPoint: "+BBEENQQ3BEsEPARPBD0EPQQ+BDUA--4" 420 -86 basechar 0
AnchorPoint: "+BBEENQQ3BEsEPARPBD0EPQQ+BDUA--2" 80 678 basechar 0
AnchorPoint: "+BBEENQQ3BEsEPARPBD0EPQQ+BDUA--1" 760 678 basechar 0
AnchorPoint: "+BBEENQQ3BEsEPARPBD0EPQQ+BDUA--0" 420 778 basechar 0
LayerCount: 2
Fore
SplineSet
80 0 m 1,0,-1
 80 678 l 1,1,-1
 760 678 l 1,2,-1
 760 592 l 1,3,-1
 176 592 l 1,4,-1
 176 86 l 1,5,-1
 372 86 l 1,6,-1
 372 415 l 1,7,-1
 760 415 l 1,8,-1
 760 0 l 1,9,-1
 664 0 l 1,10,-1
 664 329 l 1,11,-1
 468 329 l 1,12,-1
 468 0 l 1,13,-1
 80 0 l 1,0,-1
EndSplineSet
Position2: "Single Positioning lookup 1 subtable" dx=296 dy=0 dh=296 dv=0
EndChar

StartChar: kssa_zanb
Encoding: 72242 72242 82
Width: 840
GlyphClass: 2
Flags: W
HStem: 0 86<176 468> 299 86<176 372> 592 86<80 372 468 664>
VStem: 80 96<86 299> 372 96<385 592> 664 96<0 592>
CounterMasks: 1 1c
AnchorPoint: "+BBEENQQ3BEsEPARPBD0EPQQ+BDUA--5" 664 0 basechar 0
AnchorPoint: "+BBEENQQ3BEsEPARPBD0EPQQ+BDUA--4" 420 -86 basechar 0
AnchorPoint: "+BBEENQQ3BEsEPARPBD0EPQQ+BDUA--2" 80 678 basechar 0
AnchorPoint: "+BBEENQQ3BEsEPARPBD0EPQQ+BDUA--1" 760 678 basechar 0
AnchorPoint: "+BBEENQQ3BEsEPARPBD0EPQQ+BDUA--0" 420 778 basechar 0
LayerCount: 2
Fore
SplineSet
80 0 m 1,0,-1
 80 385 l 1,1,-1
 372 385 l 1,2,-1
 372 592 l 1,3,-1
 80 592 l 1,4,-1
 80 678 l 1,5,-1
 760 678 l 1,6,-1
 760 0 l 1,7,-1
 664 0 l 1,8,-1
 664 592 l 1,9,-1
 468 592 l 1,10,-1
 468 299 l 1,11,-1
 176 299 l 1,12,-1
 176 86 l 1,13,-1
 468 86 l 1,14,-1
 468 0 l 1,15,-1
 80 0 l 1,0,-1
EndSplineSet
Position2: "Single Positioning lookup 1 subtable" dx=296 dy=0 dh=296 dv=0
EndChar

StartChar: initialRa_zanb
Encoding: 72250 72250 83
Width: 840
GlyphClass: 2
Flags: W
HStem: 592 86<80 372 468 760>
VStem: 372 96<375 592>
AnchorPoint: "+BBEENQQ3BEsEPARPBD0EPQQ+BDUA--4" 420 435 basechar 0
AnchorPoint: "+BBEENQQ3BEsEPARPBD0EPQQ+BDUA--2" 80 678 basechar 0
AnchorPoint: "+BBEENQQ3BEsEPARPBD0EPQQ+BDUA--1" 760 678 basechar 0
AnchorPoint: "+BBEENQQ3BEsEPARPBD0EPQQ+BDUA--0" 420 778 basechar 0
LayerCount: 2
Fore
SplineSet
372 375 m 1,0,-1
 372 592 l 1,1,-1
 80 592 l 1,2,-1
 80 678 l 1,3,-1
 760 678 l 1,4,-1
 760 592 l 1,5,-1
 468 592 l 1,6,-1
 468 375 l 1,7,-1
 372 375 l 1,0,-1
EndSplineSet
MultipleSubs2: "+BBwEPQQ+BDYENQRBBEIEMgQ1BD0EPQQwBE8A +BD8EPgQ0BEEEQgQwBD0EPgQyBDoEMAAA lookup 1 subtable" initialRa_zanb subjoiner_zanb
Position2: "Single Positioning lookup 1 subtable" dx=296 dy=0 dh=296 dv=0
EndChar

StartChar: a_zanb.sub
Encoding: 1114127 -1 84
Width: 0
GlyphClass: 4
Flags: W
HStem: -801 86<-960 -762 -374 -176> -209 86<-666 -470>
VStem: -1056 96<-715 -123> -762 96<-715 -209> -470 96<-715 -209> -176 96<-715 -123>
AnchorPoint: "+BBEENQQ3BEsEPARPBD0EPQQ+BDUA--9" -420 -123 mark 0
AnchorPoint: "+BBEENQQ3BEsEPARPBD0EPQQ+BDUA--6" -420 -123 mark 0
AnchorPoint: "+BBEENQQ3BEsEPARPBD0EPQQ+BDUA--4" -420 -123 mark 0
LayerCount: 2
Fore
SplineSet
-1056 -801 m 1,0,-1
 -1056 -123 l 1,1,-1
 -960 -123 l 1,2,-1
 -960 -715 l 1,3,-1
 -762 -715 l 1,4,-1
 -762 -123 l 1,5,-1
 -374 -123 l 1,6,-1
 -374 -715 l 1,7,-1
 -176 -715 l 1,8,-1
 -176 -123 l 1,9,-1
 -80 -123 l 1,10,-1
 -80 -801 l 1,11,-1
 -470 -801 l 1,12,-1
 -470 -209 l 1,13,-1
 -666 -209 l 1,14,-1
 -666 -801 l 1,15,-1
 -1056 -801 l 1,0,-1
EndSplineSet
Ligature2: "'ccmp' +BBoEPgQ8BD8EPgQ3BDgERgQ4BE8A-/+BDQENQQ6BD4EPAQ/BD4ENwQ4BEYEOARP +BDMEOwQ4BEQEMAAA lookup 2 subtable" subjoiner_zanb a_zanb
EndChar

StartChar: ka_zanb.sub
Encoding: 1114128 -1 85
Width: 0
GlyphClass: 4
Flags: W
HStem: -801 86<-664 -468> -209 86<-760 -468 -372 -176>
VStem: -760 96<-715 -410> -468 96<-715 -209> -176 96<-801 -209>
CounterMasks: 1 38
AnchorPoint: "+BBEENQQ3BEsEPARPBD0EPQQ+BDUA--9" -420 -123 mark 0
AnchorPoint: "+BBEENQQ3BEsEPARPBD0EPQQ+BDUA--6" -420 -887 basemark 0
AnchorPoint: "+BBEENQQ3BEsEPARPBD0EPQQ+BDUA--6" -420 -123 mark 0
AnchorPoint: "+BBEENQQ3BEsEPARPBD0EPQQ+BDUA--4" -420 -123 mark 0
LayerCount: 2
Fore
SplineSet
-760 -801 m 1,0,-1
 -760 -410 l 1,1,-1
 -664 -410 l 1,2,-1
 -664 -715 l 1,3,-1
 -468 -715 l 1,4,-1
 -468 -209 l 1,5,-1
 -760 -209 l 1,6,-1
 -760 -123 l 1,7,-1
 -80 -123 l 1,8,-1
 -80 -801 l 1,9,-1
 -176 -801 l 1,10,-1
 -176 -209 l 1,11,-1
 -372 -209 l 1,12,-1
 -372 -801 l 1,13,-1
 -760 -801 l 1,0,-1
EndSplineSet
Substitution2: "+BBUENAQ4BD0EOARHBD0EMARP +BD8EPgQ0BEEEQgQwBD0EPgQyBDoEMAAA lookup 8 subtable" ka_zanb.short
Ligature2: "'ccmp' +BBoEPgQ8BD8EPgQ3BDgERgQ4BE8A-/+BDQENQQ6BD4EPAQ/BD4ENwQ4BEYEOARP +BDMEOwQ4BEQEMAAA lookup 2 subtable" subjoiner_zanb ka_zanb
EndChar

StartChar: kha_zanb.sub
Encoding: 1114129 -1 86
Width: 0
GlyphClass: 4
Flags: W
HStem: -801 86<-372 -176> -209 86<-664 -468 -372 -176>
VStem: -760 96<-801 -209> -468 96<-715 -209> -176 96<-715 -209>
CounterMasks: 1 38
AnchorPoint: "+BBEENQQ3BEsEPARPBD0EPQQ+BDUA--9" -420 -123 mark 0
AnchorPoint: "+BBEENQQ3BEsEPARPBD0EPQQ+BDUA--6" -420 -887 basemark 0
AnchorPoint: "+BBEENQQ3BEsEPARPBD0EPQQ+BDUA--6" -420 -123 mark 0
AnchorPoint: "+BBEENQQ3BEsEPARPBD0EPQQ+BDUA--4" -420 -123 mark 0
LayerCount: 2
Fore
SplineSet
-760 -801 m 1,0,-1
 -760 -123 l 1,1,-1
 -80 -123 l 1,2,-1
 -80 -801 l 1,3,-1
 -468 -801 l 1,4,-1
 -468 -209 l 1,5,-1
 -664 -209 l 1,6,-1
 -664 -801 l 1,7,-1
 -760 -801 l 1,0,-1
-372 -715 m 1,8,-1
 -176 -715 l 1,9,-1
 -176 -209 l 1,10,-1
 -372 -209 l 1,11,-1
 -372 -715 l 1,8,-1
EndSplineSet
Ligature2: "'ccmp' +BBoEPgQ8BD8EPgQ3BDgERgQ4BE8A-/+BDQENQQ6BD4EPAQ/BD4ENwQ4BEYEOARP +BDMEOwQ4BEQEMAAA lookup 2 subtable" subjoiner_zanb kha_zanb
EndChar

StartChar: ga_zanb.sub
Encoding: 1114130 -1 87
Width: 0
GlyphClass: 4
Flags: W
HStem: -801 86<-664 -468> -209 86<-664 -468 -372 -176>
VStem: -760 96<-715 -209> -468 96<-715 -209> -176 96<-801 -209>
CounterMasks: 1 38
AnchorPoint: "+BBEENQQ3BEsEPARPBD0EPQQ+BDUA--9" -420 -123 mark 0
AnchorPoint: "+BBEENQQ3BEsEPARPBD0EPQQ+BDUA--6" -420 -887 basemark 0
AnchorPoint: "+BBEENQQ3BEsEPARPBD0EPQQ+BDUA--6" -420 -123 mark 0
AnchorPoint: "+BBEENQQ3BEsEPARPBD0EPQQ+BDUA--4" -420 -123 mark 0
LayerCount: 2
Fore
SplineSet
-760 -801 m 1,0,-1
 -760 -123 l 1,1,-1
 -80 -123 l 1,2,-1
 -80 -801 l 1,3,-1
 -176 -801 l 1,4,-1
 -176 -209 l 1,5,-1
 -372 -209 l 1,6,-1
 -372 -801 l 1,7,-1
 -760 -801 l 1,0,-1
-664 -715 m 1,8,-1
 -468 -715 l 1,9,-1
 -468 -209 l 1,10,-1
 -664 -209 l 1,11,-1
 -664 -715 l 1,8,-1
EndSplineSet
Substitution2: "+BBUENAQ4BD0EOARHBD0EMARP +BD8EPgQ0BEEEQgQwBD0EPgQyBDoEMAAA lookup 8 subtable" ga_zanb.short
Ligature2: "'ccmp' +BBoEPgQ8BD8EPgQ3BDgERgQ4BE8A-/+BDQENQQ6BD4EPAQ/BD4ENwQ4BEYEOARP +BDMEOwQ4BEQEMAAA lookup 2 subtable" subjoiner_zanb ga_zanb
EndChar

StartChar: gha_zanb.sub
Encoding: 1114131 -1 88
Width: 0
GlyphClass: 4
Flags: W
HStem: -801 86<-664 -468> -501 86<-664 -468> -209 86<-760 -468 -372 -176>
VStem: -760 96<-715 -501> -468 96<-715 -501 -415 -209> -176 96<-801 -209>
CounterMasks: 1 1c
AnchorPoint: "+BBEENQQ3BEsEPARPBD0EPQQ+BDUA--9" -420 -123 mark 0
AnchorPoint: "+BBEENQQ3BEsEPARPBD0EPQQ+BDUA--6" -420 -887 basemark 0
AnchorPoint: "+BBEENQQ3BEsEPARPBD0EPQQ+BDUA--6" -420 -123 mark 0
AnchorPoint: "+BBEENQQ3BEsEPARPBD0EPQQ+BDUA--4" -420 -123 mark 0
LayerCount: 2
Fore
SplineSet
-760 -801 m 1,0,-1
 -760 -415 l 1,1,-1
 -468 -415 l 1,2,-1
 -468 -209 l 1,3,-1
 -760 -209 l 1,4,-1
 -760 -123 l 1,5,-1
 -80 -123 l 1,6,-1
 -80 -801 l 1,7,-1
 -176 -801 l 1,8,-1
 -176 -209 l 1,9,-1
 -372 -209 l 1,10,-1
 -372 -801 l 1,11,-1
 -760 -801 l 1,0,-1
-664 -715 m 1,12,-1
 -468 -715 l 1,13,-1
 -468 -501 l 1,14,-1
 -664 -501 l 1,15,-1
 -664 -715 l 1,12,-1
EndSplineSet
Ligature2: "'ccmp' +BBoEPgQ8BD8EPgQ3BDgERgQ4BE8A-/+BDQENQQ6BD4EPAQ/BD4ENwQ4BEYEOARP +BDMEOwQ4BEQEMAAA lookup 2 subtable" subjoiner_zanb gha_zanb
EndChar

StartChar: nga_zanb.sub
Encoding: 1114132 -1 89
Width: 0
GlyphClass: 4
Flags: W
HStem: -801 86<-664 -80> -501 86<-664 -177> -209 86<-760 -177>
VStem: -760 96<-715 -501> -177 96<-415 -209>
AnchorPoint: "+BBEENQQ3BEsEPARPBD0EPQQ+BDUA--9" -420 -123 mark 0
AnchorPoint: "+BBEENQQ3BEsEPARPBD0EPQQ+BDUA--6" -420 -887 basemark 0
AnchorPoint: "+BBEENQQ3BEsEPARPBD0EPQQ+BDUA--6" -420 -123 mark 0
AnchorPoint: "+BBEENQQ3BEsEPARPBD0EPQQ+BDUA--4" -420 -123 mark 0
LayerCount: 2
Fore
SplineSet
-760 -801 m 1,0,-1
 -760 -415 l 1,1,-1
 -177 -415 l 1,2,-1
 -177 -209 l 1,3,-1
 -760 -209 l 1,4,-1
 -760 -123 l 1,5,-1
 -81 -123 l 1,6,-1
 -81 -501 l 1,7,-1
 -664 -501 l 1,8,-1
 -664 -715 l 1,9,-1
 -80 -715 l 1,10,-1
 -80 -801 l 1,11,-1
 -760 -801 l 1,0,-1
EndSplineSet
Substitution2: "+BBUENAQ4BD0EOARHBD0EMARP +BD8EPgQ0BEEEQgQwBD0EPgQyBDoEMAAA lookup 8 subtable" nga_zanb.short
Ligature2: "'ccmp' +BBoEPgQ8BD8EPgQ3BDgERgQ4BE8A-/+BDQENQQ6BD4EPAQ/BD4ENwQ4BEYEOARP +BDMEOwQ4BEQEMAAA lookup 2 subtable" subjoiner_zanb nga_zanb
EndChar

StartChar: ca_zanb.sub
Encoding: 1114133 -1 90
Width: 0
GlyphClass: 4
Flags: W
HStem: -801 86<-760 -468 -372 -176> -209 86<-760 -468 -372 -176>
VStem: -468 96<-715 -209> -176 96<-715 -209>
AnchorPoint: "+BBEENQQ3BEsEPARPBD0EPQQ+BDUA--9" -420 -123 mark 0
AnchorPoint: "+BBEENQQ3BEsEPARPBD0EPQQ+BDUA--6" -420 -887 basemark 0
AnchorPoint: "+BBEENQQ3BEsEPARPBD0EPQQ+BDUA--6" -420 -123 mark 0
AnchorPoint: "+BBEENQQ3BEsEPARPBD0EPQQ+BDUA--4" -420 -123 mark 0
LayerCount: 2
Fore
SplineSet
-760 -801 m 1,0,-1
 -760 -715 l 1,1,-1
 -468 -715 l 1,2,-1
 -468 -209 l 1,3,-1
 -760 -209 l 1,4,-1
 -760 -123 l 1,5,-1
 -80 -123 l 1,6,-1
 -80 -801 l 1,7,-1
 -760 -801 l 1,0,-1
-372 -715 m 1,8,-1
 -176 -715 l 1,9,-1
 -176 -209 l 1,10,-1
 -372 -209 l 1,11,-1
 -372 -715 l 1,8,-1
EndSplineSet
Substitution2: "+BBUENAQ4BD0EOARHBD0EMARP +BD8EPgQ0BEEEQgQwBD0EPgQyBDoEMAAA lookup 8 subtable" ca_zanb.short
Ligature2: "'ccmp' +BBoEPgQ8BD8EPgQ3BDgERgQ4BE8A-/+BDQENQQ6BD4EPAQ/BD4ENwQ4BEYEOARP +BDMEOwQ4BEQEMAAA lookup 2 subtable" subjoiner_zanb ca_zanb
EndChar

StartChar: cha_zanb.sub
Encoding: 1114134 -1 91
Width: 0
GlyphClass: 4
Flags: W
HStem: -801 86<-664 -468 -372 -176> -209 86<-664 -468 -372 -176>
VStem: -760 96<-715 -209> -468 96<-715 -209> -176 96<-715 -209>
CounterMasks: 1 38
AnchorPoint: "+BBEENQQ3BEsEPARPBD0EPQQ+BDUA--9" -420 -123 mark 0
AnchorPoint: "+BBEENQQ3BEsEPARPBD0EPQQ+BDUA--6" -420 -887 basemark 0
AnchorPoint: "+BBEENQQ3BEsEPARPBD0EPQQ+BDUA--6" -420 -123 mark 0
AnchorPoint: "+BBEENQQ3BEsEPARPBD0EPQQ+BDUA--4" -420 -123 mark 0
LayerCount: 2
Fore
SplineSet
-760 -801 m 1,0,-1
 -760 -123 l 1,1,-1
 -80 -123 l 1,2,-1
 -80 -801 l 1,3,-1
 -760 -801 l 1,0,-1
-664 -715 m 1,4,-1
 -468 -715 l 1,5,-1
 -468 -209 l 1,6,-1
 -664 -209 l 1,7,-1
 -664 -715 l 1,4,-1
-372 -715 m 1,8,-1
 -176 -715 l 1,9,-1
 -176 -209 l 1,10,-1
 -372 -209 l 1,11,-1
 -372 -715 l 1,8,-1
EndSplineSet
Ligature2: "'ccmp' +BBoEPgQ8BD8EPgQ3BDgERgQ4BE8A-/+BDQENQQ6BD4EPAQ/BD4ENwQ4BEYEOARP +BDMEOwQ4BEQEMAAA lookup 2 subtable" subjoiner_zanb cha_zanb
EndChar

StartChar: ja_zanb.sub
Encoding: 1114135 -1 92
Width: 0
GlyphClass: 4
Flags: W
HStem: -801 86<-664 -80> -506 86<-664 -80> -209 86<-664 -80>
VStem: -760 96<-715 -506 -420 -209>
AnchorPoint: "+BBEENQQ3BEsEPARPBD0EPQQ+BDUA--9" -420 -123 mark 0
AnchorPoint: "+BBEENQQ3BEsEPARPBD0EPQQ+BDUA--6" -420 -887 basemark 0
AnchorPoint: "+BBEENQQ3BEsEPARPBD0EPQQ+BDUA--6" -420 -123 mark 0
AnchorPoint: "+BBEENQQ3BEsEPARPBD0EPQQ+BDUA--4" -420 -123 mark 0
LayerCount: 2
Fore
SplineSet
-760 -801 m 1,0,-1
 -760 -123 l 1,1,-1
 -80 -123 l 1,2,-1
 -80 -209 l 1,3,-1
 -664 -209 l 1,4,-1
 -664 -420 l 1,5,-1
 -80 -420 l 1,6,-1
 -80 -506 l 1,7,-1
 -664 -506 l 1,8,-1
 -664 -715 l 1,9,-1
 -80 -715 l 1,10,-1
 -80 -801 l 1,11,-1
 -760 -801 l 1,0,-1
EndSplineSet
Substitution2: "+BBUENAQ4BD0EOARHBD0EMARP +BD8EPgQ0BEEEQgQwBD0EPgQyBDoEMAAA lookup 8 subtable" ja_zanb.short
Ligature2: "'ccmp' +BBoEPgQ8BD8EPgQ3BDgERgQ4BE8A-/+BDQENQQ6BD4EPAQ/BD4ENwQ4BEYEOARP +BDMEOwQ4BEQEMAAA lookup 2 subtable" subjoiner_zanb ja_zanb
EndChar

StartChar: nya_zanb.sub
Encoding: 1114136 -1 93
Width: 0
GlyphClass: 4
Flags: W
HStem: -801 86<-664 -380> -506 86<-664 -176> -209 86<-760 -176>
VStem: -760 96<-715 -506> -176 96<-801 -506 -420 -209>
AnchorPoint: "+BBEENQQ3BEsEPARPBD0EPQQ+BDUA--9" -420 -123 mark 0
AnchorPoint: "+BBEENQQ3BEsEPARPBD0EPQQ+BDUA--6" -420 -887 basemark 0
AnchorPoint: "+BBEENQQ3BEsEPARPBD0EPQQ+BDUA--6" -420 -123 mark 0
AnchorPoint: "+BBEENQQ3BEsEPARPBD0EPQQ+BDUA--4" -420 -123 mark 0
LayerCount: 2
Fore
SplineSet
-760 -801 m 1,0,-1
 -760 -420 l 1,1,-1
 -176 -420 l 1,2,-1
 -176 -209 l 1,3,-1
 -760 -209 l 1,4,-1
 -760 -123 l 1,5,-1
 -80 -123 l 1,6,-1
 -80 -801 l 1,7,-1
 -176 -801 l 1,8,-1
 -176 -506 l 1,9,-1
 -664 -506 l 1,10,-1
 -664 -715 l 1,11,-1
 -380 -715 l 1,12,-1
 -380 -801 l 1,13,-1
 -760 -801 l 1,0,-1
EndSplineSet
Substitution2: "+BBUENAQ4BD0EOARHBD0EMARP +BD8EPgQ0BEEEQgQwBD0EPgQyBDoEMAAA lookup 8 subtable" nya_zanb.short
Ligature2: "'ccmp' +BBoEPgQ8BD8EPgQ3BDgERgQ4BE8A-/+BDQENQQ6BD4EPAQ/BD4ENwQ4BEYEOARP +BDMEOwQ4BEQEMAAA lookup 2 subtable" subjoiner_zanb nya_zanb
EndChar

StartChar: tta_zanb.sub
Encoding: 1114137 -1 94
Width: 0
GlyphClass: 4
Flags: W
HStem: -478 86<-664 -245> -209 86<-664 -80>
VStem: -760 96<-801 -478 -392 -209>
AnchorPoint: "+BBEENQQ3BEsEPARPBD0EPQQ+BDUA--9" -420 -123 mark 0
AnchorPoint: "+BBEENQQ3BEsEPARPBD0EPQQ+BDUA--6" -420 -887 basemark 0
AnchorPoint: "+BBEENQQ3BEsEPARPBD0EPQQ+BDUA--6" -420 -123 mark 0
AnchorPoint: "+BBEENQQ3BEsEPARPBD0EPQQ+BDUA--4" -420 -123 mark 0
LayerCount: 2
Fore
SplineSet
-760 -801 m 1,0,-1
 -760 -123 l 1,1,-1
 -80 -123 l 1,2,-1
 -80 -209 l 1,3,-1
 -664 -209 l 1,4,-1
 -664 -392 l 1,5,-1
 -80 -392 l 1,6,-1
 -335 -801 l 1,7,-1
 -446 -801 l 1,8,-1
 -245 -478 l 1,9,-1
 -664 -478 l 1,10,-1
 -664 -801 l 1,11,-1
 -760 -801 l 1,0,-1
EndSplineSet
Ligature2: "'ccmp' +BBoEPgQ8BD8EPgQ3BDgERgQ4BE8A-/+BDQENQQ6BD4EPAQ/BD4ENwQ4BEYEOARP +BDMEOwQ4BEQEMAAA lookup 2 subtable" subjoiner_zanb tta_zanb
EndChar

StartChar: ttha_zanb.sub
Encoding: 1114138 -1 95
Width: 0
GlyphClass: 4
Flags: W
HStem: -801 86<-594 -252> -209 86<-585 -251>
AnchorPoint: "+BBEENQQ3BEsEPARPBD0EPQQ+BDUA--9" -420 -123 mark 0
AnchorPoint: "+BBEENQQ3BEsEPARPBD0EPQQ+BDUA--6" -420 -887 basemark 0
AnchorPoint: "+BBEENQQ3BEsEPARPBD0EPQQ+BDUA--6" -420 -123 mark 0
AnchorPoint: "+BBEENQQ3BEsEPARPBD0EPQQ+BDUA--4" -420 -123 mark 0
LayerCount: 2
Fore
SplineSet
-760 -801 m 1,0,-1
 -760 -776 l 1,1,-1
 -478 -462 l 1,2,-1
 -760 -148 l 1,3,-1
 -760 -123 l 1,4,-1
 -80 -123 l 1,5,-1
 -80 -148 l 1,6,-1
 -364 -459 l 1,7,-1
 -80 -776 l 1,8,-1
 -80 -801 l 1,9,-1
 -760 -801 l 1,0,-1
-420 -396 m 1,10,-1
 -251 -209 l 1,11,-1
 -585 -209 l 1,12,-1
 -420 -396 l 1,10,-1
-594 -715 m 1,13,-1
 -252 -715 l 1,14,-1
 -420 -521 l 1,15,-1
 -594 -715 l 1,13,-1
EndSplineSet
Ligature2: "'ccmp' +BBoEPgQ8BD8EPgQ3BDgERgQ4BE8A-/+BDQENQQ6BD4EPAQ/BD4ENwQ4BEYEOARP +BDMEOwQ4BEQEMAAA lookup 2 subtable" subjoiner_zanb ttha_zanb
EndChar

StartChar: dda_zanb.sub
Encoding: 1114139 -1 96
Width: 0
GlyphClass: 4
Flags: W
HStem: -801 86<-760 -219> -209 86<-631 -80>
AnchorPoint: "+BBEENQQ3BEsEPARPBD0EPQQ+BDUA--9" -420 -123 mark 0
AnchorPoint: "+BBEENQQ3BEsEPARPBD0EPQQ+BDUA--6" -420 -887 basemark 0
AnchorPoint: "+BBEENQQ3BEsEPARPBD0EPQQ+BDUA--6" -420 -123 mark 0
AnchorPoint: "+BBEENQQ3BEsEPARPBD0EPQQ+BDUA--4" -420 -123 mark 0
LayerCount: 2
Fore
SplineSet
-760 -801 m 1,0,-1
 -760 -715 l 1,1,-1
 -219 -715 l 1,2,-1
 -760 -221 l 1,3,-1
 -760 -123 l 1,4,-1
 -80 -123 l 1,5,-1
 -80 -209 l 1,6,-1
 -631 -209 l 1,7,-1
 -80 -703 l 1,8,-1
 -80 -801 l 1,9,-1
 -760 -801 l 1,0,-1
EndSplineSet
Ligature2: "'ccmp' +BBoEPgQ8BD8EPgQ3BDgERgQ4BE8A-/+BDQENQQ6BD4EPAQ/BD4ENwQ4BEYEOARP +BDMEOwQ4BEQEMAAA lookup 2 subtable" subjoiner_zanb dda_zanb
EndChar

StartChar: ddha_zanb.sub
Encoding: 1114140 -1 97
Width: 0
GlyphClass: 4
Flags: W
HStem: -801 86<-760 -219> -209 86<-631 -176>
VStem: -176 96<-389 -209>
AnchorPoint: "+BBEENQQ3BEsEPARPBD0EPQQ+BDUA--9" -420 -123 mark 0
AnchorPoint: "+BBEENQQ3BEsEPARPBD0EPQQ+BDUA--6" -420 -887 basemark 0
AnchorPoint: "+BBEENQQ3BEsEPARPBD0EPQQ+BDUA--6" -420 -123 mark 0
AnchorPoint: "+BBEENQQ3BEsEPARPBD0EPQQ+BDUA--4" -420 -123 mark 0
LayerCount: 2
Fore
SplineSet
-176 -389 m 1,0,-1
 -176 -209 l 1,1,-1
 -631 -209 l 1,2,-1
 -80 -703 l 1,3,-1
 -80 -801 l 1,4,-1
 -760 -801 l 1,5,-1
 -760 -715 l 1,6,-1
 -219 -715 l 1,7,-1
 -760 -221 l 1,8,-1
 -760 -123 l 1,9,-1
 -80 -123 l 1,10,-1
 -80 -389 l 1,11,-1
 -176 -389 l 1,0,-1
EndSplineSet
Ligature2: "'ccmp' +BBoEPgQ8BD8EPgQ3BDgERgQ4BE8A-/+BDQENQQ6BD4EPAQ/BD4ENwQ4BEYEOARP +BDMEOwQ4BEQEMAAA lookup 2 subtable" subjoiner_zanb ddha_zanb
EndChar

StartChar: nna_zanb.sub
Encoding: 1114141 -1 98
Width: 0
GlyphClass: 4
Flags: W
HStem: -209 86<-760 -176>
VStem: -176 96<-715 -332 -239 -209>
AnchorPoint: "+BBEENQQ3BEsEPARPBD0EPQQ+BDUA--9" -420 -123 mark 0
AnchorPoint: "+BBEENQQ3BEsEPARPBD0EPQQ+BDUA--6" -420 -887 basemark 0
AnchorPoint: "+BBEENQQ3BEsEPARPBD0EPQQ+BDUA--6" -420 -123 mark 0
AnchorPoint: "+BBEENQQ3BEsEPARPBD0EPQQ+BDUA--4" -420 -123 mark 0
LayerCount: 2
Fore
SplineSet
-176 -821 m 1,0,-1
 -750 -532 l 1,1,-1
 -176 -239 l 1,2,-1
 -176 -209 l 1,3,-1
 -760 -209 l 1,4,-1
 -760 -123 l 1,5,-1
 -80 -123 l 1,6,-1
 -80 -778 l 1,7,-1
 -176 -821 l 1,0,-1
-176 -715 m 1,8,-1
 -176 -332 l 1,9,-1
 -555 -525 l 1,10,-1
 -176 -715 l 1,8,-1
EndSplineSet
Ligature2: "'ccmp' +BBoEPgQ8BD8EPgQ3BDgERgQ4BE8A-/+BDQENQQ6BD4EPAQ/BD4ENwQ4BEYEOARP +BDMEOwQ4BEQEMAAA lookup 2 subtable" subjoiner_zanb nna_zanb
EndChar

StartChar: ta_zanb.sub
Encoding: 1114142 -1 99
Width: 0
GlyphClass: 4
Flags: W
HStem: -478 86<-664 -176> -209 86<-664 -80>
VStem: -760 96<-801 -478 -392 -209> -176 96<-801 -478>
AnchorPoint: "+BBEENQQ3BEsEPARPBD0EPQQ+BDUA--9" -420 -123 mark 0
AnchorPoint: "+BBEENQQ3BEsEPARPBD0EPQQ+BDUA--6" -420 -887 basemark 0
AnchorPoint: "+BBEENQQ3BEsEPARPBD0EPQQ+BDUA--6" -420 -123 mark 0
AnchorPoint: "+BBEENQQ3BEsEPARPBD0EPQQ+BDUA--4" -420 -123 mark 0
LayerCount: 2
Fore
SplineSet
-760 -801 m 1,0,-1
 -760 -123 l 1,1,-1
 -80 -123 l 1,2,-1
 -80 -209 l 1,3,-1
 -664 -209 l 1,4,-1
 -664 -392 l 1,5,-1
 -80 -392 l 1,6,-1
 -80 -801 l 1,7,-1
 -176 -801 l 1,8,-1
 -176 -478 l 1,9,-1
 -664 -478 l 1,10,-1
 -664 -801 l 1,11,-1
 -760 -801 l 1,0,-1
EndSplineSet
Substitution2: "+BBUENAQ4BD0EOARHBD0EMARP +BD8EPgQ0BEEEQgQwBD0EPgQyBDoEMAAA lookup 8 subtable" ta_zanb.short
Ligature2: "'ccmp' +BBoEPgQ8BD8EPgQ3BDgERgQ4BE8A-/+BDQENQQ6BD4EPAQ/BD4ENwQ4BEYEOARP +BDMEOwQ4BEQEMAAA lookup 2 subtable" subjoiner_zanb ta_zanb
EndChar

StartChar: tha_zanb.sub
Encoding: 1114143 -1 100
Width: 0
GlyphClass: 4
Flags: W
HStem: -801 86<-664 -176> -505 86<-664 -176> -209 86<-664 -176>
VStem: -760 96<-715 -505 -419 -209> -176 96<-715 -505 -419 -209>
CounterMasks: 1 e0
AnchorPoint: "+BBEENQQ3BEsEPARPBD0EPQQ+BDUA--9" -420 -123 mark 0
AnchorPoint: "+BBEENQQ3BEsEPARPBD0EPQQ+BDUA--6" -420 -887 basemark 0
AnchorPoint: "+BBEENQQ3BEsEPARPBD0EPQQ+BDUA--6" -420 -123 mark 0
AnchorPoint: "+BBEENQQ3BEsEPARPBD0EPQQ+BDUA--4" -420 -123 mark 0
LayerCount: 2
Fore
SplineSet
-760 -801 m 1,0,-1
 -760 -123 l 1,1,-1
 -80 -123 l 1,2,-1
 -80 -801 l 1,3,-1
 -760 -801 l 1,0,-1
-664 -419 m 1,4,-1
 -176 -419 l 1,5,-1
 -176 -209 l 1,6,-1
 -664 -209 l 1,7,-1
 -664 -419 l 1,4,-1
-664 -715 m 1,8,-1
 -176 -715 l 1,9,-1
 -176 -505 l 1,10,-1
 -664 -505 l 1,11,-1
 -664 -715 l 1,8,-1
EndSplineSet
Ligature2: "'ccmp' +BBoEPgQ8BD8EPgQ3BDgERgQ4BE8A-/+BDQENQQ6BD4EPAQ/BD4ENwQ4BEYEOARP +BDMEOwQ4BEQEMAAA lookup 2 subtable" subjoiner_zanb tha_zanb
EndChar

StartChar: da_zanb.sub
Encoding: 1114144 -1 101
Width: 0
GlyphClass: 4
Flags: W
HStem: -801 86<-760 -176> -505 86<-664 -176> -209 86<-664 -80>
VStem: -760 96<-419 -209> -176 96<-715 -505>
CounterMasks: 1 e0
AnchorPoint: "+BBEENQQ3BEsEPARPBD0EPQQ+BDUA--9" -420 -123 mark 0
AnchorPoint: "+BBEENQQ3BEsEPARPBD0EPQQ+BDUA--6" -420 -887 basemark 0
AnchorPoint: "+BBEENQQ3BEsEPARPBD0EPQQ+BDUA--6" -420 -123 mark 0
AnchorPoint: "+BBEENQQ3BEsEPARPBD0EPQQ+BDUA--4" -420 -123 mark 0
LayerCount: 2
Fore
SplineSet
-760 -801 m 1,0,-1
 -760 -715 l 1,1,-1
 -176 -715 l 1,2,-1
 -176 -505 l 1,3,-1
 -760 -505 l 1,4,-1
 -760 -123 l 1,5,-1
 -80 -123 l 1,6,-1
 -80 -209 l 1,7,-1
 -664 -209 l 1,8,-1
 -664 -419 l 1,9,-1
 -80 -419 l 1,10,-1
 -80 -801 l 1,11,-1
 -760 -801 l 1,0,-1
EndSplineSet
Substitution2: "+BBUENAQ4BD0EOARHBD0EMARP +BD8EPgQ0BEEEQgQwBD0EPgQyBDoEMAAA lookup 8 subtable" da_zanb.short
Ligature2: "'ccmp' +BBoEPgQ8BD8EPgQ3BDgERgQ4BE8A-/+BDQENQQ6BD4EPAQ/BD4ENwQ4BEYEOARP +BDMEOwQ4BEQEMAAA lookup 2 subtable" subjoiner_zanb da_zanb
EndChar

StartChar: dha_zanb.sub
Encoding: 1114145 -1 102
Width: 0
GlyphClass: 4
Flags: W
HStem: -801 15<-119.772 -80> -469 86<-664 -289 -183.159 -80> -209 86<-664 -80>
VStem: -760 96<-801 -469 -383 -209> -429 106<-695.162 -569.882>
AnchorPoint: "+BBEENQQ3BEsEPARPBD0EPQQ+BDUA--9" -420 -123 mark 0
AnchorPoint: "+BBEENQQ3BEsEPARPBD0EPQQ+BDUA--6" -420 -887 basemark 0
AnchorPoint: "+BBEENQQ3BEsEPARPBD0EPQQ+BDUA--6" -420 -123 mark 0
AnchorPoint: "+BBEENQQ3BEsEPARPBD0EPQQ+BDUA--4" -420 -123 mark 0
LayerCount: 2
Fore
SplineSet
-760 -801 m 1,0,-1
 -760 -123 l 1,1,-1
 -80 -123 l 1,2,-1
 -80 -209 l 1,3,-1
 -664 -209 l 1,4,-1
 -664 -383 l 1,5,-1
 -80 -383 l 1,6,-1
 -80 -469 l 1,7,8
 -123 -472 -123 -472 -166 -485 c 128,-1,9
 -209 -498 -209 -498 -244.5 -519.5 c 128,-1,10
 -280 -541 -280 -541 -301.5 -570 c 128,-1,11
 -323 -599 -323 -599 -323 -635 c 0,12,13
 -323 -669 -323 -669 -302 -694.5 c 128,-1,14
 -281 -720 -281 -720 -246 -738 c 128,-1,15
 -211 -756 -211 -756 -167.5 -767.5 c 128,-1,16
 -124 -779 -124 -779 -80 -786 c 1,17,-1
 -80 -801 l 1,18,-1
 -309 -801 l 1,19,20
 -339 -786 -339 -786 -366.5 -763.5 c 128,-1,21
 -394 -741 -394 -741 -411.5 -710 c 128,-1,22
 -429 -679 -429 -679 -429 -640 c 0,23,24
 -429 -595 -429 -595 -408 -562.5 c 128,-1,25
 -387 -530 -387 -530 -354.5 -508 c 128,-1,26
 -322 -486 -322 -486 -289 -474 c 1,27,-1
 -289 -469 l 1,28,-1
 -664 -469 l 1,29,-1
 -664 -801 l 1,30,-1
 -760 -801 l 1,0,-1
EndSplineSet
Ligature2: "'ccmp' +BBoEPgQ8BD8EPgQ3BDgERgQ4BE8A-/+BDQENQQ6BD4EPAQ/BD4ENwQ4BEYEOARP +BDMEOwQ4BEQEMAAA lookup 2 subtable" subjoiner_zanb dha_zanb
EndChar

StartChar: na_zanb.sub
Encoding: 1114146 -1 103
Width: 0
GlyphClass: 4
Flags: W
HStem: -801 86<-664 -468> -519 86<-664 -468 -372 -176> -209 86<-760 -176>
VStem: -760 96<-715 -519> -468 96<-715 -519> -176 96<-801 -519 -433 -209>
CounterMasks: 1 1c
AnchorPoint: "+BBEENQQ3BEsEPARPBD0EPQQ+BDUA--9" -420 -123 mark 0
AnchorPoint: "+BBEENQQ3BEsEPARPBD0EPQQ+BDUA--6" -420 -887 basemark 0
AnchorPoint: "+BBEENQQ3BEsEPARPBD0EPQQ+BDUA--6" -420 -123 mark 0
AnchorPoint: "+BBEENQQ3BEsEPARPBD0EPQQ+BDUA--4" -420 -123 mark 0
LayerCount: 2
Fore
SplineSet
-760 -801 m 1,0,-1
 -760 -433 l 1,1,-1
 -176 -433 l 1,2,-1
 -176 -209 l 1,3,-1
 -760 -209 l 1,4,-1
 -760 -123 l 1,5,-1
 -80 -123 l 1,6,-1
 -80 -801 l 1,7,-1
 -176 -801 l 1,8,-1
 -176 -519 l 1,9,-1
 -372 -519 l 1,10,-1
 -372 -801 l 1,11,-1
 -760 -801 l 1,0,-1
-664 -715 m 1,12,-1
 -468 -715 l 1,13,-1
 -468 -519 l 1,14,-1
 -664 -519 l 1,15,-1
 -664 -715 l 1,12,-1
EndSplineSet
Substitution2: "+BBUENAQ4BD0EOARHBD0EMARP +BD8EPgQ0BEEEQgQwBD0EPgQyBDoEMAAA lookup 8 subtable" na_zanb.short
Ligature2: "'ccmp' +BBoEPgQ8BD8EPgQ3BDgERgQ4BE8A-/+BDQENQQ6BD4EPAQ/BD4ENwQ4BEYEOARP +BDMEOwQ4BEQEMAAA lookup 2 subtable" subjoiner_zanb na_zanb
EndChar

StartChar: pa_zanb.sub
Encoding: 1114147 -1 104
Width: 0
GlyphClass: 4
Flags: W
HStem: -801 86<-664 -176>
VStem: -760 96<-715 -123> -176 96<-715 -123>
AnchorPoint: "+BBEENQQ3BEsEPARPBD0EPQQ+BDUA--9" -420 -123 mark 0
AnchorPoint: "+BBEENQQ3BEsEPARPBD0EPQQ+BDUA--6" -420 -887 basemark 0
AnchorPoint: "+BBEENQQ3BEsEPARPBD0EPQQ+BDUA--6" -420 -123 mark 0
AnchorPoint: "+BBEENQQ3BEsEPARPBD0EPQQ+BDUA--4" -420 -123 mark 0
LayerCount: 2
Fore
SplineSet
-760 -801 m 1,0,-1
 -760 -123 l 1,1,-1
 -664 -123 l 1,2,-1
 -664 -715 l 1,3,-1
 -176 -715 l 1,4,-1
 -176 -123 l 1,5,-1
 -80 -123 l 1,6,-1
 -80 -801 l 1,7,-1
 -760 -801 l 1,0,-1
EndSplineSet
Substitution2: "+BBUENAQ4BD0EOARHBD0EMARP +BD8EPgQ0BEEEQgQwBD0EPgQyBDoEMAAA lookup 8 subtable" pa_zanb.short
Ligature2: "'ccmp' +BBoEPgQ8BD8EPgQ3BDgERgQ4BE8A-/+BDQENQQ6BD4EPAQ/BD4ENwQ4BEYEOARP +BDMEOwQ4BEQEMAAA lookup 2 subtable" subjoiner_zanb pa_zanb
EndChar

StartChar: pha_zanb.sub
Encoding: 1114148 -1 105
Width: 0
GlyphClass: 4
Flags: W
HStem: -801 86<-664 -468 -372 -176> -209 86<-372 -176>
VStem: -760 96<-715 -123> -468 96<-715 -209> -176 96<-715 -209>
CounterMasks: 1 38
AnchorPoint: "+BBEENQQ3BEsEPARPBD0EPQQ+BDUA--9" -420 -123 mark 0
AnchorPoint: "+BBEENQQ3BEsEPARPBD0EPQQ+BDUA--6" -420 -887 basemark 0
AnchorPoint: "+BBEENQQ3BEsEPARPBD0EPQQ+BDUA--6" -420 -123 mark 0
AnchorPoint: "+BBEENQQ3BEsEPARPBD0EPQQ+BDUA--4" -420 -123 mark 0
LayerCount: 2
Fore
SplineSet
-760 -801 m 1,0,-1
 -760 -123 l 1,1,-1
 -664 -123 l 1,2,-1
 -664 -715 l 1,3,-1
 -468 -715 l 1,4,-1
 -468 -123 l 1,5,-1
 -80 -123 l 1,6,-1
 -80 -801 l 1,7,-1
 -760 -801 l 1,0,-1
-372 -715 m 1,8,-1
 -176 -715 l 1,9,-1
 -176 -209 l 1,10,-1
 -372 -209 l 1,11,-1
 -372 -715 l 1,8,-1
EndSplineSet
Ligature2: "'ccmp' +BBoEPgQ8BD8EPgQ3BDgERgQ4BE8A-/+BDQENQQ6BD4EPAQ/BD4ENwQ4BEYEOARP +BDMEOwQ4BEQEMAAA lookup 2 subtable" subjoiner_zanb pha_zanb
EndChar

StartChar: ba_zanb.sub
Encoding: 1114149 -1 106
Width: 0
GlyphClass: 4
Flags: W
HStem: -801 86<-664 -176> -209 86<-664 -176>
VStem: -760 96<-715 -209> -176 96<-715 -209>
AnchorPoint: "+BBEENQQ3BEsEPARPBD0EPQQ+BDUA--9" -420 -123 mark 0
AnchorPoint: "+BBEENQQ3BEsEPARPBD0EPQQ+BDUA--6" -420 -887 basemark 0
AnchorPoint: "+BBEENQQ3BEsEPARPBD0EPQQ+BDUA--6" -420 -123 mark 0
AnchorPoint: "+BBEENQQ3BEsEPARPBD0EPQQ+BDUA--4" -420 -123 mark 0
LayerCount: 2
Fore
SplineSet
-760 -801 m 1,0,-1
 -760 -123 l 1,1,-1
 -80 -123 l 1,2,-1
 -80 -801 l 1,3,-1
 -760 -801 l 1,0,-1
-664 -715 m 1,4,-1
 -176 -715 l 1,5,-1
 -176 -209 l 1,6,-1
 -664 -209 l 1,7,-1
 -664 -715 l 1,4,-1
EndSplineSet
Substitution2: "+BBUENAQ4BD0EOARHBD0EMARP +BD8EPgQ0BEEEQgQwBD0EPgQyBDoEMAAA lookup 8 subtable" ba_zanb.short
Ligature2: "'ccmp' +BBoEPgQ8BD8EPgQ3BDgERgQ4BE8A-/+BDQENQQ6BD4EPAQ/BD4ENwQ4BEYEOARP +BDMEOwQ4BEQEMAAA lookup 2 subtable" subjoiner_zanb ba_zanb
EndChar

StartChar: bha_zanb.sub
Encoding: 1114150 -1 107
Width: 0
GlyphClass: 4
Flags: W
HStem: -801 86<-588 -176> -209 86<-589 -176>
VStem: -589 110<-566.515 -346.742> -176 96<-715 -209>
AnchorPoint: "+BBEENQQ3BEsEPARPBD0EPQQ+BDUA--9" -420 -123 mark 0
AnchorPoint: "+BBEENQQ3BEsEPARPBD0EPQQ+BDUA--6" -420 -887 basemark 0
AnchorPoint: "+BBEENQQ3BEsEPARPBD0EPQQ+BDUA--6" -420 -123 mark 0
AnchorPoint: "+BBEENQQ3BEsEPARPBD0EPQQ+BDUA--4" -420 -123 mark 0
LayerCount: 2
Fore
SplineSet
-760 -801 m 1,0,-1
 -760 -791 l 1,1,2
 -673 -696 -673 -696 -631 -613.5 c 128,-1,3
 -589 -531 -589 -531 -589 -447 c 0,4,5
 -589 -370 -589 -370 -634 -294.5 c 128,-1,6
 -679 -219 -679 -219 -760 -133 c 1,7,-1
 -760 -123 l 1,8,-1
 -80 -123 l 1,9,-1
 -80 -801 l 1,10,-1
 -760 -801 l 1,0,-1
-588 -715 m 1,11,-1
 -176 -715 l 1,12,-1
 -176 -209 l 1,13,-1
 -589 -212 l 1,14,-1
 -589 -215 l 1,15,16
 -577 -228 -577 -228 -558.5 -251 c 128,-1,17
 -540 -274 -540 -274 -522 -304.5 c 128,-1,18
 -504 -335 -504 -335 -491.5 -371 c 128,-1,19
 -479 -407 -479 -407 -479 -448 c 0,20,21
 -479 -530 -479 -530 -510.5 -595.5 c 128,-1,22
 -542 -661 -542 -661 -588 -713 c 1,23,-1
 -588 -715 l 1,11,-1
EndSplineSet
Ligature2: "'ccmp' +BBoEPgQ8BD8EPgQ3BDgERgQ4BE8A-/+BDQENQQ6BD4EPAQ/BD4ENwQ4BEYEOARP +BDMEOwQ4BEQEMAAA lookup 2 subtable" subjoiner_zanb bha_zanb
EndChar

StartChar: ma_zanb.sub
Encoding: 1114151 -1 108
Width: 0
GlyphClass: 4
Flags: W
HStem: -801 86<-664 -468 -372 -176> -209 86<-664 -468>
VStem: -760 96<-715 -209> -468 96<-715 -209> -176 96<-715 -123>
CounterMasks: 1 38
AnchorPoint: "+BBEENQQ3BEsEPARPBD0EPQQ+BDUA--9" -420 -123 mark 0
AnchorPoint: "+BBEENQQ3BEsEPARPBD0EPQQ+BDUA--6" -420 -887 basemark 0
AnchorPoint: "+BBEENQQ3BEsEPARPBD0EPQQ+BDUA--6" -420 -123 mark 0
AnchorPoint: "+BBEENQQ3BEsEPARPBD0EPQQ+BDUA--4" -420 -123 mark 0
LayerCount: 2
Fore
SplineSet
-760 -801 m 1,0,-1
 -760 -123 l 1,1,-1
 -372 -123 l 1,2,-1
 -372 -715 l 1,3,-1
 -176 -715 l 1,4,-1
 -176 -123 l 1,5,-1
 -80 -123 l 1,6,-1
 -80 -801 l 1,7,-1
 -760 -801 l 1,0,-1
-664 -715 m 1,8,-1
 -468 -715 l 1,9,-1
 -468 -209 l 1,10,-1
 -664 -209 l 1,11,-1
 -664 -715 l 1,8,-1
EndSplineSet
Substitution2: "+BBUENAQ4BD0EOARHBD0EMARP +BD8EPgQ0BEEEQgQwBD0EPgQyBDoEMAAA lookup 8 subtable" ma_zanb.short
Ligature2: "'ccmp' +BBoEPgQ8BD8EPgQ3BDgERgQ4BE8A-/+BDQENQQ6BD4EPAQ/BD4ENwQ4BEYEOARP +BDMEOwQ4BEQEMAAA lookup 2 subtable" subjoiner_zanb ma_zanb
EndChar

StartChar: tsa_zanb.sub
Encoding: 1114152 -1 109
Width: 0
GlyphClass: 4
Flags: W
HStem: -801 86<-760 -468 -372 -176> -209 86<-760 -468 -372 -176>
VStem: -468 96<-715 -209> -176 96<-715 -209>
AnchorPoint: "+BBEENQQ3BEsEPARPBD0EPQQ+BDUA--9" -420 -123 mark 0
AnchorPoint: "+BBEENQQ3BEsEPARPBD0EPQQ+BDUA--7" -176 -801 basemark 0
AnchorPoint: "+BBEENQQ3BEsEPARPBD0EPQQ+BDUA--6" -420 -887 basemark 0
AnchorPoint: "+BBEENQQ3BEsEPARPBD0EPQQ+BDUA--6" -420 -123 mark 0
AnchorPoint: "+BBEENQQ3BEsEPARPBD0EPQQ+BDUA--4" -420 -123 mark 0
LayerCount: 2
Fore
SplineSet
86 -168 m 1,0,1
 61 -157 61 -157 42.5 -147 c 128,-1,2
 24 -137 24 -137 6.5 -124.5 c 128,-1,3
 -11 -112 -11 -112 -35 -93 c 1,4,5
 -50 -103 -50 -103 -59.5 -109.5 c 128,-1,6
 -69 -116 -69 -116 -80 -123 c 1,7,-1
 -80 -801 l 1,8,-1
 -760 -801 l 1,9,-1
 -760 -715 l 1,10,-1
 -468 -715 l 1,11,-1
 -468 -209 l 1,12,-1
 -760 -209 l 1,13,-1
 -760 -123 l 1,14,-1
 -170 -123 l 1,15,16
 -106 -88 -106 -88 -62 -56 c 128,-1,17
 -18 -24 -18 -24 21 7 c 1,18,19
 40 -8 40 -8 57 -20 c 128,-1,20
 74 -32 74 -32 93 -42 c 0,21,22
 113 -52 113 -52 126 -58 c 128,-1,23
 139 -64 139 -64 159 -71 c 1,24,25
 147 -107 147 -107 128.5 -130.5 c 128,-1,26
 110 -154 110 -154 86 -168 c 1,0,1
-372 -715 m 1,27,-1
 -176 -715 l 1,28,-1
 -176 -209 l 1,29,-1
 -372 -209 l 1,30,-1
 -372 -715 l 1,27,-1
EndSplineSet
Substitution2: "+BBUENAQ4BD0EOARHBD0EMARP +BD8EPgQ0BEEEQgQwBD0EPgQyBDoEMAAA lookup 8 subtable" tsa_zanb.short
Ligature2: "'ccmp' +BBoEPgQ8BD8EPgQ3BDgERgQ4BE8A-/+BDQENQQ6BD4EPAQ/BD4ENwQ4BEYEOARP +BDMEOwQ4BEQEMAAA lookup 2 subtable" subjoiner_zanb tsa_zanb
EndChar

StartChar: tsha_zanb.sub
Encoding: 1114153 -1 110
Width: 0
GlyphClass: 4
Flags: W
HStem: -801 86<-664 -468 -372 -176> -209 86<-664 -468 -372 -176>
VStem: -760 96<-715 -209> -468 96<-715 -209> -176 96<-715 -209>
CounterMasks: 1 38
AnchorPoint: "+BBEENQQ3BEsEPARPBD0EPQQ+BDUA--9" -420 -123 mark 0
AnchorPoint: "+BBEENQQ3BEsEPARPBD0EPQQ+BDUA--7" -176 -801 basemark 0
AnchorPoint: "+BBEENQQ3BEsEPARPBD0EPQQ+BDUA--6" -420 -887 basemark 0
AnchorPoint: "+BBEENQQ3BEsEPARPBD0EPQQ+BDUA--6" -420 -123 mark 0
AnchorPoint: "+BBEENQQ3BEsEPARPBD0EPQQ+BDUA--4" -420 -123 mark 0
LayerCount: 2
Fore
SplineSet
86 -168 m 1,0,1
 61 -157 61 -157 42.5 -147 c 128,-1,2
 24 -137 24 -137 6.5 -124.5 c 128,-1,3
 -11 -112 -11 -112 -35 -93 c 1,4,5
 -50 -103 -50 -103 -59.5 -109.5 c 128,-1,6
 -69 -116 -69 -116 -80 -123 c 1,7,-1
 -80 -801 l 1,8,-1
 -760 -801 l 1,9,-1
 -760 -123 l 1,10,-1
 -170 -123 l 1,11,12
 -106 -88 -106 -88 -62 -56 c 128,-1,13
 -18 -24 -18 -24 21 7 c 1,14,15
 40 -8 40 -8 57 -20 c 128,-1,16
 74 -32 74 -32 93 -42 c 0,17,18
 113 -52 113 -52 126 -58 c 128,-1,19
 139 -64 139 -64 159 -71 c 1,20,21
 147 -107 147 -107 128.5 -130.5 c 128,-1,22
 110 -154 110 -154 86 -168 c 1,0,1
-664 -715 m 1,23,-1
 -468 -715 l 1,24,-1
 -468 -209 l 1,25,-1
 -664 -209 l 1,26,-1
 -664 -715 l 1,23,-1
-372 -715 m 1,27,-1
 -176 -715 l 1,28,-1
 -176 -209 l 1,29,-1
 -372 -209 l 1,30,-1
 -372 -715 l 1,27,-1
EndSplineSet
Ligature2: "'ccmp' +BBoEPgQ8BD8EPgQ3BDgERgQ4BE8A-/+BDQENQQ6BD4EPAQ/BD4ENwQ4BEYEOARP +BDMEOwQ4BEQEMAAA lookup 2 subtable" subjoiner_zanb tsha_zanb
EndChar

StartChar: dza_zanb.sub
Encoding: 1114154 -1 111
Width: 0
GlyphClass: 4
Flags: W
HStem: -801 86<-664 -80> -505 86<-664 -80> -209 86<-664 -138.953>
VStem: -760 96<-715 -505 -419 -209>
CounterMasks: 1 e0
AnchorPoint: "+BBEENQQ3BEsEPARPBD0EPQQ+BDUA--9" -420 -123 mark 0
AnchorPoint: "+BBEENQQ3BEsEPARPBD0EPQQ+BDUA--7" -159 -801 basemark 0
AnchorPoint: "+BBEENQQ3BEsEPARPBD0EPQQ+BDUA--6" -420 -887 basemark 0
AnchorPoint: "+BBEENQQ3BEsEPARPBD0EPQQ+BDUA--6" -420 -123 mark 0
AnchorPoint: "+BBEENQQ3BEsEPARPBD0EPQQ+BDUA--4" -420 -123 mark 0
LayerCount: 2
Fore
SplineSet
79 -168 m 1,0,1
 54 -157 54 -157 35.5 -147 c 128,-1,2
 17 -137 17 -137 -0.5 -124.5 c 128,-1,3
 -18 -112 -18 -112 -42 -93 c 1,4,5
 -63 -107 -63 -107 -74.5 -114.5 c 128,-1,6
 -86 -122 -86 -122 -107 -136 c 1,7,-1
 -107 -209 l 1,8,-1
 -664 -209 l 1,9,-1
 -664 -419 l 1,10,-1
 -80 -419 l 1,11,-1
 -80 -505 l 1,12,-1
 -664 -505 l 1,13,-1
 -664 -715 l 1,14,-1
 -80 -715 l 1,15,-1
 -80 -801 l 1,16,-1
 -760 -801 l 1,17,-1
 -760 -123 l 1,18,-1
 -177 -123 l 1,19,20
 -113 -88 -113 -88 -69 -56 c 128,-1,21
 -25 -24 -25 -24 14 7 c 1,22,23
 33 -8 33 -8 50 -20 c 128,-1,24
 67 -32 67 -32 86 -42 c 0,25,26
 106 -52 106 -52 119 -58 c 128,-1,27
 132 -64 132 -64 152 -71 c 1,28,29
 140 -107 140 -107 121.5 -130.5 c 128,-1,30
 103 -154 103 -154 79 -168 c 1,0,1
EndSplineSet
Substitution2: "+BBUENAQ4BD0EOARHBD0EMARP +BD8EPgQ0BEEEQgQwBD0EPgQyBDoEMAAA lookup 8 subtable" dza_zanb.short
Ligature2: "'ccmp' +BBoEPgQ8BD8EPgQ3BDgERgQ4BE8A-/+BDQENQQ6BD4EPAQ/BD4ENwQ4BEYEOARP +BDMEOwQ4BEQEMAAA lookup 2 subtable" subjoiner_zanb dza_zanb
EndChar

StartChar: dzha_zanb.sub
Encoding: 1114155 -1 112
Width: 0
GlyphClass: 4
Flags: W
HStem: -801 86<-664 -80> -638 90<-301.103 -177.443> -505 86<-664 -407.59> -381 90<-301.903 -175.039> -209 86<-664 -138.953>
VStem: -760 96<-715 -505 -419 -209>
AnchorPoint: "+BBEENQQ3BEsEPARPBD0EPQQ+BDUA--9" -420 -123 mark 0
AnchorPoint: "+BBEENQQ3BEsEPARPBD0EPQQ+BDUA--7" -173 -801 basemark 0
AnchorPoint: "+BBEENQQ3BEsEPARPBD0EPQQ+BDUA--6" -420 -887 basemark 0
AnchorPoint: "+BBEENQQ3BEsEPARPBD0EPQQ+BDUA--6" -420 -123 mark 0
AnchorPoint: "+BBEENQQ3BEsEPARPBD0EPQQ+BDUA--4" -420 -123 mark 0
LayerCount: 2
Fore
SplineSet
79 -168 m 1,0,1
 54 -157 54 -157 35.5 -147 c 128,-1,2
 17 -137 17 -137 -0.5 -124.5 c 128,-1,3
 -18 -112 -18 -112 -42 -93 c 1,4,5
 -63 -107 -63 -107 -74.5 -114.5 c 128,-1,6
 -86 -122 -86 -122 -107 -136 c 1,7,-1
 -107 -209 l 1,8,-1
 -664 -209 l 1,9,-1
 -664 -419 l 1,10,-1
 -413 -419 l 1,11,12
 -398 -364 -398 -364 -351.5 -327.5 c 128,-1,13
 -305 -291 -305 -291 -245 -291 c 0,14,15
 -206 -291 -206 -291 -172.5 -307 c 128,-1,16
 -139 -323 -139 -323 -115 -351 c 1,17,-1
 -183 -409 l 1,18,19
 -194 -396 -194 -396 -210 -388.5 c 128,-1,20
 -226 -381 -226 -381 -245 -381 c 0,21,22
 -280 -381 -280 -381 -304.5 -405 c 128,-1,23
 -329 -429 -329 -429 -329 -464 c 256,24,25
 -329 -499 -329 -499 -304.5 -523.5 c 128,-1,26
 -280 -548 -280 -548 -245 -548 c 0,27,28
 -214 -548 -214 -548 -192 -529 c 1,29,-1
 -125 -589 l 1,30,31
 -148 -611 -148 -611 -179 -624.5 c 128,-1,32
 -210 -638 -210 -638 -245 -638 c 0,33,34
 -306 -638 -306 -638 -353 -600 c 128,-1,35
 -400 -562 -400 -562 -414 -505 c 1,36,-1
 -664 -505 l 1,37,-1
 -664 -715 l 1,38,-1
 -80 -715 l 1,39,-1
 -80 -801 l 1,40,-1
 -760 -801 l 1,41,-1
 -760 -123 l 1,42,-1
 -177 -123 l 1,43,44
 -113 -88 -113 -88 -69 -56 c 128,-1,45
 -25 -24 -25 -24 14 7 c 1,46,47
 33 -8 33 -8 50 -20 c 128,-1,48
 67 -32 67 -32 86 -42 c 0,49,50
 106 -52 106 -52 119 -58 c 128,-1,51
 132 -64 132 -64 152 -71 c 1,52,53
 140 -107 140 -107 121.5 -130.5 c 128,-1,54
 103 -154 103 -154 79 -168 c 1,0,1
EndSplineSet
Ligature2: "'ccmp' +BBoEPgQ8BD8EPgQ3BDgERgQ4BE8A-/+BDQENQQ6BD4EPAQ/BD4ENwQ4BEYEOARP +BDMEOwQ4BEQEMAAA lookup 2 subtable" subjoiner_zanb dzha_zanb
EndChar

StartChar: zha_zanb.sub
Encoding: 1114156 -1 113
Width: 0
GlyphClass: 4
Flags: W
HStem: -801 86<-360.53 -176> -484 86<-359.918 -176> -209 86<-664 -176>
VStem: -760 96<-801 -209> -517 96<-664.967 -537.71> -176 96<-715 -484 -398 -209>
AnchorPoint: "+BBEENQQ3BEsEPARPBD0EPQQ+BDUA--9" -420 -123 mark 0
AnchorPoint: "+BBEENQQ3BEsEPARPBD0EPQQ+BDUA--6" -420 -887 basemark 0
AnchorPoint: "+BBEENQQ3BEsEPARPBD0EPQQ+BDUA--6" -420 -123 mark 0
AnchorPoint: "+BBEENQQ3BEsEPARPBD0EPQQ+BDUA--4" -420 -123 mark 0
LayerCount: 2
Fore
SplineSet
-760 -801 m 1,0,-1
 -760 -123 l 1,1,-1
 -80 -123 l 1,2,-1
 -80 -801 l 1,3,-1
 -244 -801 l 2,4,5
 -381 -801 -381 -801 -449 -753.5 c 128,-1,6
 -517 -706 -517 -706 -517 -604 c 0,7,8
 -517 -498 -517 -498 -449 -448 c 128,-1,9
 -381 -398 -381 -398 -244 -398 c 2,10,-1
 -176 -398 l 1,11,-1
 -176 -209 l 1,12,-1
 -664 -209 l 1,13,-1
 -664 -801 l 1,14,-1
 -760 -801 l 1,0,-1
-244 -715 m 2,15,-1
 -176 -715 l 1,16,-1
 -176 -484 l 1,17,-1
 -244 -484 l 2,18,19
 -332 -484 -332 -484 -376.5 -515.5 c 128,-1,20
 -421 -547 -421 -547 -421 -604 c 0,21,22
 -421 -656 -421 -656 -376.5 -685.5 c 128,-1,23
 -332 -715 -332 -715 -244 -715 c 2,15,-1
EndSplineSet
Ligature2: "'ccmp' +BBoEPgQ8BD8EPgQ3BDgERgQ4BE8A-/+BDQENQQ6BD4EPAQ/BD4ENwQ4BEYEOARP +BDMEOwQ4BEQEMAAA lookup 2 subtable" subjoiner_zanb zha_zanb
EndChar

StartChar: za_zanb.sub
Encoding: 1114157 -1 114
Width: 0
GlyphClass: 4
Flags: W
HStem: -801 86<-760 -177> -505 86<-760 -177> -209 86<-760 -177>
VStem: -177 97<-715 -505 -419 -209>
CounterMasks: 1 e0
AnchorPoint: "+BBEENQQ3BEsEPARPBD0EPQQ+BDUA--9" -420 -123 mark 0
AnchorPoint: "+BBEENQQ3BEsEPARPBD0EPQQ+BDUA--6" -420 -887 basemark 0
AnchorPoint: "+BBEENQQ3BEsEPARPBD0EPQQ+BDUA--6" -420 -123 mark 0
AnchorPoint: "+BBEENQQ3BEsEPARPBD0EPQQ+BDUA--4" -420 -123 mark 0
LayerCount: 2
Fore
SplineSet
-760 -801 m 1,0,-1
 -760 -715 l 1,1,-1
 -177 -715 l 1,2,-1
 -177 -505 l 1,3,-1
 -760 -505 l 1,4,-1
 -760 -419 l 1,5,-1
 -177 -419 l 1,6,-1
 -177 -209 l 1,7,-1
 -760 -209 l 1,8,-1
 -760 -123 l 1,9,-1
 -80 -123 l 1,10,-1
 -80 -801 l 1,11,-1
 -760 -801 l 1,0,-1
EndSplineSet
Ligature2: "'ccmp' +BBoEPgQ8BD8EPgQ3BDgERgQ4BE8A-/+BDQENQQ6BD4EPAQ/BD4ENwQ4BEYEOARP +BDMEOwQ4BEQEMAAA lookup 2 subtable" subjoiner_zanb za_zanb
EndChar

StartChar: aa_zanb.sub
Encoding: 1114158 -1 115
Width: 0
GlyphClass: 4
Flags: W
HStem: -801 86<-373 -80> -496 86<-373 -177> -209 86<-664 -177>
VStem: -760 96<-801 -209> -469 96<-715 -496> -177 97<-410 -209>
AnchorPoint: "+BBEENQQ3BEsEPARPBD0EPQQ+BDUA--9" -420 -123 mark 0
AnchorPoint: "+BBEENQQ3BEsEPARPBD0EPQQ+BDUA--6" -420 -887 basemark 0
AnchorPoint: "+BBEENQQ3BEsEPARPBD0EPQQ+BDUA--6" -420 -123 mark 0
AnchorPoint: "+BBEENQQ3BEsEPARPBD0EPQQ+BDUA--4" -420 -123 mark 0
LayerCount: 2
Fore
SplineSet
-760 -801 m 1,0,-1
 -760 -123 l 1,1,-1
 -80 -123 l 1,2,-1
 -80 -496 l 1,3,-1
 -373 -496 l 1,4,-1
 -373 -715 l 1,5,-1
 -80 -715 l 1,6,-1
 -80 -801 l 1,7,-1
 -469 -801 l 1,8,-1
 -469 -410 l 1,9,-1
 -177 -410 l 1,10,-1
 -177 -209 l 1,11,-1
 -664 -209 l 1,12,-1
 -664 -801 l 1,13,-1
 -760 -801 l 1,0,-1
EndSplineSet
Ligature2: "'ccmp' +BBoEPgQ8BD8EPgQ3BDgERgQ4BE8A-/+BDQENQQ6BD4EPAQ/BD4ENwQ4BEYEOARP +BDMEOwQ4BEQEMAAA lookup 2 subtable" subjoiner_zanb aa_zanb
EndChar

StartChar: ya_zanb.sub
Encoding: 1114159 -1 116
Width: 0
GlyphClass: 4
Flags: W
HStem: -801 86<-664 -468 -372 -176>
VStem: -760 96<-715 -123> -468 96<-715 -123> -176 96<-715 -123>
CounterMasks: 1 70
AnchorPoint: "+BBEENQQ3BEsEPARPBD0EPQQ+BDUA--9" -420 -123 mark 0
AnchorPoint: "+BBEENQQ3BEsEPARPBD0EPQQ+BDUA--6" -420 -887 basemark 0
AnchorPoint: "+BBEENQQ3BEsEPARPBD0EPQQ+BDUA--6" -420 -123 mark 0
AnchorPoint: "+BBEENQQ3BEsEPARPBD0EPQQ+BDUA--4" -420 -123 mark 0
LayerCount: 2
Fore
SplineSet
-760 -801 m 1,0,-1
 -760 -123 l 1,1,-1
 -664 -123 l 1,2,-1
 -664 -715 l 1,3,-1
 -468 -715 l 1,4,-1
 -468 -123 l 1,5,-1
 -372 -123 l 1,6,-1
 -372 -715 l 1,7,-1
 -176 -715 l 1,8,-1
 -176 -123 l 1,9,-1
 -80 -123 l 1,10,-1
 -80 -801 l 1,11,-1
 -760 -801 l 1,0,-1
EndSplineSet
Ligature2: "'ccmp' +BBoEPgQ8BD8EPgQ3BDgERgQ4BE8A-/+BDQENQQ6BD4EPAQ/BD4ENwQ4BEYEOARP +BDMEOwQ4BEQEMAAA lookup 2 subtable" subjoiner_zanb ya_zanb
EndChar

StartChar: ra_zanb.sub
Encoding: 1114160 -1 117
Width: 0
GlyphClass: 4
Flags: W
HStem: -465 86<-664 -468 -372 -176> -209 86<-760 -468 -372 -80>
VStem: -760 96<-801 -465> -468 96<-379 -209> -176 96<-801 -465>
CounterMasks: 1 38
AnchorPoint: "+BBEENQQ3BEsEPARPBD0EPQQ+BDUA--9" -420 -123 mark 0
AnchorPoint: "+BBEENQQ3BEsEPARPBD0EPQQ+BDUA--6" -420 -887 basemark 0
AnchorPoint: "+BBEENQQ3BEsEPARPBD0EPQQ+BDUA--6" -420 -123 mark 0
AnchorPoint: "+BBEENQQ3BEsEPARPBD0EPQQ+BDUA--4" -420 -123 mark 0
LayerCount: 2
Fore
SplineSet
-760 -801 m 1,0,-1
 -760 -379 l 1,1,-1
 -468 -379 l 1,2,-1
 -468 -209 l 1,3,-1
 -760 -209 l 1,4,-1
 -760 -123 l 1,5,-1
 -80 -123 l 1,6,-1
 -80 -209 l 1,7,-1
 -372 -209 l 1,8,-1
 -372 -379 l 1,9,-1
 -80 -379 l 1,10,-1
 -80 -801 l 1,11,-1
 -176 -801 l 1,12,-1
 -176 -465 l 1,13,-1
 -664 -465 l 1,14,-1
 -664 -801 l 1,15,-1
 -760 -801 l 1,0,-1
EndSplineSet
Ligature2: "'ccmp' +BBoEPgQ8BD8EPgQ3BDgERgQ4BE8A-/+BDQENQQ6BD4EPAQ/BD4ENwQ4BEYEOARP +BDMEOwQ4BEQEMAAA lookup 2 subtable" subjoiner_zanb ra_zanb
EndChar

StartChar: la_zanb.sub
Encoding: 1114161 -1 118
Width: 0
GlyphClass: 4
Flags: W
HStem: -801 86<-372 -176> -209 86<-664 -468>
VStem: -760 96<-801 -209> -468 96<-715 -209> -176 96<-715 -123>
CounterMasks: 1 38
AnchorPoint: "+BBEENQQ3BEsEPARPBD0EPQQ+BDUA--9" -420 -123 mark 0
AnchorPoint: "+BBEENQQ3BEsEPARPBD0EPQQ+BDUA--6" -420 -887 basemark 0
AnchorPoint: "+BBEENQQ3BEsEPARPBD0EPQQ+BDUA--6" -420 -123 mark 0
AnchorPoint: "+BBEENQQ3BEsEPARPBD0EPQQ+BDUA--4" -420 -123 mark 0
LayerCount: 2
Fore
SplineSet
-760 -801 m 1,0,-1
 -760 -123 l 1,1,-1
 -372 -123 l 1,2,-1
 -372 -715 l 1,3,-1
 -176 -715 l 1,4,-1
 -176 -123 l 1,5,-1
 -80 -123 l 1,6,-1
 -80 -801 l 1,7,-1
 -468 -801 l 1,8,-1
 -468 -209 l 1,9,-1
 -664 -209 l 1,10,-1
 -664 -801 l 1,11,-1
 -760 -801 l 1,0,-1
EndSplineSet
Ligature2: "'ccmp' +BBoEPgQ8BD8EPgQ3BDgERgQ4BE8A-/+BDQENQQ6BD4EPAQ/BD4ENwQ4BEYEOARP +BDMEOwQ4BEQEMAAA lookup 2 subtable" subjoiner_zanb la_zanb
EndChar

StartChar: va_zanb.sub
Encoding: 1114162 -1 119
Width: 0
GlyphClass: 4
Flags: W
HStem: -804 86<-431.295 -288.705> -209 86<-664 -409 -311 -80>
VStem: -760 96<-801 -209> -586 96<-657.288 -500.57> -409 98<-366.183 -209> -230 96<-657.288 -500.57>
AnchorPoint: "+BBEENQQ3BEsEPARPBD0EPQQ+BDUA--9" -420 -123 mark 0
AnchorPoint: "+BBEENQQ3BEsEPARPBD0EPQQ+BDUA--6" -420 -887 basemark 0
AnchorPoint: "+BBEENQQ3BEsEPARPBD0EPQQ+BDUA--6" -420 -123 mark 0
AnchorPoint: "+BBEENQQ3BEsEPARPBD0EPQQ+BDUA--4" -420 -123 mark 0
LayerCount: 2
Fore
SplineSet
-360 -804 m 256,0,1
 -422 -804 -422 -804 -473.5 -773.5 c 128,-1,2
 -525 -743 -525 -743 -555.5 -692 c 128,-1,3
 -586 -641 -586 -641 -586 -579 c 0,4,5
 -586 -526 -586 -526 -562.5 -480.5 c 128,-1,6
 -539 -435 -539 -435 -499 -403.5 c 128,-1,7
 -459 -372 -459 -372 -409 -360 c 1,8,-1
 -409 -209 l 1,9,-1
 -664 -209 l 1,10,-1
 -664 -801 l 1,11,-1
 -760 -801 l 1,12,-1
 -760 -123 l 1,13,-1
 -80 -123 l 1,14,-1
 -80 -209 l 1,15,-1
 -311 -209 l 1,16,-1
 -311 -360 l 1,17,18
 -261 -372 -261 -372 -221 -403.5 c 128,-1,19
 -181 -435 -181 -435 -157.5 -480.5 c 128,-1,20
 -134 -526 -134 -526 -134 -579 c 0,21,22
 -134 -641 -134 -641 -164.5 -692 c 128,-1,23
 -195 -743 -195 -743 -246.5 -773.5 c 128,-1,24
 -298 -804 -298 -804 -360 -804 c 256,0,1
-360 -718 m 256,25,26
 -324 -718 -324 -718 -294.5 -700 c 128,-1,27
 -265 -682 -265 -682 -247.5 -650.5 c 128,-1,28
 -230 -619 -230 -619 -230 -579 c 0,29,30
 -230 -538 -230 -538 -247.5 -507 c 128,-1,31
 -265 -476 -265 -476 -294.5 -458 c 128,-1,32
 -324 -440 -324 -440 -360 -440 c 256,33,34
 -396 -440 -396 -440 -425.5 -458 c 128,-1,35
 -455 -476 -455 -476 -472.5 -507 c 128,-1,36
 -490 -538 -490 -538 -490 -579 c 0,37,38
 -490 -619 -490 -619 -472.5 -650.5 c 128,-1,39
 -455 -682 -455 -682 -425.5 -700 c 128,-1,40
 -396 -718 -396 -718 -360 -718 c 256,25,26
EndSplineSet
Ligature2: "'ccmp' +BBoEPgQ8BD8EPgQ3BDgERgQ4BE8A-/+BDQENQQ6BD4EPAQ/BD4ENwQ4BEYEOARP +BDMEOwQ4BEQEMAAA lookup 2 subtable" subjoiner_zanb va_zanb
EndChar

StartChar: sha_zanb.sub
Encoding: 1114163 -1 120
Width: 0
GlyphClass: 4
Flags: W
HStem: -801 86<-372 -176> -508 86<-664 -468> -209 86<-372 -176>
VStem: -760 96<-801 -508 -422 -123> -468 96<-715 -508 -422 -209> -176 96<-715 -209>
CounterMasks: 1 1c
AnchorPoint: "+BBEENQQ3BEsEPARPBD0EPQQ+BDUA--9" -420 -123 mark 0
AnchorPoint: "+BBEENQQ3BEsEPARPBD0EPQQ+BDUA--6" -420 -887 basemark 0
AnchorPoint: "+BBEENQQ3BEsEPARPBD0EPQQ+BDUA--6" -420 -123 mark 0
AnchorPoint: "+BBEENQQ3BEsEPARPBD0EPQQ+BDUA--4" -420 -123 mark 0
LayerCount: 2
Fore
SplineSet
-760 -801 m 1,0,-1
 -760 -123 l 1,1,-1
 -664 -123 l 1,2,-1
 -664 -422 l 1,3,-1
 -468 -422 l 1,4,-1
 -468 -123 l 1,5,-1
 -80 -123 l 1,6,-1
 -80 -801 l 1,7,-1
 -468 -801 l 1,8,-1
 -468 -508 l 1,9,-1
 -664 -508 l 1,10,-1
 -664 -801 l 1,11,-1
 -760 -801 l 1,0,-1
-372 -715 m 1,12,-1
 -176 -715 l 1,13,-1
 -176 -209 l 1,14,-1
 -372 -209 l 1,15,-1
 -372 -715 l 1,12,-1
EndSplineSet
Ligature2: "'ccmp' +BBoEPgQ8BD8EPgQ3BDgERgQ4BE8A-/+BDQENQQ6BD4EPAQ/BD4ENwQ4BEYEOARP +BDMEOwQ4BEQEMAAA lookup 2 subtable" subjoiner_zanb sha_zanb
EndChar

StartChar: ssa_zanb.sub
Encoding: 1114164 -1 121
Width: 0
GlyphClass: 4
Flags: W
HStem: -801 86<-664 -468> -508 86<-372 -176> -209 86<-664 -468>
VStem: -760 96<-715 -209> -468 96<-715 -508 -422 -209> -176 96<-801 -508 -422 -123>
CounterMasks: 1 1c
AnchorPoint: "+BBEENQQ3BEsEPARPBD0EPQQ+BDUA--9" -420 -123 mark 0
AnchorPoint: "+BBEENQQ3BEsEPARPBD0EPQQ+BDUA--6" -420 -887 basemark 0
AnchorPoint: "+BBEENQQ3BEsEPARPBD0EPQQ+BDUA--6" -420 -123 mark 0
AnchorPoint: "+BBEENQQ3BEsEPARPBD0EPQQ+BDUA--4" -420 -123 mark 0
LayerCount: 2
Fore
SplineSet
-760 -801 m 1,0,-1
 -760 -123 l 1,1,-1
 -372 -123 l 1,2,-1
 -372 -422 l 1,3,-1
 -176 -422 l 1,4,-1
 -176 -123 l 1,5,-1
 -80 -123 l 1,6,-1
 -80 -801 l 1,7,-1
 -176 -801 l 1,8,-1
 -176 -508 l 1,9,-1
 -372 -508 l 1,10,-1
 -372 -801 l 1,11,-1
 -760 -801 l 1,0,-1
-664 -715 m 1,12,-1
 -468 -715 l 1,13,-1
 -468 -209 l 1,14,-1
 -664 -209 l 1,15,-1
 -664 -715 l 1,12,-1
EndSplineSet
Ligature2: "'ccmp' +BBoEPgQ8BD8EPgQ3BDgERgQ4BE8A-/+BDQENQQ6BD4EPAQ/BD4ENwQ4BEYEOARP +BDMEOwQ4BEQEMAAA lookup 2 subtable" subjoiner_zanb ssa_zanb
EndChar

StartChar: sa_zanb.sub
Encoding: 1114165 -1 122
Width: 0
GlyphClass: 4
Flags: W
VStem: -760 96<-801 -269> -176 96<-655 -123>
AnchorPoint: "+BBEENQQ3BEsEPARPBD0EPQQ+BDUA--9" -420 -123 mark 0
AnchorPoint: "+BBEENQQ3BEsEPARPBD0EPQQ+BDUA--6" -420 -887 basemark 0
AnchorPoint: "+BBEENQQ3BEsEPARPBD0EPQQ+BDUA--6" -420 -123 mark 0
AnchorPoint: "+BBEENQQ3BEsEPARPBD0EPQQ+BDUA--4" -420 -123 mark 0
LayerCount: 2
Fore
SplineSet
-760 -801 m 1,0,-1
 -760 -123 l 1,1,-1
 -664 -123 l 1,2,-1
 -176 -655 l 1,3,-1
 -176 -123 l 1,4,-1
 -80 -123 l 1,5,-1
 -80 -801 l 1,6,-1
 -176 -801 l 1,7,-1
 -664 -269 l 1,8,-1
 -664 -801 l 1,9,-1
 -760 -801 l 1,0,-1
EndSplineSet
Ligature2: "'ccmp' +BBoEPgQ8BD8EPgQ3BDgERgQ4BE8A-/+BDQENQQ6BD4EPAQ/BD4ENwQ4BEYEOARP +BDMEOwQ4BEQEMAAA lookup 2 subtable" subjoiner_zanb sa_zanb
EndChar

StartChar: ha_zanb.sub
Encoding: 1114166 -1 123
Width: 0
GlyphClass: 4
Flags: W
HStem: -801 86<-664 -468> -472 86<-372 -176> -209 86<-664 -80>
VStem: -760 96<-715 -209> -468 96<-715 -472> -176 96<-801 -472>
CounterMasks: 1 1c
AnchorPoint: "+BBEENQQ3BEsEPARPBD0EPQQ+BDUA--9" -420 -123 mark 0
AnchorPoint: "+BBEENQQ3BEsEPARPBD0EPQQ+BDUA--6" -420 -887 basemark 0
AnchorPoint: "+BBEENQQ3BEsEPARPBD0EPQQ+BDUA--6" -420 -123 mark 0
AnchorPoint: "+BBEENQQ3BEsEPARPBD0EPQQ+BDUA--4" -420 -123 mark 0
LayerCount: 2
Fore
SplineSet
-760 -801 m 1,0,-1
 -760 -123 l 1,1,-1
 -80 -123 l 1,2,-1
 -80 -209 l 1,3,-1
 -664 -209 l 1,4,-1
 -664 -715 l 1,5,-1
 -468 -715 l 1,6,-1
 -468 -386 l 1,7,-1
 -80 -386 l 1,8,-1
 -80 -801 l 1,9,-1
 -176 -801 l 1,10,-1
 -176 -472 l 1,11,-1
 -372 -472 l 1,12,-1
 -372 -801 l 1,13,-1
 -760 -801 l 1,0,-1
EndSplineSet
Substitution2: "+BBUENAQ4BD0EOARHBD0EMARP +BD8EPgQ0BEEEQgQwBD0EPgQyBDoEMAAA lookup 8 subtable" ha_zanb.short
Ligature2: "'ccmp' +BBoEPgQ8BD8EPgQ3BDgERgQ4BE8A-/+BDQENQQ6BD4EPAQ/BD4ENwQ4BEYEOARP +BDMEOwQ4BEQEMAAA lookup 2 subtable" subjoiner_zanb ha_zanb
EndChar

StartChar: kssa_zanb.sub
Encoding: 1114167 -1 124
Width: 0
GlyphClass: 4
Flags: W
HStem: -801 86<-664 -372> -502 86<-664 -468> -209 86<-760 -468 -372 -176>
VStem: -760 96<-715 -502> -468 96<-416 -209> -176 96<-801 -209>
CounterMasks: 1 1c
AnchorPoint: "+BBEENQQ3BEsEPARPBD0EPQQ+BDUA--9" -420 -123 mark 0
AnchorPoint: "+BBEENQQ3BEsEPARPBD0EPQQ+BDUA--6" -420 -887 basemark 0
AnchorPoint: "+BBEENQQ3BEsEPARPBD0EPQQ+BDUA--6" -420 -123 mark 0
AnchorPoint: "+BBEENQQ3BEsEPARPBD0EPQQ+BDUA--4" -420 -123 mark 0
LayerCount: 2
Fore
SplineSet
-760 -801 m 1,0,-1
 -760 -416 l 1,1,-1
 -468 -416 l 1,2,-1
 -468 -209 l 1,3,-1
 -760 -209 l 1,4,-1
 -760 -123 l 1,5,-1
 -80 -123 l 1,6,-1
 -80 -801 l 1,7,-1
 -176 -801 l 1,8,-1
 -176 -209 l 1,9,-1
 -372 -209 l 1,10,-1
 -372 -502 l 1,11,-1
 -664 -502 l 1,12,-1
 -664 -715 l 1,13,-1
 -372 -715 l 1,14,-1
 -372 -801 l 1,15,-1
 -760 -801 l 1,0,-1
EndSplineSet
Ligature2: "'ccmp' +BBoEPgQ8BD8EPgQ3BDgERgQ4BE8A-/+BDQENQQ6BD4EPAQ/BD4ENwQ4BEYEOARP +BDMEOwQ4BEQEMAAA lookup 2 subtable" subjoiner_zanb kssa_zanb
EndChar

StartChar: tsa_zanb.flat
Encoding: 1114168 -1 125
Width: 927
GlyphClass: 2
Flags: W
HStem: 0 86<80 372 468 664> 592 86<80 372 468 664>
VStem: 372 96<86 592> 664 96<86 592>
AnchorPoint: "+BBEENQQ3BEsEPARPBD0EPQQ+BDUA--5" 664 0 basechar 0
AnchorPoint: "+BBEENQQ3BEsEPARPBD0EPQQ+BDUA--4" 420 -86 basechar 0
AnchorPoint: "+BBEENQQ3BEsEPARPBD0EPQQ+BDUA--2" 80 678 basechar 0
AnchorPoint: "+BBEENQQ3BEsEPARPBD0EPQQ+BDUA--1" 760 678 basechar 0
AnchorPoint: "+BBEENQQ3BEsEPARPBD0EPQQ+BDUA--0" 420 778 basechar 0
LayerCount: 2
Fore
SplineSet
80 0 m 1,0,-1
 80 86 l 1,1,-1
 372 86 l 1,2,-1
 372 592 l 1,3,-1
 80 592 l 1,4,-1
 80 678 l 1,5,-1
 687 678 l 1,6,7
 751 713 751 713 795 745 c 128,-1,8
 839 777 839 777 878 808 c 1,9,10
 897 793 897 793 914 781 c 128,-1,11
 931 769 931 769 950 759 c 0,12,13
 970 749 970 749 983 743 c 128,-1,14
 996 737 996 737 1016 730 c 1,15,16
 1004 694 1004 694 985.5 670.5 c 128,-1,17
 967 647 967 647 943 633 c 1,18,19
 918 644 918 644 899.5 654 c 128,-1,20
 881 664 881 664 863.5 676.5 c 128,-1,21
 846 689 846 689 822 708 c 1,22,23
 801 694 801 694 790 686.5 c 128,-1,24
 779 679 779 679 760 667 c 1,25,-1
 760 0 l 1,26,-1
 80 0 l 1,0,-1
468 86 m 1,27,-1
 664 86 l 1,28,-1
 664 592 l 1,29,-1
 468 592 l 1,30,-1
 468 86 l 1,27,-1
EndSplineSet
EndChar

StartChar: tsha_zanb.flat
Encoding: 1114169 -1 126
Width: 927
GlyphClass: 2
Flags: W
HStem: 0 86<176 372 468 664> 592 86<176 372 468 664>
VStem: 80 96<86 592> 372 96<86 592> 664 96<86 592>
CounterMasks: 1 38
AnchorPoint: "+BBEENQQ3BEsEPARPBD0EPQQ+BDUA--5" 664 0 basechar 0
AnchorPoint: "+BBEENQQ3BEsEPARPBD0EPQQ+BDUA--4" 420 -86 basechar 0
AnchorPoint: "+BBEENQQ3BEsEPARPBD0EPQQ+BDUA--2" 80 678 basechar 0
AnchorPoint: "+BBEENQQ3BEsEPARPBD0EPQQ+BDUA--1" 760 678 basechar 0
AnchorPoint: "+BBEENQQ3BEsEPARPBD0EPQQ+BDUA--0" 420 778 basechar 0
LayerCount: 2
Fore
SplineSet
80 0 m 1,0,-1
 80 678 l 1,1,-1
 687 678 l 1,2,3
 751 713 751 713 795 745 c 128,-1,4
 839 777 839 777 878 808 c 1,5,6
 897 793 897 793 914 781 c 128,-1,7
 931 769 931 769 950 759 c 0,8,9
 970 749 970 749 983 743 c 128,-1,10
 996 737 996 737 1016 730 c 1,11,12
 1004 694 1004 694 985.5 670.5 c 128,-1,13
 967 647 967 647 943 633 c 1,14,15
 918 644 918 644 899.5 654 c 128,-1,16
 881 664 881 664 863.5 676.5 c 128,-1,17
 846 689 846 689 822 708 c 1,18,19
 802 695 802 695 791 687 c 128,-1,20
 780 679 780 679 760 667 c 1,21,-1
 760 0 l 1,22,-1
 80 0 l 1,0,-1
176 86 m 1,23,-1
 372 86 l 1,24,-1
 372 592 l 1,25,-1
 176 592 l 1,26,-1
 176 86 l 1,23,-1
468 86 m 1,27,-1
 664 86 l 1,28,-1
 664 592 l 1,29,-1
 468 592 l 1,30,-1
 468 86 l 1,27,-1
EndSplineSet
EndChar

StartChar: dza_zanb.flat
Encoding: 1114170 -1 127
Width: 927
GlyphClass: 2
Flags: W
HStem: 0 86<176 760> 296 86<176 760> 592 86<176 725.047>
VStem: 80 96<86 296 382 592>
CounterMasks: 1 e0
AnchorPoint: "+BBEENQQ3BEsEPARPBD0EPQQ+BDUA--5" 681 0 basechar 0
AnchorPoint: "+BBEENQQ3BEsEPARPBD0EPQQ+BDUA--4" 420 -86 basechar 0
AnchorPoint: "+BBEENQQ3BEsEPARPBD0EPQQ+BDUA--2" 80 678 basechar 0
AnchorPoint: "+BBEENQQ3BEsEPARPBD0EPQQ+BDUA--1" 760 678 basechar 0
AnchorPoint: "+BBEENQQ3BEsEPARPBD0EPQQ+BDUA--0" 420 778 basechar 0
LayerCount: 2
Fore
SplineSet
80 0 m 1,0,-1
 80 678 l 1,1,-1
 687 678 l 1,2,3
 751 713 751 713 795 745 c 128,-1,4
 839 777 839 777 878 808 c 1,5,6
 897 793 897 793 914 781 c 128,-1,7
 931 769 931 769 950 759 c 0,8,9
 970 749 970 749 983 743 c 128,-1,10
 996 737 996 737 1016 730 c 1,11,12
 1004 694 1004 694 985.5 670.5 c 128,-1,13
 967 647 967 647 943 633 c 1,14,15
 918 644 918 644 899.5 654 c 128,-1,16
 881 664 881 664 863.5 676.5 c 128,-1,17
 846 689 846 689 822 708 c 1,18,19
 802 695 802 695 791 687 c 128,-1,20
 780 679 780 679 760 667 c 1,21,-1
 760 592 l 1,22,-1
 176 592 l 1,23,-1
 176 382 l 1,24,-1
 760 382 l 1,25,-1
 760 296 l 1,26,-1
 176 296 l 1,27,-1
 176 86 l 1,28,-1
 760 86 l 1,29,-1
 760 0 l 1,30,-1
 80 0 l 1,0,-1
EndSplineSet
EndChar

StartChar: dzha_zanb.flat
Encoding: 1114171 -1 128
Width: 927
GlyphClass: 2
Flags: W
HStem: 0 86<176 760> 163 90<538.897 662.557> 296 86<176 432.41> 420 90<538.097 664.961> 592 86<176 725.047>
VStem: 80 96<86 296 382 592>
AnchorPoint: "+BBEENQQ3BEsEPARPBD0EPQQ+BDUA--5" 667 0 basechar 0
AnchorPoint: "+BBEENQQ3BEsEPARPBD0EPQQ+BDUA--4" 420 -86 basechar 0
AnchorPoint: "+BBEENQQ3BEsEPARPBD0EPQQ+BDUA--2" 80 678 basechar 0
AnchorPoint: "+BBEENQQ3BEsEPARPBD0EPQQ+BDUA--1" 760 678 basechar 0
AnchorPoint: "+BBEENQQ3BEsEPARPBD0EPQQ+BDUA--0" 420 778 basechar 0
LayerCount: 2
Fore
SplineSet
80 0 m 1,0,-1
 80 678 l 1,1,-1
 687 678 l 1,2,3
 751 713 751 713 795 745 c 128,-1,4
 839 777 839 777 878 808 c 1,5,6
 897 793 897 793 914 781 c 128,-1,7
 931 769 931 769 950 759 c 0,8,9
 970 749 970 749 983 743 c 128,-1,10
 996 737 996 737 1016 730 c 1,11,12
 1004 694 1004 694 985.5 670.5 c 128,-1,13
 967 647 967 647 943 633 c 1,14,15
 918 644 918 644 899.5 654 c 128,-1,16
 881 664 881 664 863.5 676.5 c 128,-1,17
 846 689 846 689 822 708 c 1,18,19
 802 695 802 695 791 687 c 128,-1,20
 780 679 780 679 760 667 c 1,21,-1
 760 592 l 1,22,-1
 176 592 l 1,23,-1
 176 382 l 1,24,-1
 427 382 l 1,25,26
 442 437 442 437 488.5 473.5 c 128,-1,27
 535 510 535 510 595 510 c 0,28,29
 634 510 634 510 667.5 494 c 128,-1,30
 701 478 701 478 725 450 c 1,31,-1
 657 392 l 1,32,33
 646 405 646 405 630 412.5 c 128,-1,34
 614 420 614 420 595 420 c 0,35,36
 560 420 560 420 535.5 396 c 128,-1,37
 511 372 511 372 511 337 c 256,38,39
 511 302 511 302 535.5 277.5 c 128,-1,40
 560 253 560 253 595 253 c 0,41,42
 626 253 626 253 648 272 c 1,43,-1
 715 212 l 1,44,45
 692 190 692 190 661 176.5 c 128,-1,46
 630 163 630 163 595 163 c 0,47,48
 534 163 534 163 487 201 c 128,-1,49
 440 239 440 239 426 296 c 1,50,-1
 176 296 l 1,51,-1
 176 86 l 1,52,-1
 760 86 l 1,53,-1
 760 0 l 1,54,-1
 80 0 l 1,0,-1
EndSplineSet
EndChar

StartChar: la_zanb.head
Encoding: 1114172 -1 129
Width: 840
GlyphClass: 2
Flags: W
HStem: 341 86<468 664> 504 174<80 176> 592 86<176 372>
VStem: 80 96<504 592> 372 96<427 592> 664 96<427 678>
CounterMasks: 1 1c
AnchorPoint: "+BBEENQQ3BEsEPARPBD0EPQQ+BDUA--5" 664 433 basechar 0
AnchorPoint: "+BBEENQQ3BEsEPARPBD0EPQQ+BDUA--4" 420 427 basechar 0
AnchorPoint: "+BBEENQQ3BEsEPARPBD0EPQQ+BDUA--2" 80 678 basechar 0
AnchorPoint: "+BBEENQQ3BEsEPARPBD0EPQQ+BDUA--0" 420 778 basechar 0
LayerCount: 2
Fore
SplineSet
372 341 m 1,0,-1
 372 592 l 1,1,-1
 176 592 l 1,2,-1
 176 504 l 1,3,-1
 80 504 l 1,4,-1
 80 678 l 1,5,-1
 468 678 l 1,6,-1
 468 427 l 1,7,-1
 664 427 l 1,8,-1
 664 678 l 1,9,-1
 760 678 l 1,10,-1
 760 341 l 1,11,-1
 372 341 l 1,0,-1
EndSplineSet
Substitution2: "+BBUENAQ4BD0EOARHBD0EMARP +BD8EPgQ0BEEEQgQwBD0EPgQyBDoEMAAA lookup 26 subtable" la_zanb
Position2: "Single Positioning lookup 1 subtable" dx=296 dy=0 dh=296 dv=0
EndChar

StartChar: sa_zanb.head
Encoding: 1114173 -1 130
Width: 840
GlyphClass: 2
Flags: W
HStem: 500 178<80 176>
VStem: 80 96<500 592> 664 96<341 445 531 678>
AnchorPoint: "+BBEENQQ3BEsEPARPBD0EPQQ+BDUA--5" 664 433 basechar 0
AnchorPoint: "+BBEENQQ3BEsEPARPBD0EPQQ+BDUA--4" 420 427 basechar 0
AnchorPoint: "+BBEENQQ3BEsEPARPBD0EPQQ+BDUA--2" 80 678 basechar 0
AnchorPoint: "+BBEENQQ3BEsEPARPBD0EPQQ+BDUA--0" 420 778 basechar 0
LayerCount: 2
Fore
SplineSet
664 341 m 1,0,-1
 664 445 l 1,1,-1
 176 592 l 1,2,-1
 176 500 l 1,3,-1
 80 500 l 1,4,-1
 80 678 l 1,5,-1
 176 678 l 1,6,-1
 664 531 l 1,7,-1
 664 678 l 1,8,-1
 760 678 l 1,9,-1
 760 341 l 1,10,-1
 664 341 l 1,0,-1
EndSplineSet
Substitution2: "+BBUENAQ4BD0EOARHBD0EMARP +BD8EPgQ0BEEEQgQwBD0EPgQyBDoEMAAA lookup 26 subtable" sa_zanb
Position2: "Single Positioning lookup 1 subtable" dx=296 dy=0 dh=296 dv=0
EndChar

StartChar: ka_zanb.short
Encoding: 1114174 -1 131
Width: 0
GlyphClass: 4
Flags: W
HStem: -450 181<-760 -664> -450 86<-664 -468> -109 86<-760 -468 -372 -176>
VStem: -760 96<-364 -269> -468 96<-364 -109> -176 96<-450 -109>
CounterMasks: 1 1c
AnchorPoint: "+BBEENQQ3BEsEPARPBD0EPQQ+BDUA--9" -420 -23 mark 0
AnchorPoint: "+BBEENQQ3BEsEPARPBD0EPQQ+BDUA--6" -420 -536 basemark 0
AnchorPoint: "+BBEENQQ3BEsEPARPBD0EPQQ+BDUA--6" -420 -23 mark 0
AnchorPoint: "+BBEENQQ3BEsEPARPBD0EPQQ+BDUA--4" -420 -23 mark 0
LayerCount: 2
Fore
SplineSet
-760 -450 m 1,0,-1
 -760 -269 l 1,1,-1
 -664 -269 l 1,2,-1
 -664 -364 l 1,3,-1
 -468 -364 l 1,4,-1
 -468 -109 l 1,5,-1
 -760 -109 l 1,6,-1
 -760 -23 l 1,7,-1
 -80 -23 l 1,8,-1
 -80 -450 l 1,9,-1
 -176 -450 l 1,10,-1
 -176 -109 l 1,11,-1
 -372 -109 l 1,12,-1
 -372 -450 l 1,13,-1
 -760 -450 l 1,0,-1
EndSplineSet
Substitution2: "+BBUENAQ4BD0EOARHBD0EMARP +BD8EPgQ0BEEEQgQwBD0EPgQyBDoEMAAA lookup 26 subtable" ka_zanb.sub
EndChar

StartChar: ga_zanb.short
Encoding: 1114175 -1 132
Width: 0
GlyphClass: 4
Flags: W
HStem: -450 86<-664 -468> -109 86<-664 -468 -372 -176>
VStem: -760 96<-364 -109> -468 96<-364 -109> -176 96<-450 -109>
CounterMasks: 1 38
AnchorPoint: "+BBEENQQ3BEsEPARPBD0EPQQ+BDUA--9" -420 -23 mark 0
AnchorPoint: "+BBEENQQ3BEsEPARPBD0EPQQ+BDUA--7" -176 -450 basemark 0
AnchorPoint: "+BBEENQQ3BEsEPARPBD0EPQQ+BDUA--6" -420 -536 basemark 0
AnchorPoint: "+BBEENQQ3BEsEPARPBD0EPQQ+BDUA--6" -420 -23 mark 0
AnchorPoint: "+BBEENQQ3BEsEPARPBD0EPQQ+BDUA--4" -420 -23 mark 0
LayerCount: 2
Fore
SplineSet
-760 -450 m 1,0,-1
 -760 -23 l 1,1,-1
 -80 -23 l 1,2,-1
 -80 -450 l 1,3,-1
 -176 -450 l 1,4,-1
 -176 -109 l 1,5,-1
 -372 -109 l 1,6,-1
 -372 -450 l 1,7,-1
 -760 -450 l 1,0,-1
-664 -364 m 1,8,-1
 -468 -364 l 1,9,-1
 -468 -109 l 1,10,-1
 -664 -109 l 1,11,-1
 -664 -364 l 1,8,-1
EndSplineSet
Substitution2: "+BBUENAQ4BD0EOARHBD0EMARP +BD8EPgQ0BEEEQgQwBD0EPgQyBDoEMAAA lookup 26 subtable" ga_zanb.sub
EndChar

StartChar: nga_zanb.short
Encoding: 1114176 -1 133
Width: 0
GlyphClass: 4
Flags: W
HStem: -450 86<-664 -80> -279 86<-664 -177> -109 86<-760 -177>
VStem: -760 96<-364 -279> -177 96<-193 -109>
AnchorPoint: "+BBEENQQ3BEsEPARPBD0EPQQ+BDUA--9" -420 -23 mark 0
AnchorPoint: "+BBEENQQ3BEsEPARPBD0EPQQ+BDUA--7" -176 -450 basemark 0
AnchorPoint: "+BBEENQQ3BEsEPARPBD0EPQQ+BDUA--6" -420 -536 basemark 0
AnchorPoint: "+BBEENQQ3BEsEPARPBD0EPQQ+BDUA--6" -420 -23 mark 0
AnchorPoint: "+BBEENQQ3BEsEPARPBD0EPQQ+BDUA--4" -420 -23 mark 0
LayerCount: 2
Fore
SplineSet
-760 -450 m 1,0,-1
 -760 -193 l 1,1,-1
 -177 -193 l 1,2,-1
 -177 -109 l 1,3,-1
 -760 -109 l 1,4,-1
 -760 -23 l 1,5,-1
 -81 -23 l 1,6,-1
 -81 -279 l 1,7,-1
 -664 -279 l 1,8,-1
 -664 -364 l 1,9,-1
 -80 -364 l 1,10,-1
 -80 -450 l 1,11,-1
 -760 -450 l 1,0,-1
EndSplineSet
Substitution2: "+BBUENAQ4BD0EOARHBD0EMARP +BD8EPgQ0BEEEQgQwBD0EPgQyBDoEMAAA lookup 26 subtable" nga_zanb.sub
EndChar

StartChar: ca_zanb.short
Encoding: 1114177 -1 134
Width: 0
GlyphClass: 4
Flags: W
HStem: -450 86<-760 -468 -372 -176> -109 86<-760 -468 -372 -176>
VStem: -468 96<-364 -109> -176 96<-364 -109>
AnchorPoint: "+BBEENQQ3BEsEPARPBD0EPQQ+BDUA--9" -420 -23 mark 0
AnchorPoint: "+BBEENQQ3BEsEPARPBD0EPQQ+BDUA--7" -176 -450 basemark 0
AnchorPoint: "+BBEENQQ3BEsEPARPBD0EPQQ+BDUA--6" -420 -536 basemark 0
AnchorPoint: "+BBEENQQ3BEsEPARPBD0EPQQ+BDUA--6" -420 -23 mark 0
AnchorPoint: "+BBEENQQ3BEsEPARPBD0EPQQ+BDUA--4" -420 -23 mark 0
LayerCount: 2
Fore
SplineSet
-760 -450 m 1,0,-1
 -760 -364 l 1,1,-1
 -468 -364 l 1,2,-1
 -468 -109 l 1,3,-1
 -760 -109 l 1,4,-1
 -760 -23 l 1,5,-1
 -80 -23 l 1,6,-1
 -80 -450 l 1,7,-1
 -760 -450 l 1,0,-1
-372 -364 m 1,8,-1
 -176 -364 l 1,9,-1
 -176 -109 l 1,10,-1
 -372 -109 l 1,11,-1
 -372 -364 l 1,8,-1
EndSplineSet
Substitution2: "+BBUENAQ4BD0EOARHBD0EMARP +BD8EPgQ0BEEEQgQwBD0EPgQyBDoEMAAA lookup 26 subtable" ca_zanb.sub
EndChar

StartChar: ja_zanb.short
Encoding: 1114178 -1 135
Width: 0
GlyphClass: 4
Flags: W
HStem: -453 86<-664 -80> -281 86<-664 -80> -109 86<-664 -80>
VStem: -760 96<-367 -281 -195 -109>
CounterMasks: 1 e0
AnchorPoint: "+BBEENQQ3BEsEPARPBD0EPQQ+BDUA--9" -420 -23 mark 0
AnchorPoint: "+BBEENQQ3BEsEPARPBD0EPQQ+BDUA--7" -176 -453 basemark 0
AnchorPoint: "+BBEENQQ3BEsEPARPBD0EPQQ+BDUA--6" -420 -536 basemark 0
AnchorPoint: "+BBEENQQ3BEsEPARPBD0EPQQ+BDUA--6" -420 -23 mark 0
AnchorPoint: "+BBEENQQ3BEsEPARPBD0EPQQ+BDUA--4" -420 -23 mark 0
LayerCount: 2
Fore
SplineSet
-760 -453 m 1,0,-1
 -760 -23 l 1,1,-1
 -80 -23 l 1,2,-1
 -80 -109 l 1,3,-1
 -664 -109 l 1,4,-1
 -664 -195 l 1,5,-1
 -80 -195 l 1,6,-1
 -80 -281 l 1,7,-1
 -664 -281 l 1,8,-1
 -664 -367 l 1,9,-1
 -80 -367 l 1,10,-1
 -80 -453 l 1,11,-1
 -760 -453 l 1,0,-1
EndSplineSet
Substitution2: "+BBUENAQ4BD0EOARHBD0EMARP +BD8EPgQ0BEEEQgQwBD0EPgQyBDoEMAAA lookup 26 subtable" ja_zanb.sub
EndChar

StartChar: nya_zanb.short
Encoding: 1114179 -1 136
Width: 0
GlyphClass: 4
Flags: W
HStem: -450 86<-664 -380> -276 86<-664 -176> -109 86<-760 -176>
VStem: -760 96<-364 -276> -176 96<-450 -276 -190 -109>
AnchorPoint: "+BBEENQQ3BEsEPARPBD0EPQQ+BDUA--9" -420 -23 mark 0
AnchorPoint: "+BBEENQQ3BEsEPARPBD0EPQQ+BDUA--7" -176 -450 basemark 0
AnchorPoint: "+BBEENQQ3BEsEPARPBD0EPQQ+BDUA--6" -420 -536 basemark 0
AnchorPoint: "+BBEENQQ3BEsEPARPBD0EPQQ+BDUA--6" -420 -23 mark 0
AnchorPoint: "+BBEENQQ3BEsEPARPBD0EPQQ+BDUA--4" -420 -23 mark 0
LayerCount: 2
Fore
SplineSet
-760 -450 m 1,0,-1
 -760 -190 l 1,1,-1
 -176 -190 l 1,2,-1
 -176 -109 l 1,3,-1
 -760 -109 l 1,4,-1
 -760 -23 l 1,5,-1
 -80 -23 l 1,6,-1
 -80 -450 l 1,7,-1
 -176 -450 l 1,8,-1
 -176 -276 l 1,9,-1
 -664 -276 l 1,10,-1
 -664 -364 l 1,11,-1
 -380 -364 l 1,12,-1
 -380 -450 l 1,13,-1
 -760 -450 l 1,0,-1
EndSplineSet
Substitution2: "+BBUENAQ4BD0EOARHBD0EMARP +BD8EPgQ0BEEEQgQwBD0EPgQyBDoEMAAA lookup 26 subtable" nya_zanb.sub
EndChar

StartChar: ta_zanb.short
Encoding: 1114180 -1 137
Width: 0
GlyphClass: 4
Flags: W
HStem: -288 86<-664 -176> -109 86<-664 -80>
VStem: -760 96<-450 -288 -202 -109> -176 96<-450 -288>
AnchorPoint: "+BBEENQQ3BEsEPARPBD0EPQQ+BDUA--9" -420 -23 mark 0
AnchorPoint: "+BBEENQQ3BEsEPARPBD0EPQQ+BDUA--7" -176 -450 basemark 0
AnchorPoint: "+BBEENQQ3BEsEPARPBD0EPQQ+BDUA--6" -420 -536 basemark 0
AnchorPoint: "+BBEENQQ3BEsEPARPBD0EPQQ+BDUA--6" -420 -23 mark 0
AnchorPoint: "+BBEENQQ3BEsEPARPBD0EPQQ+BDUA--4" -420 -23 mark 0
LayerCount: 2
Fore
SplineSet
-760 -450 m 1,0,-1
 -760 -23 l 1,1,-1
 -80 -23 l 1,2,-1
 -80 -109 l 1,3,-1
 -664 -109 l 1,4,-1
 -664 -202 l 1,5,-1
 -80 -202 l 1,6,-1
 -80 -450 l 1,7,-1
 -176 -450 l 1,8,-1
 -176 -288 l 1,9,-1
 -664 -288 l 1,10,-1
 -664 -450 l 1,11,-1
 -760 -450 l 1,0,-1
EndSplineSet
Substitution2: "+BBUENAQ4BD0EOARHBD0EMARP +BD8EPgQ0BEEEQgQwBD0EPgQyBDoEMAAA lookup 26 subtable" ta_zanb.sub
EndChar

StartChar: da_zanb.short
Encoding: 1114181 -1 138
Width: 0
GlyphClass: 4
Flags: W
HStem: -450 86<-760 -176> -280 86<-664 -176> -109 86<-664 -80>
VStem: -760 96<-194 -109> -176 96<-364 -280>
AnchorPoint: "+BBEENQQ3BEsEPARPBD0EPQQ+BDUA--9" -420 -23 mark 0
AnchorPoint: "+BBEENQQ3BEsEPARPBD0EPQQ+BDUA--7" -176 -450 basemark 0
AnchorPoint: "+BBEENQQ3BEsEPARPBD0EPQQ+BDUA--6" -420 -536 basemark 0
AnchorPoint: "+BBEENQQ3BEsEPARPBD0EPQQ+BDUA--6" -420 -23 mark 0
AnchorPoint: "+BBEENQQ3BEsEPARPBD0EPQQ+BDUA--4" -420 -23 mark 0
LayerCount: 2
Fore
SplineSet
-760 -450 m 1,0,-1
 -760 -364 l 1,1,-1
 -176 -364 l 1,2,-1
 -176 -280 l 1,3,-1
 -760 -280 l 1,4,-1
 -760 -23 l 1,5,-1
 -80 -23 l 1,6,-1
 -80 -109 l 1,7,-1
 -664 -109 l 1,8,-1
 -664 -194 l 1,9,-1
 -80 -194 l 1,10,-1
 -80 -450 l 1,11,-1
 -760 -450 l 1,0,-1
EndSplineSet
Substitution2: "+BBUENAQ4BD0EOARHBD0EMARP +BD8EPgQ0BEEEQgQwBD0EPgQyBDoEMAAA lookup 26 subtable" da_zanb.sub
EndChar

StartChar: na_zanb.short
Encoding: 1114182 -1 139
Width: 0
GlyphClass: 4
Flags: W
HStem: -450 86<-664 -468> -278 86<-664 -468 -372 -176> -109 86<-760 -176>
VStem: -760 96<-364 -278> -468 96<-364 -278> -176 96<-450 -278 -192 -109>
CounterMasks: 1 1c
AnchorPoint: "+BBEENQQ3BEsEPARPBD0EPQQ+BDUA--9" -420 -23 mark 0
AnchorPoint: "+BBEENQQ3BEsEPARPBD0EPQQ+BDUA--7" -176 -450 basemark 0
AnchorPoint: "+BBEENQQ3BEsEPARPBD0EPQQ+BDUA--6" -420 -536 basemark 0
AnchorPoint: "+BBEENQQ3BEsEPARPBD0EPQQ+BDUA--6" -420 -23 mark 0
AnchorPoint: "+BBEENQQ3BEsEPARPBD0EPQQ+BDUA--4" -420 -23 mark 0
LayerCount: 2
Fore
SplineSet
-760 -450 m 1,0,-1
 -760 -192 l 1,1,-1
 -176 -192 l 1,2,-1
 -176 -109 l 1,3,-1
 -760 -109 l 1,4,-1
 -760 -23 l 1,5,-1
 -80 -23 l 1,6,-1
 -80 -450 l 1,7,-1
 -176 -450 l 1,8,-1
 -176 -278 l 1,9,-1
 -372 -278 l 1,10,-1
 -372 -450 l 1,11,-1
 -760 -450 l 1,0,-1
-664 -364 m 1,12,-1
 -468 -364 l 1,13,-1
 -468 -278 l 1,14,-1
 -664 -278 l 1,15,-1
 -664 -364 l 1,12,-1
EndSplineSet
Substitution2: "+BBUENAQ4BD0EOARHBD0EMARP +BD8EPgQ0BEEEQgQwBD0EPgQyBDoEMAAA lookup 26 subtable" na_zanb.sub
EndChar

StartChar: pa_zanb.short
Encoding: 1114183 -1 140
Width: 0
GlyphClass: 4
Flags: W
HStem: -450 86<-664 -176>
VStem: -760 96<-364 -23> -176 96<-364 -23>
AnchorPoint: "+BBEENQQ3BEsEPARPBD0EPQQ+BDUA--9" -420 -23 mark 0
AnchorPoint: "+BBEENQQ3BEsEPARPBD0EPQQ+BDUA--7" -176 -450 basemark 0
AnchorPoint: "+BBEENQQ3BEsEPARPBD0EPQQ+BDUA--6" -420 -536 basemark 0
AnchorPoint: "+BBEENQQ3BEsEPARPBD0EPQQ+BDUA--6" -420 -23 mark 0
AnchorPoint: "+BBEENQQ3BEsEPARPBD0EPQQ+BDUA--4" -420 -23 mark 0
LayerCount: 2
Fore
SplineSet
-760 -450 m 1,0,-1
 -760 -23 l 1,1,-1
 -664 -23 l 1,2,-1
 -664 -364 l 1,3,-1
 -176 -364 l 1,4,-1
 -176 -23 l 1,5,-1
 -80 -23 l 1,6,-1
 -80 -450 l 1,7,-1
 -760 -450 l 1,0,-1
EndSplineSet
Substitution2: "+BBUENAQ4BD0EOARHBD0EMARP +BD8EPgQ0BEEEQgQwBD0EPgQyBDoEMAAA lookup 26 subtable" pa_zanb.sub
EndChar

StartChar: ba_zanb.short
Encoding: 1114184 -1 141
Width: 0
GlyphClass: 4
Flags: W
HStem: -450 86<-664 -176> -109 86<-664 -176>
VStem: -760 96<-364 -109> -176 96<-364 -109>
AnchorPoint: "+BBEENQQ3BEsEPARPBD0EPQQ+BDUA--9" -420 -23 mark 0
AnchorPoint: "+BBEENQQ3BEsEPARPBD0EPQQ+BDUA--7" -176 -450 basemark 0
AnchorPoint: "+BBEENQQ3BEsEPARPBD0EPQQ+BDUA--6" -420 -536 basemark 0
AnchorPoint: "+BBEENQQ3BEsEPARPBD0EPQQ+BDUA--6" -420 -23 mark 0
AnchorPoint: "+BBEENQQ3BEsEPARPBD0EPQQ+BDUA--4" -420 -23 mark 0
LayerCount: 2
Fore
SplineSet
-760 -450 m 1,0,-1
 -760 -23 l 1,1,-1
 -80 -23 l 1,2,-1
 -80 -450 l 1,3,-1
 -760 -450 l 1,0,-1
-664 -364 m 1,4,-1
 -176 -364 l 1,5,-1
 -176 -109 l 1,6,-1
 -664 -109 l 1,7,-1
 -664 -364 l 1,4,-1
EndSplineSet
Substitution2: "+BBUENAQ4BD0EOARHBD0EMARP +BD8EPgQ0BEEEQgQwBD0EPgQyBDoEMAAA lookup 26 subtable" ba_zanb.sub
EndChar

StartChar: ma_zanb.short
Encoding: 1114185 -1 142
Width: 0
GlyphClass: 4
Flags: W
HStem: -450 86<-664 -468 -372 -176> -109 86<-664 -468>
VStem: -760 96<-364 -109> -468 96<-364 -109> -176 96<-364 -23>
CounterMasks: 1 38
AnchorPoint: "+BBEENQQ3BEsEPARPBD0EPQQ+BDUA--9" -420 -23 mark 0
AnchorPoint: "+BBEENQQ3BEsEPARPBD0EPQQ+BDUA--7" -175 -450 basemark 0
AnchorPoint: "+BBEENQQ3BEsEPARPBD0EPQQ+BDUA--6" -419 -536 basemark 0
AnchorPoint: "+BBEENQQ3BEsEPARPBD0EPQQ+BDUA--6" -420 -23 mark 0
AnchorPoint: "+BBEENQQ3BEsEPARPBD0EPQQ+BDUA--4" -420 -23 mark 0
LayerCount: 2
Fore
SplineSet
-760 -450 m 1,0,-1
 -760 -23 l 1,1,-1
 -372 -23 l 1,2,-1
 -372 -364 l 1,3,-1
 -176 -364 l 1,4,-1
 -176 -23 l 1,5,-1
 -80 -23 l 1,6,-1
 -80 -450 l 1,7,-1
 -760 -450 l 1,0,-1
-664 -364 m 1,8,-1
 -468 -364 l 1,9,-1
 -468 -109 l 1,10,-1
 -664 -109 l 1,11,-1
 -664 -364 l 1,8,-1
EndSplineSet
Substitution2: "+BBUENAQ4BD0EOARHBD0EMARP +BD8EPgQ0BEEEQgQwBD0EPgQyBDoEMAAA lookup 26 subtable" ma_zanb.sub
EndChar

StartChar: tsa_zanb.short
Encoding: 1114186 -1 143
Width: 0
GlyphClass: 4
Flags: W
HStem: -450 86<-760 -468 -372 -176> -109 86<-760 -468 -372 -176>
VStem: -468 96<-364 -109> -176 96<-364 -109>
AnchorPoint: "+BBEENQQ3BEsEPARPBD0EPQQ+BDUA--9" -424 -23 mark 0
AnchorPoint: "+BBEENQQ3BEsEPARPBD0EPQQ+BDUA--7" -176 -450 basemark 0
AnchorPoint: "+BBEENQQ3BEsEPARPBD0EPQQ+BDUA--6" -420 -536 basemark 0
AnchorPoint: "+BBEENQQ3BEsEPARPBD0EPQQ+BDUA--6" -424 -23 mark 0
AnchorPoint: "+BBEENQQ3BEsEPARPBD0EPQQ+BDUA--4" -424 -23 mark 0
LayerCount: 2
Fore
SplineSet
-760 -450 m 1,0,-1
 -760 -364 l 1,1,-1
 -468 -364 l 1,2,-1
 -468 -109 l 1,3,-1
 -760 -109 l 1,4,-1
 -760 -23 l 1,5,-1
 -170 -23 l 1,6,7
 -106 12 -106 12 -62 44 c 128,-1,8
 -18 76 -18 76 21 107 c 1,9,10
 40 92 40 92 57 80 c 128,-1,11
 74 68 74 68 93 58 c 0,12,13
 113 48 113 48 126 42 c 128,-1,14
 139 36 139 36 159 29 c 1,15,16
 147 -7 147 -7 128.5 -30.5 c 128,-1,17
 110 -54 110 -54 86 -68 c 1,18,19
 61 -57 61 -57 42.5 -47 c 128,-1,20
 24 -37 24 -37 6.5 -24.5 c 128,-1,21
 -11 -12 -11 -12 -35 7 c 1,22,23
 -49 -4 -49 -4 -58 -11 c 128,-1,24
 -67 -18 -67 -18 -80 -26 c 1,25,-1
 -80 -450 l 1,26,-1
 -760 -450 l 1,0,-1
-372 -364 m 1,27,-1
 -176 -364 l 1,28,-1
 -176 -109 l 1,29,-1
 -372 -109 l 1,30,-1
 -372 -364 l 1,27,-1
EndSplineSet
Substitution2: "+BBUENAQ4BD0EOARHBD0EMARP +BD8EPgQ0BEEEQgQwBD0EPgQyBDoEMAAA lookup 26 subtable" tsa_zanb.sub
EndChar

StartChar: dza_zanb.short
Encoding: 1114187 -1 144
Width: 0
GlyphClass: 4
Flags: W
HStem: -450 86<-664 -80> -278 86<-664 -80> -109 86<-664 -138.953>
VStem: -760 96<-364 -278 -192 -109>
AnchorPoint: "+BBEENQQ3BEsEPARPBD0EPQQ+BDUA--9" -420 -23 mark 0
AnchorPoint: "+BBEENQQ3BEsEPARPBD0EPQQ+BDUA--7" -159 -450 basemark 0
AnchorPoint: "+BBEENQQ3BEsEPARPBD0EPQQ+BDUA--6" -420 -536 basemark 0
AnchorPoint: "+BBEENQQ3BEsEPARPBD0EPQQ+BDUA--6" -420 -23 mark 0
AnchorPoint: "+BBEENQQ3BEsEPARPBD0EPQQ+BDUA--4" -420 -23 mark 0
LayerCount: 2
Fore
SplineSet
-760 -450 m 1,0,-1
 -760 -23 l 1,1,-1
 -177 -23 l 1,2,3
 -113 12 -113 12 -69 44 c 128,-1,4
 -25 76 -25 76 14 107 c 1,5,6
 33 92 33 92 50 80 c 128,-1,7
 67 68 67 68 86 58 c 0,8,9
 106 48 106 48 119 42 c 128,-1,10
 132 36 132 36 152 29 c 1,11,12
 140 -7 140 -7 121.5 -30.5 c 128,-1,13
 103 -54 103 -54 79 -68 c 1,14,15
 54 -57 54 -57 35.5 -47 c 128,-1,16
 17 -37 17 -37 -0.5 -24.5 c 128,-1,17
 -18 -12 -18 -12 -42 7 c 1,18,19
 -63 -7 -63 -7 -74.5 -14.5 c 128,-1,20
 -86 -22 -86 -22 -107 -36 c 1,21,-1
 -107 -109 l 1,22,-1
 -664 -109 l 1,23,-1
 -664 -192 l 1,24,-1
 -80 -192 l 1,25,-1
 -80 -278 l 1,26,-1
 -664 -278 l 1,27,-1
 -664 -364 l 1,28,-1
 -80 -364 l 1,29,-1
 -80 -450 l 1,30,-1
 -760 -450 l 1,0,-1
EndSplineSet
Substitution2: "+BBUENAQ4BD0EOARHBD0EMARP +BD8EPgQ0BEEEQgQwBD0EPgQyBDoEMAAA lookup 26 subtable" dza_zanb.sub
EndChar

StartChar: ha_zanb.short
Encoding: 1114188 -1 145
Width: 0
GlyphClass: 4
Flags: W
HStem: -450 86<-664 -468> -271 86<-372 -176> -109 86<-664 -80>
VStem: -760 96<-364 -109> -468 96<-364 -271> -176 96<-450 -271>
CounterMasks: 1 1c
AnchorPoint: "+BBEENQQ3BEsEPARPBD0EPQQ+BDUA--9" -420 -23 mark 0
AnchorPoint: "+BBEENQQ3BEsEPARPBD0EPQQ+BDUA--7" -176 -450 basemark 0
AnchorPoint: "+BBEENQQ3BEsEPARPBD0EPQQ+BDUA--6" -420 -536 basemark 0
AnchorPoint: "+BBEENQQ3BEsEPARPBD0EPQQ+BDUA--6" -420 -23 mark 0
AnchorPoint: "+BBEENQQ3BEsEPARPBD0EPQQ+BDUA--4" -420 -23 mark 0
LayerCount: 2
Fore
SplineSet
-760 -450 m 1,0,-1
 -760 -23 l 1,1,-1
 -80 -23 l 1,2,-1
 -80 -109 l 1,3,-1
 -664 -109 l 1,4,-1
 -664 -364 l 1,5,-1
 -468 -364 l 1,6,-1
 -468 -185 l 1,7,-1
 -80 -185 l 1,8,-1
 -80 -450 l 1,9,-1
 -176 -450 l 1,10,-1
 -176 -271 l 1,11,-1
 -372 -271 l 1,12,-1
 -372 -450 l 1,13,-1
 -760 -450 l 1,0,-1
EndSplineSet
Substitution2: "+BBUENAQ4BD0EOARHBD0EMARP +BD8EPgQ0BEEEQgQwBD0EPgQyBDoEMAAA lookup 26 subtable" ha_zanb.sub
EndChar

StartChar: initialHeadMark_zanb
Encoding: 72255 72255 146
Width: 840
GlyphClass: 2
Flags: W
HStem: 0 86<176 664> 592 86<450 664>
VStem: 80 96<86 678> 354 96<320 592> 664 96<86 592>
AnchorPoint: "+BBEENQQ3BEsEPARPBD0EPQQ+BDUA--5" 664 0 basechar 0
AnchorPoint: "+BBEENQQ3BEsEPARPBD0EPQQ+BDUA--4" 420 -86 basechar 0
AnchorPoint: "+BBEENQQ3BEsEPARPBD0EPQQ+BDUA--2" 80 678 basechar 0
AnchorPoint: "+BBEENQQ3BEsEPARPBD0EPQQ+BDUA--1" 760 678 basechar 0
AnchorPoint: "+BBEENQQ3BEsEPARPBD0EPQQ+BDUA--0" 420 778 basechar 0
LayerCount: 2
Fore
SplineSet
80 0 m 1,0,-1
 80 678 l 1,1,-1
 176 678 l 1,2,-1
 176 86 l 1,3,-1
 664 86 l 1,4,-1
 664 592 l 1,5,-1
 450 592 l 1,6,-1
 450 320 l 1,7,-1
 354 320 l 1,8,-1
 354 678 l 1,9,-1
 760 678 l 1,10,-1
 760 0 l 1,11,-1
 80 0 l 1,0,-1
EndSplineSet
EndChar

StartChar: closingHeadMark_zanb
Encoding: 72256 72256 147
Width: 840
GlyphClass: 1
Flags: W
HStem: 0 86<80 664> 592 86<450 664>
VStem: 354 96<320 592> 664 96<86 592>
LayerCount: 2
Fore
SplineSet
80 0 m 1,0,-1
 80 86 l 1,1,-1
 664 86 l 1,2,-1
 664 592 l 1,3,-1
 450 592 l 1,4,-1
 450 320 l 1,5,-1
 354 320 l 1,6,-1
 354 678 l 1,7,-1
 760 678 l 1,8,-1
 760 0 l 1,9,-1
 80 0 l 1,0,-1
EndSplineSet
EndChar

StartChar: tsheg_zanb
Encoding: 72257 72257 148
Width: 257
GlyphClass: 1
Flags: W
HStem: 587 150<80 177>
VStem: 80 97<587 737>
LayerCount: 2
Fore
SplineSet
80 587 m 1,0,-1
 80 737 l 1,1,-1
 177 737 l 1,2,-1
 177 587 l 1,3,-1
 80 587 l 1,0,-1
EndSplineSet
EndChar

StartChar: longTsheg_zanb
Encoding: 72260 72260 149
Width: 840
GlyphClass: 1
Flags: MWO
HStem: -50 86<176 664> 160 86<176 664> 504 86<176 664> 714 86<176 664>
VStem: 80 96<36 160 590 714> 664 96<36 160 590 714>
LayerCount: 2
Fore
SplineSet
80 504 m 1,0,-1
 80 800 l 1,1,-1
 760 800 l 1,2,-1
 760 504 l 1,3,-1
 80 504 l 1,0,-1
176 590 m 1,4,-1
 664 590 l 1,5,-1
 664 714 l 1,6,-1
 176 714 l 1,7,-1
 176 590 l 1,4,-1
80 332 m 1,8,-1
 80 418 l 1,9,-1
 760 418 l 1,10,-1
 760 332 l 1,11,-1
 80 332 l 1,8,-1
80 -50 m 1,12,-1
 80 246 l 1,13,-1
 760 246 l 1,14,-1
 760 -50 l 1,15,-1
 80 -50 l 1,12,-1
176 36 m 1,16,-1
 664 36 l 1,17,-1
 664 160 l 1,18,-1
 176 160 l 1,19,-1
 176 36 l 1,16,-1
EndSplineSet
EndChar

StartChar: shad_zanb
Encoding: 72258 72258 150
Width: 257
GlyphClass: 1
Flags: W
HStem: 0 21G<80 177>
VStem: 80 97<0 678>
LayerCount: 2
Fore
SplineSet
80 0 m 1,0,-1
 80 678 l 1,1,-1
 177 678 l 1,2,-1
 177 0 l 1,3,-1
 80 0 l 1,0,-1
EndSplineSet
EndChar

StartChar: initialDoubleHeadMark_zanb
Encoding: 72261 72261 152
Width: 840
GlyphClass: 2
Flags: W
HStem: -86 86<80 760> 100 86<176 664> 592 86<450 664>
VStem: 80 96<186 678> 354 96<320 592> 664 96<186 592>
AnchorPoint: "+BBEENQQ3BEsEPARPBD0EPQQ+BDUA--5" 664 -86 basechar 0
AnchorPoint: "+BBEENQQ3BEsEPARPBD0EPQQ+BDUA--4" 420 -172 basechar 0
AnchorPoint: "+BBEENQQ3BEsEPARPBD0EPQQ+BDUA--2" 80 678 basechar 0
AnchorPoint: "+BBEENQQ3BEsEPARPBD0EPQQ+BDUA--1" 760 678 basechar 0
AnchorPoint: "+BBEENQQ3BEsEPARPBD0EPQQ+BDUA--0" 420 778 basechar 0
LayerCount: 2
Fore
SplineSet
80 100 m 1,0,-1
 80 678 l 1,1,-1
 176 678 l 1,2,-1
 176 186 l 1,3,-1
 664 186 l 1,4,-1
 664 592 l 1,5,-1
 450 592 l 1,6,-1
 450 320 l 1,7,-1
 354 320 l 1,8,-1
 354 678 l 1,9,-1
 760 678 l 1,10,-1
 760 100 l 1,11,-1
 80 100 l 1,0,-1
80 -86 m 1,12,-1
 80 0 l 1,13,-1
 760 0 l 1,14,-1
 760 -86 l 1,15,-1
 80 -86 l 1,12,-1
EndSplineSet
EndChar

StartChar: finalDoubleHeadMark_zanb
Encoding: 72262 72262 153
Width: 840
GlyphClass: 1
Flags: W
HStem: -86 86<80 760> 100 86<80 664> 592 86<450 664>
VStem: 354 96<320 592> 664 96<186 592>
LayerCount: 2
Fore
SplineSet
80 100 m 1,0,-1
 80 186 l 1,1,-1
 664 186 l 1,2,-1
 664 592 l 1,3,-1
 450 592 l 1,4,-1
 450 320 l 1,5,-1
 354 320 l 1,6,-1
 354 678 l 1,7,-1
 760 678 l 1,8,-1
 760 100 l 1,9,-1
 80 100 l 1,0,-1
80 -86 m 1,10,-1
 80 0 l 1,11,-1
 760 0 l 1,12,-1
 760 -86 l 1,13,-1
 80 -86 l 1,10,-1
EndSplineSet
EndChar
